<svg width="13" height="13" viewBox="0 0 13 13" fill="none" xmlns="http://www.w3.org/2000/svg">
<path d="M0.858733 12.6933C0.586399 12.421 0.563704 11.9936 0.79065 11.6954L0.858733 11.6175L10.3153 2.16175L3.49682 2.17571C3.07667 2.17661 2.73533 1.83674 2.73443 1.41659C2.73361 1.03464 3.01441 0.717822 3.38114 0.662695L3.49354 0.654205L12.1535 0.635557C12.2089 0.635438 12.2629 0.641238 12.315 0.652361C12.3303 0.65609 12.3459 0.659933 12.3614 0.664277C12.375 0.667652 12.3885 0.671847 12.4018 0.676402C12.4208 0.683318 12.4402 0.690803 12.4592 0.699109C12.4742 0.70529 12.4881 0.711903 12.5018 0.718919C12.5186 0.727791 12.5361 0.737615 12.5533 0.748189C12.5655 0.755421 12.5767 0.762801 12.5878 0.770467C12.6041 0.782012 12.6206 0.794397 12.6366 0.807538C12.649 0.817415 12.6608 0.827687 12.6723 0.838307C12.6791 0.844893 12.6862 0.851766 12.6933 0.858805L12.7138 0.879913C12.724 0.890882 12.7338 0.902152 12.7433 0.913706L12.6933 0.858805C12.7272 0.892751 12.7573 0.929107 12.7835 0.967322C12.7898 0.976408 12.796 0.985965 12.802 0.995667C12.8144 1.01568 12.8256 1.03569 12.8358 1.05607C12.8409 1.06616 12.8461 1.07718 12.851 1.08834C12.8609 1.11081 12.8695 1.13308 12.877 1.15562C12.8806 1.16618 12.8841 1.17749 12.8873 1.18891C12.8925 1.20758 12.897 1.22586 12.9007 1.24425C12.9034 1.25725 12.9058 1.27112 12.9079 1.28512L12.9094 1.29598C12.9139 1.32941 12.9161 1.36307 12.9161 1.39674L12.9159 1.39788L12.898 10.0586C12.8971 10.4788 12.5558 10.8186 12.1357 10.8178C11.7537 10.817 11.4381 10.5348 11.3845 10.1679L11.3765 10.0555L11.3897 3.23905L1.9346 12.6933C1.63751 12.9904 1.15583 12.9904 0.858733 12.6933Z" fill="#7D7D7D"/>
</svg>
