<svg width="41" height="43" viewBox="0 0 41 43" fill="none" xmlns="http://www.w3.org/2000/svg">
<path d="M9.57742 32.9839C9.07088 32.4461 9.02867 31.602 9.45078 31.0131L9.57742 30.8592L27.1666 12.186L14.4843 12.2135C13.7028 12.2153 13.0679 11.5441 13.0662 10.7144C13.0647 9.96013 13.587 9.33448 14.2691 9.22561L14.4782 9.20884L30.5858 9.17202C30.6888 9.17179 30.7892 9.18324 30.886 9.20521C30.9144 9.21257 30.9435 9.22016 30.9723 9.22874C30.9977 9.2354 31.0227 9.24369 31.0474 9.25268C31.0829 9.26634 31.1189 9.28112 31.1544 9.29752C31.1822 9.30973 31.2081 9.32279 31.2335 9.33665C31.2647 9.35416 31.2973 9.37357 31.3293 9.39445C31.3519 9.40873 31.3729 9.4233 31.3935 9.43844C31.4239 9.46124 31.4545 9.4857 31.4843 9.51165C31.5074 9.53116 31.5293 9.55144 31.5506 9.57242C31.5633 9.58542 31.5765 9.59899 31.5896 9.61289L31.6279 9.65458C31.6468 9.67624 31.665 9.6985 31.6827 9.72132L31.5896 9.61289C31.6528 9.67993 31.7087 9.75173 31.7574 9.82719C31.7691 9.84514 31.7807 9.86401 31.7919 9.88317C31.8149 9.9227 31.8357 9.96221 31.8547 10.0024C31.8642 10.0224 31.8739 10.0441 31.8831 10.0662C31.9015 10.1106 31.9175 10.1545 31.9315 10.1991C31.9381 10.2199 31.9446 10.2422 31.9506 10.2648C31.9603 10.3017 31.9686 10.3378 31.9755 10.3741C31.9805 10.3998 31.985 10.4272 31.9888 10.4548L31.9917 10.4762C31.9999 10.5422 32.0041 10.6087 32.0041 10.6752L32.0038 10.6775L31.9705 27.7808C31.9688 28.6105 31.334 29.2817 30.5525 29.28C29.8421 29.2785 29.255 28.7213 29.1554 27.9966L29.1405 27.7746L29.1651 14.3134L11.5785 32.9839C11.0259 33.5706 10.13 33.5706 9.57742 32.9839Z" fill="#A90B25"/>
</svg>
