<svg width="40" height="37" viewBox="0 0 40 37" fill="none" xmlns="http://www.w3.org/2000/svg">
<path d="M4.07614 35.1617H35.868V15.0355H4.07614V35.1617ZM36.6829 36.658H3.26121C2.81093 36.658 2.4458 36.3224 2.4458 35.9096V14.2872C2.4458 13.8739 2.81093 13.5393 3.26121 13.5393H36.6829C37.1328 13.5393 37.4979 13.8739 37.4979 14.2872V35.9096C37.4979 36.3224 37.1328 36.658 36.6829 36.658" fill="#FFDD22"/>
<path d="M1.63034 13.5392H38.3128V8.3251H1.63034V13.5392ZM39.1282 15.0354H0.815384C0.365571 15.0354 0 14.7003 0 14.2871V7.57721C0 7.16397 0.365571 6.82887 0.815384 6.82887H39.1282C39.578 6.82887 39.9426 7.16397 39.9426 7.57721V14.2871C39.9426 14.7003 39.578 15.0354 39.1282 15.0354Z" fill="#FFDD22"/>
<path d="M14.8011 3.30479C14.7081 3.30479 14.5563 3.32178 14.3115 3.46915C14.0848 3.60506 13.9311 3.80975 13.8784 4.04503C13.8238 4.28924 13.8802 4.54407 14.038 4.7628C14.7474 5.75065 16.6758 6.2399 18.6889 6.6612C18.3325 4.92459 18.0849 3.16294 18.6384 1.80516C18.4417 1.6098 18.1724 1.49682 17.8878 1.49682C17.6939 1.49682 17.5023 1.54991 17.3348 1.65141C16.9743 1.86801 16.816 2.06296 16.9308 2.90472C16.9701 3.19097 16.8262 3.47211 16.561 3.62713C16.2963 3.78257 15.958 3.78513 15.6915 3.63223C15.2995 3.40884 15.0168 3.30479 14.8011 3.30479V3.30479ZM19.414 8.3252C19.3548 8.3252 19.2956 8.31968 19.2368 8.30736L19.1091 8.28102C16.5189 7.75312 13.8409 7.20653 12.677 5.58671C12.279 5.03375 12.1384 4.37844 12.2818 3.74266C12.4239 3.11495 12.827 2.57302 13.4175 2.21755C14.0431 1.84211 14.6628 1.72702 15.3245 1.8625C15.4411 1.3278 15.7517 0.814761 16.4412 0.399827C16.8757 0.138635 17.376 0.000590042 17.8878 0.000590042C18.7791 0.000590042 19.6107 0.415966 20.11 1.1112C20.1684 1.19232 20.2257 1.2815 20.2845 1.38342C20.4108 1.60257 20.4108 1.86546 20.2845 2.08503C19.6718 3.14339 19.9879 4.9641 20.3646 6.73766C20.3845 6.83195 20.3845 6.92919 20.3646 7.0239C20.3146 7.25621 20.2641 7.4898 20.2137 7.72381C20.1702 7.92087 20.0429 8.09374 19.8588 8.20374C19.7255 8.284 19.5709 8.3252 19.414 8.3252" fill="#FFDD22"/>
<path d="M21.2403 1.49682C20.8988 1.49682 20.5771 1.66075 20.3795 1.93554C20.3499 1.97631 20.3184 2.02515 20.2847 2.08503C19.6789 3.13193 19.9816 4.92417 20.3522 6.67989C22.3963 6.25434 24.3705 5.76552 25.091 4.7628C25.2488 4.54407 25.3048 4.28924 25.2497 4.04503C25.197 3.80975 25.0433 3.60506 24.8171 3.46915C24.5722 3.32178 24.4204 3.30479 24.327 3.30479C24.1118 3.30479 23.8286 3.40884 23.4375 3.63223C23.1705 3.7847 22.8322 3.78257 22.568 3.62713C22.3028 3.47211 22.1594 3.19097 22.1978 2.90472C22.3125 2.06296 22.1547 1.86801 21.7938 1.65141C21.6258 1.54991 21.4342 1.49682 21.2403 1.49682V1.49682ZM19.715 8.3252C19.5586 8.3252 19.4035 8.284 19.2703 8.20374C19.0856 8.09374 18.9584 7.9213 18.9149 7.72381C18.8649 7.4898 18.8135 7.25621 18.7645 7.0239C18.3318 4.98703 17.9819 2.87372 18.845 1.38301C18.9033 1.28151 18.9602 1.19232 19.0185 1.1112C19.5188 0.415966 20.3495 0.000590042 21.2403 0.000590042C21.753 0.000590042 22.2533 0.138635 22.6874 0.399827C23.3774 0.814761 23.6874 1.3278 23.8045 1.8625C24.4658 1.72702 25.0855 1.84211 25.7111 2.21755C26.3021 2.57302 26.7051 3.11495 26.8468 3.74266C26.9898 4.37844 26.85 5.03375 26.452 5.58671C25.2877 7.20653 22.6092 7.75312 20.02 8.28102L19.8913 8.30736C19.8325 8.31968 19.7733 8.3252 19.715 8.3252" fill="#FFDD22"/>
<path fill-rule="evenodd" clip-rule="evenodd" d="M14.6731 36.6578H25.2705C25.7208 36.6578 26.0855 36.3223 26.0855 35.9095V7.57719C26.0855 7.16395 25.7208 6.82886 25.2705 6.82886H14.6731C14.2228 6.82886 13.8582 7.16395 13.8582 7.57719V35.9095C13.8582 36.3223 14.2228 36.6578 14.6731 36.6578Z" fill="#FFDD22"/>
</svg>
