<svg width="37" height="37" viewBox="0 0 37 37" fill="none" xmlns="http://www.w3.org/2000/svg">
<path d="M10.2294 1.5107C5.86893 1.5107 2.45327 5.09269 2.45327 9.66534C2.45327 12.847 3.64455 16.2892 6.09699 20.1885C7.30242 22.1063 8.82163 24.1549 10.7425 26.4518C12.6771 28.7666 14.7729 31.0518 17.3235 33.7697C17.7547 34.2287 18.1873 34.6887 18.6202 35.1487C19.0883 34.659 19.556 34.1696 20.0216 33.6805C22.2027 31.3892 24.5123 28.9235 26.6223 26.4175C28.5397 24.1411 30.0594 22.1029 31.2695 20.1871C33.7275 16.2947 34.9227 12.8534 34.9227 9.66534C34.9227 9.53074 34.9192 9.39443 34.9132 9.2624C34.7169 4.84278 31.3775 1.5107 27.1465 1.5107C23.5478 1.5107 21.4936 3.13708 19.2967 7.72603C19.1698 7.99138 18.9015 8.15727 18.6052 8.15556C18.3112 8.1517 18.0462 7.97724 17.9262 7.70846C15.8814 3.13195 13.8671 1.5107 10.2294 1.5107ZM18.6155 37.0005C18.6147 37.0005 18.6134 37.0005 18.6125 37.0005C18.4055 36.9993 18.2079 36.9136 18.0655 36.7622L17.6836 36.3566C17.1958 35.8389 16.7084 35.3206 16.2222 34.8032C13.6541 32.0661 11.5424 29.7628 9.58295 27.4202C7.6192 25.071 6.06055 22.9683 4.81783 20.9922C2.21107 16.8451 0.942627 13.1402 0.942627 9.66534C0.942627 7.05944 1.89728 4.62844 3.62912 2.81944C5.3691 1.00187 7.71351 0.000488281 10.2294 0.000488281C14.5731 0.000488281 16.8515 2.22615 18.6365 5.69412C19.6058 3.91212 20.56 2.68184 21.6432 1.79491C23.1389 0.570621 24.8874 0.000488281 27.1465 0.000488281C29.5831 0.000488281 31.8735 0.947426 33.5972 2.66726C35.3076 4.37338 36.3107 6.69164 36.4222 9.19466C36.429 9.34984 36.4325 9.50802 36.4325 9.66534C36.4325 13.1466 35.1614 16.8525 32.5461 20.9934C31.2995 22.9683 29.7392 25.0603 27.7776 27.3905C25.641 29.9274 23.3129 32.4133 21.1155 34.7217C20.4665 35.4033 19.8141 36.0854 19.1608 36.7669C19.0185 36.9161 18.8213 37.0005 18.6155 37.0005Z" fill="#0559BB"/>
<path d="M13.024 27.1838C12.8757 27.1838 12.7256 27.1406 12.5949 27.0492C12.2519 26.8123 12.1666 26.3419 12.4037 25.9989L25.9956 6.36667C26.2327 6.02373 26.7038 5.938 27.0463 6.17548C27.3897 6.41254 27.4745 6.88365 27.2371 7.22616L13.6455 26.8585C13.4989 27.0703 13.2632 27.1838 13.024 27.1838Z" fill="#0559BB"/>
<path d="M14.5346 12.0817C13.2859 12.0817 12.2695 13.0985 12.2695 14.3468C12.2695 15.5964 13.2859 16.6123 14.5346 16.6123C15.7842 16.6123 16.8001 15.5964 16.8001 14.3468C16.8001 13.0985 15.7842 12.0817 14.5346 12.0817ZM14.5346 18.1226C12.453 18.1226 10.7593 16.4288 10.7593 14.3468C10.7593 12.2652 12.453 10.5715 14.5346 10.5715C16.6167 10.5715 18.3103 12.2652 18.3103 14.3468C18.3103 16.4288 16.6167 18.1226 14.5346 18.1226Z" fill="#0559BB"/>
<path d="M24.3512 18.1226C23.1025 18.1226 22.0857 19.1391 22.0857 20.3877C22.0857 21.6369 23.1025 22.6533 24.3512 22.6533C25.6003 22.6533 26.6167 21.6369 26.6167 20.3877C26.6167 19.1391 25.6003 18.1226 24.3512 18.1226ZM24.3512 24.1636C22.2691 24.1636 20.5754 22.4698 20.5754 20.3877C20.5754 18.3061 22.2691 16.6124 24.3512 16.6124C26.4328 16.6124 28.1265 18.3061 28.1265 20.3877C28.1265 22.4698 26.4328 24.1636 24.3512 24.1636Z" fill="#0559BB"/>
</svg>
