<svg width="59" height="81" viewBox="0 0 59 81" fill="none" xmlns="http://www.w3.org/2000/svg">
<path d="M29.4999 2.72727C27.5574 5.12981 21.6945 12.5132 15.897 21.1125C6.63207 34.8514 1.7352 45.4186 1.7352 51.6715C1.7352 66.8924 14.1903 79.2738 29.4999 79.2738C44.8097 79.2738 57.2648 66.8924 57.2648 51.6715C57.2648 45.4186 52.3677 34.8514 43.103 21.1125C37.3055 12.5132 31.4426 5.12981 29.4999 2.72727ZM29.4999 81C21.6199 81 14.2119 77.948 8.63989 72.4105C3.06883 66.8705 0 59.5066 0 51.6715C0 47.9554 1.53479 42.9501 4.56212 36.7998C6.95407 31.9385 10.285 26.3351 14.4627 20.1408C21.5627 9.61258 28.7582 0.896072 28.8301 0.810616L29.4999 0L30.1699 0.810616C30.2418 0.896072 37.4374 9.61258 44.5373 20.1408C48.7151 26.3351 52.0459 31.9385 54.4379 36.7998C57.4652 42.9501 59 47.9554 59 51.6715C59 59.5066 55.9312 66.8705 50.3599 72.4105C44.7881 77.948 37.3799 81 29.4999 81Z" fill="#0559BB"/>
<path d="M38.5478 55.528C36.3322 57.7517 33.4486 59.0582 30.352 59.2617V55.8009C32.5003 54.8926 40.1703 51.3065 42.1431 45.6219C42.1565 45.5794 42.1721 45.5347 42.1854 45.4922C42.2791 45.9821 42.2947 46.2908 42.2947 46.4497C42.2947 49.8792 40.9638 53.1029 38.5478 55.528ZM17.5863 51.1499C20.8585 55.3669 26.7917 58.0268 28.6478 58.783V59.2617C25.5503 59.0582 22.6666 57.7494 20.4519 55.528C19.1882 54.2595 18.2212 52.7718 17.5863 51.1499ZM25.3457 28.8031C26.3751 27.2617 27.4812 25.6689 28.6478 24.0492V33.6018C28.0564 33.7047 27.1446 33.8412 26.1894 33.9038C24.0412 34.0425 23.0298 33.7159 22.8149 33.3915C22.7204 33.2483 22.7476 32.9172 23.034 32.3825C23.7266 31.2685 24.4937 30.0783 25.3457 28.8031ZM33.9122 29.1902C34.507 30.1275 34.4943 30.566 34.4285 30.66C34.3135 30.8255 33.6677 31.094 32.046 30.9284C31.4044 30.8635 30.7882 30.7494 30.352 30.6555V24.0492C31.539 25.698 32.663 27.3154 33.7051 28.8792C33.7749 28.9843 33.8431 29.0872 33.9122 29.1902ZM17.1926 44.0112C17.2711 43.7584 17.3623 43.4832 17.467 43.1879C17.5598 43.5168 17.6766 43.8434 17.8197 44.1611C19.8623 48.7047 26.4594 50.5727 28.6478 51.0783V56.9217C25.9585 55.7383 19.34 52.4116 17.5308 47.6779C17.064 46.4564 16.9506 45.2438 17.1926 44.0112ZM28.6478 40.7763C27.9242 40.8367 26.7552 40.8993 25.512 40.8277C23.0603 40.6846 21.3646 40.0738 20.7384 39.1074C20.1853 38.255 20.3659 36.9799 21.2743 35.3154C21.3987 35.1007 21.5264 34.8792 21.6568 34.6577C22.3164 35.3199 23.4908 35.6465 25.2204 35.6465C25.5588 35.6465 25.9192 35.6353 26.3002 35.6107C27.1854 35.5526 28.0256 35.4362 28.6478 35.3356V40.7763ZM35.6412 31.8635C35.873 32.2327 36.0971 32.5906 36.3126 32.9441C36.9807 34.1499 37.423 35.472 36.8826 36.3512C35.9325 37.8993 32.2923 37.9508 30.352 37.8009V32.4004C30.7816 32.4832 31.3048 32.5705 31.8527 32.6286C32.2609 32.6689 32.6383 32.6913 32.9876 32.6913C34.2419 32.6913 35.1171 32.4161 35.6412 31.8635ZM30.352 39.5145C30.7686 39.5436 31.2954 39.5705 31.879 39.5705C32.2334 39.5705 32.6084 39.5593 32.9936 39.5369C35.7058 39.3714 37.5021 38.6018 38.333 37.2505C38.3833 37.1678 38.4284 37.085 38.4712 37C38.9431 38.4676 38.9313 39.8009 38.431 40.9888C37.0583 44.2438 32.4149 45.7919 30.352 46.3333V39.5145ZM19.3101 40.0403C20.2705 41.5212 22.3334 42.3602 25.4404 42.5369C25.8698 42.5593 26.2891 42.5705 26.6852 42.5705C27.4523 42.5705 28.1339 42.5324 28.6478 42.4944V49.3154C26.3887 48.7427 20.9787 47.0336 19.3723 43.4564C18.8679 42.3311 18.7894 41.0872 19.1338 39.7382C19.1873 39.8412 19.2462 39.9418 19.3101 40.0403ZM40.534 45.0582C38.9712 49.5682 32.9136 52.7539 30.352 53.9262V48.0984C32.3886 47.6174 38.2086 45.8971 39.9988 41.66C40.1711 41.2506 40.2998 40.8345 40.3874 40.4072C40.4326 40.5034 40.4761 40.5996 40.5187 40.6935C41.0307 42.17 41.0352 43.6107 40.534 45.0582ZM42.0495 39.9172C41.8377 39.3512 41.5679 38.7852 41.238 38.2215C40.7253 37.1969 40.1208 36.0626 39.4068 34.8121C39.1281 34.255 38.7966 33.6913 38.4139 33.1141C38.2001 32.7584 37.9785 32.3915 37.7484 32.0179C37.5396 31.6465 37.3011 31.264 37.0318 30.8703C36.5351 30.0828 36.0032 29.2595 35.4332 28.3982C35.3106 28.1991 35.1963 28.0358 35.1145 27.9172C33.6182 25.6756 31.959 23.3221 30.1833 20.9239L29.4991 20L28.8156 20.9239C27.061 23.2931 25.4172 25.6242 23.9304 27.8501C23.2273 28.9016 22.5806 29.8993 21.9832 30.8434C21.8376 31.0537 21.7114 31.2573 21.5997 31.4564C21.0364 32.3602 20.521 33.2148 20.048 34.0224C20.009 34.0895 19.9704 34.1566 19.9321 34.2215C19.536 34.9038 19.1713 35.5526 18.8355 36.1678C18.5798 36.5973 18.3531 37.0224 18.1581 37.443C17.4345 38.8389 16.873 40.0492 16.4385 41.094C16.0346 41.8837 15.7448 42.6734 15.5693 43.4631C15.1041 44.962 15 45.906 15 46.4497C15 50.3356 16.5083 53.9888 19.247 56.7383C21.9858 59.4855 25.627 61 29.4998 61C33.3728 61 37.0139 59.4855 39.7527 56.7383C42.4908 53.9888 44 50.3356 44 46.4497C44 45.566 43.7236 43.6085 42.0495 39.9172Z" fill="#0559BB"/>
</svg>
