<svg width="197" height="197" viewBox="0 0 197 197" fill="none" xmlns="http://www.w3.org/2000/svg">
<path d="M176.79 105.299C176.863 104.479 176.929 103.741 176.987 103.085C177.045 102.429 177.101 101.807 177.153 101.221C177.91 101.288 178.638 101.353 179.339 101.415C180.039 101.477 180.802 101.545 181.629 101.619L186.142 102.02C186.697 102.07 187.221 102.116 187.713 102.16C188.211 102.204 188.697 102.247 189.17 102.289C189.65 102.332 190.142 102.376 190.646 102.421L189.91 110.701L188.708 110.594C188.768 109.925 188.831 109.209 188.899 108.446C188.967 107.682 189.047 106.783 189.139 105.749L189.394 102.882L190.35 103.72C189.593 103.653 188.861 103.588 188.154 103.525C187.454 103.463 186.681 103.394 185.836 103.319L181.71 102.952C181.067 102.894 180.461 102.841 179.893 102.79C179.332 102.74 178.758 102.689 178.171 102.637L177.942 105.211C177.872 106.006 177.896 106.695 178.016 107.277C178.136 107.86 178.397 108.322 178.799 108.663C179.207 109.005 179.799 109.21 180.575 109.279C181.2 109.335 181.696 109.264 182.063 109.068C182.436 108.879 182.716 108.621 182.904 108.294C183.098 107.974 183.23 107.636 183.3 107.28C183.369 106.924 183.417 106.607 183.441 106.329L183.742 102.951L184.858 103.05C184.823 103.448 184.78 103.937 184.728 104.517C184.676 105.104 184.617 105.769 184.55 106.514C184.461 107.523 184.251 108.344 183.921 108.976C183.598 109.608 183.144 110.061 182.561 110.333C181.977 110.605 181.253 110.703 180.389 110.626C179.606 110.557 178.923 110.343 178.338 109.986C177.759 109.636 177.328 109.082 177.045 108.326C176.762 107.576 176.677 106.567 176.79 105.299Z" fill="black"/>
<path d="M173.817 120.138C174.105 119.074 174.548 118.249 175.147 117.664C175.749 117.085 176.458 116.723 177.272 116.576C178.084 116.435 178.952 116.49 179.875 116.74C180.786 116.987 181.547 117.374 182.159 117.901C182.776 118.435 183.199 119.065 183.429 119.79C183.663 120.523 183.665 121.314 183.435 122.164C183.233 122.909 182.905 123.513 182.452 123.974C182.004 124.443 181.452 124.746 180.798 124.884C180.144 125.022 179.404 124.979 178.579 124.755C178.359 124.696 178.159 124.635 177.979 124.573C177.803 124.519 177.631 124.452 177.462 124.374L178.35 123.492C178.445 123.531 178.538 123.563 178.63 123.588C178.72 123.619 178.808 123.646 178.893 123.669C179.847 123.927 180.622 123.888 181.218 123.551C181.821 123.216 182.225 122.669 182.431 121.911C182.6 121.288 182.592 120.711 182.407 120.182C182.221 119.659 181.891 119.206 181.417 118.822C180.942 118.444 180.36 118.161 179.669 117.974L179.513 117.931C178.755 117.726 178.066 117.677 177.446 117.785C176.825 117.899 176.293 118.178 175.851 118.622C175.408 119.073 175.076 119.705 174.855 120.518C174.774 120.817 174.715 121.133 174.678 121.464C174.641 121.795 174.629 122.13 174.642 122.468C174.655 122.806 174.702 123.14 174.783 123.471L173.657 123.234C173.591 122.967 173.551 122.668 173.536 122.335C173.527 122.005 173.547 121.653 173.596 121.279C173.639 120.903 173.712 120.523 173.817 120.138ZM179.413 117.176L180.302 117.417L178.592 123.873L178.141 124.558L177.462 124.374L179.413 117.176Z" fill="black"/>
<path d="M169.959 130.574C170.127 130.205 170.305 129.865 170.495 129.555C170.685 129.244 170.877 128.966 171.072 128.721C171.267 128.476 171.456 128.266 171.639 128.092C171.823 127.918 171.987 127.777 172.134 127.669L173.113 128.27C172.85 128.45 172.592 128.674 172.338 128.941C172.082 129.215 171.839 129.521 171.608 129.862C171.377 130.202 171.175 130.562 171.002 130.943C170.724 131.554 170.58 132.063 170.57 132.468C170.557 132.88 170.633 133.21 170.798 133.459C170.964 133.708 171.185 133.895 171.461 134.021C171.79 134.17 172.113 134.195 172.429 134.095C172.743 134.001 173.038 133.804 173.313 133.505C173.591 133.214 173.83 132.849 174.029 132.411C174.186 132.065 174.323 131.762 174.441 131.503C174.559 131.243 174.677 130.984 174.794 130.724L175.668 131.121C175.566 131.346 175.461 131.577 175.354 131.813C175.247 132.05 175.121 132.326 174.977 132.644C174.629 133.411 174.526 134.035 174.669 134.517C174.809 135.005 175.107 135.353 175.562 135.559C175.885 135.706 176.191 135.73 176.479 135.631C176.77 135.541 177.04 135.354 177.287 135.07C177.532 134.791 177.753 134.433 177.952 133.995C178.086 133.701 178.195 133.392 178.279 133.068C178.367 132.753 178.429 132.417 178.467 132.058C178.502 131.705 178.507 131.318 178.483 130.897L179.572 131.256C179.582 131.539 179.568 131.862 179.527 132.227C179.493 132.594 179.421 132.982 179.312 133.391C179.208 133.803 179.064 134.211 178.881 134.615C178.564 135.312 178.205 135.852 177.802 136.232C177.406 136.616 176.986 136.85 176.545 136.934C176.106 137.027 175.67 136.975 175.238 136.779C174.655 136.515 174.266 136.154 174.071 135.696C173.881 135.241 173.813 134.793 173.867 134.352L173.746 134.297C173.573 134.524 173.345 134.737 173.06 134.935C172.776 135.132 172.446 135.261 172.071 135.32C171.702 135.382 171.301 135.315 170.869 135.119C170.448 134.927 170.094 134.642 169.808 134.261C169.527 133.883 169.382 133.393 169.37 132.79C169.365 132.189 169.561 131.45 169.959 130.574Z" fill="black"/>
<path d="M163.158 142.61C163.584 141.988 164.071 141.512 164.619 141.181C165.169 140.859 165.747 140.663 166.354 140.595C166.961 140.526 167.569 140.574 168.179 140.737C168.79 140.91 169.365 141.18 169.903 141.548C170.677 142.077 171.257 142.704 171.644 143.429C172.033 144.162 172.203 144.934 172.155 145.745C172.103 146.562 171.811 147.359 171.278 148.138C170.867 148.74 170.399 149.206 169.873 149.537C169.353 149.872 168.797 150.079 168.206 150.158C167.617 150.246 167.022 150.207 166.421 150.042C165.817 149.882 165.23 149.608 164.66 149.218C163.891 148.693 163.301 148.063 162.89 147.329C162.484 146.599 162.294 145.821 162.322 144.996C162.35 144.179 162.629 143.384 163.158 142.61ZM164.073 143.224C163.648 143.847 163.448 144.465 163.472 145.08C163.498 145.704 163.682 146.283 164.024 146.815C164.371 147.352 164.818 147.808 165.367 148.183C165.984 148.605 166.602 148.862 167.221 148.955C167.84 149.049 168.421 148.974 168.963 148.731C169.507 148.496 169.974 148.094 170.363 147.524C170.781 146.913 170.997 146.3 171.009 145.687C171.023 145.083 170.868 144.513 170.544 143.977C170.22 143.441 169.771 142.976 169.195 142.583C168.646 142.208 168.057 141.959 167.428 141.835C166.804 141.716 166.195 141.76 165.601 141.967C165.011 142.178 164.502 142.597 164.073 143.224Z" fill="black"/>
<path d="M156.964 150.947C157.465 151.44 157.947 151.916 158.412 152.374C158.877 152.832 159.384 153.332 159.934 153.874L160.611 154.541C160.999 154.924 161.362 155.281 161.7 155.615C162.039 155.948 162.368 156.273 162.688 156.589C163.009 156.904 163.336 157.226 163.669 157.555L158.368 162.935C158.034 162.606 157.707 162.283 157.387 161.968C157.067 161.652 156.737 161.327 156.399 160.994C156.061 160.661 155.698 160.303 155.31 159.92L154.633 159.254C154.083 158.711 153.575 158.211 153.111 157.753C152.646 157.295 152.163 156.82 151.663 156.326L152.516 155.46C153.017 155.953 153.5 156.429 153.964 156.887C154.429 157.345 154.936 157.845 155.487 158.387L156.163 159.054C156.542 159.428 156.889 159.77 157.205 160.081C157.525 160.397 157.837 160.704 158.139 161.002C158.441 161.299 158.755 161.608 159.079 161.928L158.084 161.748L162.478 157.289L162.674 158.281C162.349 157.961 162.035 157.652 161.733 157.355C161.431 157.057 161.12 156.75 160.799 156.434C160.484 156.123 160.136 155.781 159.758 155.407L159.081 154.74C158.531 154.198 158.023 153.698 157.559 153.24C157.094 152.782 156.611 152.306 156.111 151.813L156.964 150.947Z" fill="black"/>
<path d="M144.982 161.489C145.449 161.151 145.918 160.946 146.388 160.872C146.862 160.803 147.31 160.862 147.734 161.049C148.161 161.24 148.536 161.559 148.858 162.006C149.155 162.417 149.329 162.815 149.38 163.199C149.431 163.584 149.399 163.951 149.284 164.3C149.167 164.657 149 164.989 148.783 165.294C148.57 165.604 148.34 165.887 148.095 166.142L145.933 168.406C146.335 169.006 146.726 169.392 147.107 169.562C147.486 169.741 147.858 169.774 148.221 169.66C148.588 169.552 148.948 169.369 149.302 169.114C149.477 168.988 149.655 168.839 149.837 168.669C150.022 168.504 150.207 168.316 150.391 168.105C150.575 167.895 150.763 167.657 150.955 167.394C151.142 167.134 151.332 166.844 151.524 166.526L152.264 167.421C152.134 167.632 151.983 167.855 151.809 168.09C151.63 168.328 151.432 168.569 151.216 168.81C151 169.052 150.77 169.285 150.525 169.508C150.279 169.741 150.027 169.95 149.77 170.135C149.221 170.532 148.684 170.783 148.158 170.889C147.632 171.003 147.124 170.944 146.636 170.711C146.142 170.481 145.676 170.063 145.239 169.458C145.065 169.216 144.846 168.913 144.583 168.549C144.32 168.184 144.068 167.835 143.827 167.501L143.076 166.461C142.831 166.122 142.579 165.773 142.32 165.414C142.064 165.059 141.784 164.672 141.48 164.25L142.389 163.594L143.245 164.699L143.368 164.61C143.372 164.279 143.43 163.921 143.542 163.536C143.653 163.159 143.828 162.79 144.068 162.43C144.302 162.073 144.607 161.759 144.982 161.489ZM145.358 162.529C145.065 162.741 144.811 163.01 144.594 163.338C144.382 163.671 144.234 164.051 144.152 164.478C144.064 164.908 144.064 165.373 144.151 165.873L145.489 167.742C145.543 167.633 145.623 167.501 145.73 167.346C145.84 167.196 146.015 166.984 146.255 166.709C146.498 166.44 146.843 166.069 147.292 165.597C147.574 165.307 147.802 165.006 147.975 164.694C148.143 164.385 148.226 164.068 148.224 163.741C148.226 163.419 148.111 163.096 147.877 162.773C147.521 162.28 147.123 162.036 146.682 162.042C146.236 162.052 145.794 162.214 145.358 162.529Z" fill="black"/>
<path d="M132.522 169.057C133.421 168.604 134.281 168.411 135.103 168.479C135.924 168.547 136.666 168.829 137.328 169.325C137.989 169.821 138.527 170.48 138.94 171.299C139.36 172.131 139.578 172.957 139.595 173.778C139.606 174.603 139.406 175.359 138.995 176.049C138.584 176.739 137.949 177.3 137.089 177.734C136.761 177.899 136.425 178.034 136.079 178.137C135.734 178.24 135.397 178.311 135.069 178.348C134.738 178.395 134.43 178.412 134.147 178.398L133.744 177.304C134.146 177.328 134.513 177.317 134.844 177.27C135.178 177.229 135.478 177.163 135.744 177.072C136.013 176.986 136.252 176.89 136.461 176.784C137.389 176.317 137.98 175.639 138.234 174.752C138.486 173.873 138.353 172.919 137.834 171.89C137.509 171.245 137.095 170.727 136.592 170.335C136.089 169.943 135.522 169.718 134.89 169.661C134.253 169.606 133.572 169.762 132.848 170.127C132.599 170.252 132.362 170.4 132.136 170.571C131.904 170.745 131.69 170.938 131.492 171.151C131.298 171.37 131.123 171.607 130.968 171.862L130.314 170.883C130.447 170.696 130.618 170.493 130.826 170.274C131.032 170.064 131.278 169.855 131.563 169.647C131.84 169.436 132.16 169.24 132.522 169.057Z" fill="black"/>
<path d="M124.912 172.546C125.119 173.218 125.318 173.865 125.51 174.489C125.702 175.112 125.912 175.793 126.139 176.532L126.419 177.44C126.579 177.96 126.729 178.447 126.869 178.901C127.009 179.355 127.145 179.797 127.277 180.227C127.41 180.657 127.545 181.096 127.683 181.544L126.544 181.944C126.406 181.496 126.27 181.054 126.135 180.618C126.001 180.183 125.863 179.735 125.722 179.275C125.582 178.821 125.43 178.327 125.266 177.795L124.986 176.887C124.759 176.148 124.549 175.467 124.357 174.844C124.165 174.221 123.966 173.573 123.759 172.901L124.912 172.546ZM125.481 176.814L125.783 177.795L119.845 179.623L119.543 178.642L125.481 176.814ZM118.838 174.416C119.045 175.088 119.244 175.736 119.436 176.359C119.628 176.983 119.838 177.664 120.065 178.402L120.345 179.31C120.505 179.831 120.655 180.318 120.795 180.772C120.935 181.226 121.071 181.668 121.203 182.097C121.336 182.527 121.471 182.966 121.609 183.414L120.447 183.772C120.309 183.324 120.173 182.885 120.041 182.455C119.909 182.025 119.773 181.584 119.633 181.13C119.493 180.676 119.343 180.188 119.183 179.668L118.903 178.76C118.676 178.022 118.466 177.341 118.274 176.717C118.082 176.094 117.883 175.446 117.676 174.774L118.838 174.416Z" fill="black"/>
<path d="M109.385 176.131C109.957 176.056 110.467 176.097 110.916 176.256C111.365 176.42 111.732 176.684 112.017 177.049C112.302 177.421 112.481 177.879 112.553 178.426C112.619 178.928 112.583 179.361 112.446 179.724C112.308 180.087 112.106 180.395 111.839 180.647C111.567 180.906 111.263 181.119 110.927 181.285C110.592 181.457 110.255 181.597 109.918 181.705L106.941 182.672C107.01 183.391 107.172 183.916 107.427 184.247C107.675 184.584 107.987 184.789 108.36 184.862C108.735 184.94 109.139 184.951 109.572 184.894C109.785 184.865 110.013 184.82 110.253 184.756C110.495 184.698 110.746 184.621 111.008 184.522C111.27 184.424 111.548 184.304 111.842 184.163C112.131 184.023 112.435 183.858 112.755 183.669L112.982 184.808C112.768 184.932 112.529 185.057 112.264 185.181C111.993 185.306 111.705 185.424 111.4 185.534C111.095 185.645 110.782 185.74 110.461 185.821C110.134 185.909 109.813 185.973 109.499 186.015C108.827 186.103 108.235 186.069 107.723 185.913C107.205 185.764 106.786 185.471 106.467 185.034C106.141 184.598 105.929 184.01 105.832 183.269C105.793 182.974 105.744 182.603 105.685 182.157C105.626 181.711 105.57 181.284 105.516 180.876L105.349 179.605C105.294 179.19 105.238 178.763 105.18 178.324C105.123 177.891 105.061 177.417 104.993 176.902L106.104 176.755L106.334 178.134L106.484 178.114C106.644 177.824 106.865 177.537 107.147 177.25C107.423 176.971 107.752 176.73 108.134 176.526C108.51 176.323 108.927 176.192 109.385 176.131ZM109.223 177.226C108.865 177.273 108.513 177.39 108.167 177.576C107.822 177.768 107.512 178.033 107.237 178.369C106.955 178.706 106.735 179.116 106.574 179.597L106.865 181.877C106.965 181.807 107.098 181.728 107.265 181.642C107.434 181.563 107.688 181.459 108.029 181.331C108.371 181.209 108.851 181.047 109.47 180.844C109.856 180.723 110.2 180.566 110.5 180.373C110.794 180.181 111.018 179.941 111.171 179.652C111.326 179.37 111.377 179.031 111.325 178.635C111.246 178.033 111.01 177.629 110.619 177.425C110.222 177.222 109.757 177.156 109.223 177.226Z" fill="black"/>
<path d="M99.6744 177.203C99.3124 177.642 98.9502 178.084 98.588 178.529C98.2257 178.974 97.8701 179.41 97.5211 179.836L96.0298 181.653L95.9542 181.023C96.7708 181.048 97.4161 181.182 97.8902 181.425C98.3643 181.668 98.6996 181.992 98.8962 182.397C99.0926 182.809 99.1827 183.274 99.1667 183.793C99.147 184.433 98.9978 184.954 98.7192 185.357C98.4404 185.767 98.0352 186.065 97.5035 186.251C96.9655 186.437 96.3041 186.518 95.5191 186.494C95.095 186.481 94.655 186.467 94.1992 186.453C93.7434 186.439 93.3162 186.426 92.9173 186.414C92.5122 186.401 92.1767 186.391 91.9108 186.382C91.9253 185.914 91.9395 185.455 91.9533 185.006C91.9672 184.556 91.9815 184.094 91.9962 183.619C92.0108 183.144 92.0266 182.635 92.0434 182.09L92.0727 181.141C92.0966 180.369 92.1186 179.656 92.1387 179.004C92.1588 178.352 92.1798 177.675 92.2015 176.972L93.3979 177.009C93.3846 177.44 93.3718 177.854 93.3595 178.253C93.3472 178.652 93.3345 179.06 93.3216 179.478C93.3087 179.896 93.2951 180.336 93.2809 180.798L93.2395 182.137C93.2211 182.732 93.2038 183.292 93.1876 183.818C93.1714 184.343 93.1551 184.872 93.1386 185.403L95.446 185.475C95.8132 185.486 96.1849 185.453 96.5611 185.376C96.9373 185.299 97.2563 185.128 97.5179 184.864C97.7732 184.599 97.9093 184.192 97.9263 183.641C97.94 183.198 97.8652 182.85 97.7019 182.598C97.5386 182.346 97.3257 182.162 97.0632 182.046C96.8004 181.936 96.5238 181.865 96.2334 181.83C95.9367 181.796 95.6712 181.775 95.437 181.768L93.0251 181.693L93.0539 180.763L95.6176 180.842L94.8801 181.332L96.1947 179.7C96.5308 179.28 96.8734 178.856 97.2224 178.43C97.565 178.003 97.9044 177.579 98.2406 177.159L99.6744 177.203Z" fill="black"/>
<path d="M72.9108 173.13C72.4835 173.417 72.1126 173.665 71.798 173.874C71.4752 174.087 71.1752 174.284 70.8982 174.467C70.6129 174.654 70.3059 174.853 69.9772 175.063L67.8307 176.48L67.9656 176.115L68.5597 178.507C68.6525 178.891 68.7429 179.247 68.8308 179.575C68.9106 179.907 68.9944 180.253 69.0825 180.615C69.1705 180.977 69.2716 181.392 69.3859 181.86L68.0703 181.389C67.9382 180.846 67.8251 180.358 67.731 179.926C67.6287 179.497 67.5198 179.041 67.4043 178.559L66.9758 176.703L66.8698 176.661L65.2727 177.724C64.8642 177.998 64.4798 178.254 64.1194 178.493C63.759 178.731 63.3599 178.999 62.922 179.295L61.5975 178.77C62.0201 178.495 62.3823 178.26 62.684 178.066C62.9857 177.873 63.2727 177.69 63.5451 177.519C63.8092 177.351 64.1057 177.162 64.4344 176.952L66.5317 175.607L66.448 175.972L65.7333 173.369C65.5813 172.825 65.4334 172.296 65.2896 171.782C65.1459 171.269 64.9754 170.642 64.7781 169.903L66.1733 170.457C66.3052 170.966 66.4259 171.426 66.5352 171.837C66.6364 172.252 66.7529 172.714 66.8849 173.223L67.4217 175.296L67.5365 175.341L69.2057 174.225C69.6436 173.929 70.0427 173.661 70.4031 173.423C70.7635 173.184 71.1667 172.915 71.6128 172.615L72.9108 173.13Z" fill="black"/>
<path d="M60.3702 167.631C60.006 168.232 59.6549 168.812 59.317 169.37C58.979 169.928 58.6099 170.537 58.2095 171.198L57.7173 172.011C57.4352 172.476 57.171 172.912 56.9249 173.319C56.6788 173.725 56.4393 174.12 56.2063 174.505C55.9734 174.89 55.7355 175.282 55.4927 175.683L54.4573 175.101C54.6935 174.711 54.9265 174.326 55.1562 173.947C55.3859 173.568 55.6221 173.177 55.8649 172.777C56.1045 172.381 56.3637 171.953 56.6426 171.493L58.3899 168.608L58.2924 168.549L54.67 170.22C53.8962 170.581 53.1198 170.94 52.3406 171.297C51.5581 171.66 50.7859 172.018 50.0241 172.371L48.9516 171.721C49.1944 171.32 49.4323 170.928 49.6652 170.543C49.8982 170.158 50.1377 169.763 50.3838 169.357C50.6299 168.95 50.8941 168.514 51.1763 168.048L51.6684 167.236C52.0688 166.575 52.4379 165.966 52.7759 165.408C53.1138 164.85 53.4649 164.27 53.8292 163.669L54.8449 164.284C54.4806 164.885 54.1312 165.462 53.7965 166.015C53.4618 166.567 53.0959 167.171 52.6989 167.827L50.932 170.744L51.0376 170.808L54.6158 169.154C55.4016 168.786 56.1857 168.421 56.9682 168.058C57.7474 167.701 58.5239 167.342 59.2977 166.981L60.3702 167.631Z" fill="black"/>
<path d="M49.1598 160.383C48.6344 160.838 48.1243 161.286 47.6295 161.727C47.1301 162.163 46.6327 162.596 46.1376 163.028L45.1563 163.895C44.6351 164.345 44.1142 164.8 43.5934 165.26C43.068 165.715 42.547 166.17 42.0305 166.625L41.0537 165.736C41.2823 165.071 41.5128 164.399 41.7452 163.72C41.9734 163.045 42.1998 162.382 42.4245 161.731L43.7538 157.841L43.6554 157.752L39.9158 159.448C39.2707 159.743 38.6277 160.036 37.9869 160.326C37.3414 160.612 36.6982 160.901 36.0573 161.191L35.0876 160.309C35.4831 159.761 35.8914 159.199 36.3126 158.623C36.7247 158.048 37.1307 157.484 37.5305 156.932L38.2945 155.88C38.6692 155.365 39.0543 154.833 39.4498 154.285C39.8454 153.738 40.243 153.188 40.6428 152.635L41.5142 153.428C41.0637 154.045 40.6112 154.67 40.1569 155.301C39.6978 155.928 39.2428 156.546 38.7919 157.154L37.0618 159.536L37.1532 159.619L40.2198 158.197C40.9437 157.862 41.6677 157.527 42.3916 157.193C43.1113 156.863 43.8307 156.528 44.55 156.189L45.2176 156.797C44.9527 157.549 44.69 158.299 44.4295 159.047C44.1689 159.794 43.9105 160.539 43.6542 161.282L42.5361 164.516L42.6274 164.599L44.8161 162.673C45.4017 162.161 45.9872 161.65 46.5727 161.138C47.1493 160.626 47.7259 160.115 48.3025 159.603L49.1598 160.383Z" fill="black"/>
<path d="M36.9539 148.268C36.3899 148.688 35.8463 149.092 35.323 149.482C34.7997 149.871 34.2282 150.297 33.6084 150.758L32.8463 151.325C32.4094 151.65 32.0004 151.955 31.6193 152.238C31.2383 152.522 30.8674 152.798 30.5067 153.067C30.146 153.335 29.7776 153.609 29.4017 153.889L28.6622 152.959C29.028 152.687 29.3887 152.418 29.7443 152.154C30.1 151.889 30.4658 151.617 30.8417 151.337C31.2126 151.061 31.614 150.762 32.0458 150.441L34.7512 148.427L34.6831 148.336L30.6981 148.519C29.8455 148.561 28.991 148.601 28.1346 148.638C27.2731 148.68 26.423 148.72 25.5843 148.76L24.8356 147.754C25.2115 147.474 25.5799 147.2 25.9406 146.932C26.3013 146.663 26.6722 146.387 27.0532 146.104C27.4343 145.82 27.8433 145.516 28.2802 145.19L29.0423 144.623C29.6621 144.162 30.2336 143.736 30.7569 143.347C31.2802 142.957 31.8238 142.553 32.3878 142.133L33.0968 143.086C32.5329 143.505 31.9918 143.908 31.4736 144.294C30.9554 144.68 30.3889 145.101 29.7741 145.559L27.0383 147.595L27.112 147.694L31.0495 147.511C31.9161 147.466 32.7801 147.423 33.6416 147.382C34.498 147.344 35.3525 147.304 36.2052 147.262L36.9539 148.268Z" fill="black"/>
<path d="M29.661 137.791C29.1018 137.686 28.5399 137.584 27.9751 137.482C27.4103 137.381 26.8569 137.28 26.3148 137.181L24.0031 136.756L24.5174 136.385C24.8907 137.112 25.0859 137.741 25.103 138.274C25.1202 138.806 24.999 139.256 24.7396 139.625C24.4745 139.996 24.111 140.3 23.6491 140.537C23.0801 140.829 22.5517 140.951 22.064 140.903C21.5707 140.857 21.1137 140.647 20.6933 140.272C20.2699 139.891 19.8789 139.352 19.52 138.653C19.3261 138.276 19.125 137.884 18.9167 137.478C18.7083 137.073 18.513 136.693 18.3307 136.338C18.1455 135.977 17.9921 135.679 17.8706 135.442C18.2875 135.228 18.6959 135.018 19.0959 134.813C19.4959 134.607 19.9071 134.396 20.3296 134.179C20.7522 133.962 21.2057 133.729 21.6902 133.48L22.5352 133.046C23.2225 132.693 23.8563 132.367 24.4365 132.069C25.0168 131.771 25.6196 131.462 26.2449 131.14L26.7918 132.205C26.4087 132.402 26.0397 132.591 25.6848 132.774C25.3299 132.956 24.9665 133.143 24.5947 133.334C24.2229 133.525 23.8314 133.726 23.4201 133.937L22.2286 134.549C21.6991 134.821 21.2005 135.077 20.7329 135.317C20.2653 135.558 19.7949 135.799 19.3217 136.042L20.3765 138.096C20.5443 138.422 20.753 138.732 21.0026 139.024C21.2522 139.315 21.556 139.512 21.914 139.613C22.2691 139.708 22.6917 139.63 23.1819 139.378C23.5762 139.176 23.8442 138.942 23.9858 138.677C24.1273 138.412 24.1852 138.136 24.1595 137.851C24.1281 137.568 24.0571 137.291 23.9465 137.02C23.833 136.744 23.7228 136.501 23.6157 136.293L22.5132 134.147L23.3413 133.721L24.5133 136.003L23.7271 135.595L25.7916 135.955C26.3223 136.045 26.8587 136.14 27.4008 136.239C27.94 136.332 28.4749 136.424 29.0056 136.515L29.661 137.791Z" fill="black"/>
<path d="M17.9678 117.26C18.0751 117.709 18.0684 118.118 17.9477 118.485C17.827 118.853 17.6209 119.162 17.3294 119.414C17.0379 119.666 16.6889 119.84 16.2823 119.937C15.8757 120.034 15.4917 120.035 15.1302 119.939C14.7625 119.844 14.445 119.66 14.1776 119.385C13.9087 119.104 13.7199 118.736 13.6111 118.28C13.5038 117.83 13.5074 117.422 13.6219 117.056C13.735 116.684 13.9342 116.373 14.2195 116.123C14.4972 115.867 14.8394 115.691 15.246 115.594C15.6525 115.497 16.0435 115.498 16.4188 115.598C16.7926 115.691 17.117 115.877 17.3921 116.157C17.6671 116.436 17.859 116.804 17.9678 117.26Z" fill="#0559BB"/>
<path d="M19.1356 96.1831C19.1165 97.0062 19.0994 97.747 19.0841 98.4055C19.0689 99.064 19.0544 99.6877 19.0408 100.277C18.281 100.259 17.5497 100.242 16.8469 100.226C16.144 100.209 15.3779 100.192 14.5485 100.172L10.0182 100.068C9.461 100.055 8.93547 100.042 8.44161 100.031C7.94141 100.019 7.45387 100.008 6.979 99.9971C6.49779 99.986 6.00393 99.9746 5.4974 99.9628L5.68989 91.6526L6.89607 91.6805C6.88052 92.3516 6.86387 93.0703 6.84613 93.8364C6.82838 94.6025 6.80748 95.5048 6.78343 96.5432L6.71677 99.4209L5.70843 98.6469C6.46822 98.6645 7.20269 98.6815 7.91184 98.6979C8.61465 98.7142 9.39027 98.7321 10.2387 98.7518L14.3796 98.8477C15.0254 98.8627 15.6333 98.8767 16.2031 98.8899C16.7666 98.903 17.3428 98.9163 17.9316 98.93L17.9915 96.3467C18.01 95.5489 17.9403 94.8631 17.7826 94.2893C17.6248 93.7155 17.3342 93.2716 16.9107 92.9577C16.4808 92.6437 15.8765 92.4777 15.0977 92.4596C14.4709 92.4451 13.9807 92.5478 13.6272 92.7677C13.2675 92.9811 13.0045 93.2569 12.8383 93.5951C12.6659 93.9269 12.5566 94.2728 12.5102 94.6328C12.4639 94.9928 12.4375 95.3121 12.431 95.5907L12.3525 98.9813L11.2318 98.9553C11.241 98.5565 11.2524 98.0658 11.2659 97.4832C11.2795 96.8944 11.295 96.2264 11.3123 95.4793C11.3357 94.4662 11.4912 93.6336 11.7787 92.9814C12.0599 92.3291 12.4829 91.8479 13.0475 91.5379C13.6122 91.2279 14.3282 91.0829 15.1957 91.103C15.9808 91.1212 16.6769 91.2894 17.284 91.6075C17.885 91.9192 18.3511 92.4431 18.6825 93.1793C19.014 93.9092 19.1651 94.9105 19.1356 96.1831Z" fill="black"/>
<path d="M21.0779 81.353C20.8631 82.4339 20.4773 83.2871 19.9204 83.9125C19.3586 84.5306 18.6766 84.9407 17.8744 85.143C17.0736 85.339 16.2041 85.3438 15.2661 85.1575C14.3405 84.9736 13.5545 84.6399 12.908 84.1563C12.2565 83.6653 11.7912 83.0659 11.5121 82.3583C11.228 81.6432 11.1717 80.854 11.3432 79.9905C11.4938 79.2327 11.7793 78.6082 12.1997 78.117C12.6152 77.6184 13.1445 77.278 13.7877 77.0958C14.4308 76.9137 15.1717 76.9059 16.0103 77.0725C16.2339 77.1169 16.4377 77.1639 16.6216 77.2133C16.8005 77.2553 16.977 77.3097 17.1509 77.3766L16.3249 78.3167C16.228 78.2845 16.1329 78.2591 16.0398 78.2406C15.9478 78.2159 15.8584 78.1949 15.7714 78.1776C14.8023 77.9851 14.0317 78.0774 13.4596 78.4545C12.8813 78.8303 12.5156 79.4034 12.3626 80.1737C12.2367 80.8073 12.284 81.3817 12.5045 81.8968C12.7263 82.4058 13.0864 82.8357 13.5849 83.1866C14.0847 83.5313 14.6855 83.7733 15.3875 83.9128L15.5459 83.9442C16.3162 84.0973 17.0068 84.0989 17.6177 83.949C18.2298 83.793 18.7411 83.4781 19.1517 83.0043C19.5634 82.5244 19.8514 81.8713 20.0155 81.0451C20.076 80.7407 20.1134 80.4221 20.1279 80.0892C20.1424 79.7563 20.1314 79.4216 20.095 79.085C20.0585 78.7485 19.9885 78.4182 19.885 78.0941L21.0254 78.2529C21.109 78.5149 21.1696 78.811 21.2073 79.1413C21.2388 79.4705 21.243 79.8232 21.2198 80.1996C21.2029 80.5772 21.1556 80.9617 21.0779 81.353ZM15.6978 84.6911L14.7939 84.5116L16.058 77.9537L16.4614 77.2396L17.1509 77.3766L15.6978 84.6911Z" fill="black"/>
<path d="M24.2425 70.5666C24.1001 70.9461 23.9448 71.297 23.7764 71.6194C23.6081 71.9418 23.435 72.232 23.257 72.4899C23.0791 72.7479 22.9044 72.9698 22.7332 73.1559C22.5619 73.3419 22.407 73.4934 22.2683 73.6105L21.251 73.0766C21.5009 72.8795 21.7433 72.639 21.9784 72.3551C22.2156 72.0654 22.4381 71.743 22.6457 71.3879C22.8533 71.0329 23.0305 70.6597 23.1774 70.2684C23.4132 69.6398 23.5227 69.1228 23.5057 68.7173C23.491 68.3059 23.3928 67.9816 23.2112 67.7444C23.0297 67.5071 22.7966 67.3351 22.512 67.2283C22.174 67.1015 21.8504 67.0985 21.5413 67.2192C21.2344 67.3341 20.9538 67.5501 20.6994 67.8673C20.4414 68.1764 20.2279 68.5562 20.0588 69.0069C19.9253 69.3626 19.8085 69.674 19.7083 69.9408C19.6082 70.2076 19.5081 70.4745 19.408 70.7413L18.5096 70.4042C18.5964 70.173 18.6854 69.9358 18.7766 69.6927C18.8679 69.4495 18.9747 69.1649 19.097 68.8388C19.3929 68.0501 19.4535 67.4201 19.2786 66.9486C19.106 66.4712 18.7855 66.1446 18.317 65.9688C17.985 65.8442 17.6785 65.8409 17.3975 65.9587C17.1128 66.0683 16.8567 66.2732 16.6291 66.5734C16.4037 66.8676 16.2064 67.2401 16.0373 67.6907C15.9239 67.9931 15.836 68.3085 15.7736 68.6369C15.7076 68.9571 15.6679 69.2973 15.6544 69.6576C15.6433 70.0119 15.6639 70.3985 15.7165 70.8173L14.6058 70.5324C14.5762 70.2507 14.5692 69.9268 14.5848 69.5606C14.5945 69.1922 14.6402 68.8001 14.7218 68.3843C14.7975 67.9662 14.9132 67.5497 15.069 67.1346C15.3382 66.4171 15.6608 65.8549 16.0367 65.448C16.4066 65.0389 16.8092 64.7773 17.2443 64.6633C17.6758 64.541 18.1138 64.5634 18.5586 64.7302C19.1575 64.955 19.5699 65.289 19.7959 65.7323C20.016 66.1734 20.1137 66.6159 20.0892 67.06L20.2137 67.1067C20.3709 66.868 20.5848 66.6405 20.8554 66.4241C21.126 66.2077 21.4463 66.0573 21.8162 65.9729C22.1801 65.8862 22.5845 65.9263 23.0292 66.0932C23.4621 66.2556 23.8341 66.517 24.1454 66.8773C24.4507 67.2354 24.6293 67.715 24.681 68.3162C24.7269 68.9151 24.5807 69.6653 24.2425 70.5666Z" fill="black"/>
<path d="M30.0271 58.42C29.6461 59.0704 29.1937 59.5797 28.6696 59.948C28.1433 60.3076 27.5799 60.5427 26.9793 60.6533C26.3787 60.7639 25.7687 60.7589 25.1494 60.6384C24.5278 60.5091 23.9356 60.2796 23.3727 59.9499C22.5639 59.4761 21.9413 58.8912 21.505 58.1952C21.0663 57.4905 20.8427 56.732 20.8342 55.9196C20.8288 55.1017 21.0647 54.2857 21.5416 53.4714C21.9098 52.843 22.3445 52.3453 22.8457 51.9783C23.3415 51.6081 23.8814 51.3629 24.4656 51.2427C25.0476 51.1138 25.6439 51.1108 26.2546 51.2337C26.8684 51.351 27.4732 51.5842 28.0688 51.9331C28.8722 52.4037 29.5045 52.9907 29.966 53.694C30.4219 54.3942 30.6651 55.1569 30.6955 55.9821C30.7237 56.7986 30.5009 57.6113 30.0271 58.42ZM29.0714 57.8712C29.4523 57.2209 29.6092 56.5898 29.5419 55.9779C29.4724 55.3573 29.2487 54.7932 28.8708 54.2856C28.4874 53.7747 28.0088 53.3513 27.435 53.0151C26.7902 52.6374 26.1557 52.4236 25.5317 52.3736C24.9077 52.3237 24.3338 52.4389 23.8099 52.7192C23.2838 52.9909 22.8462 53.4246 22.4973 54.0202C22.1228 54.6596 21.9507 55.2854 21.981 55.8977C22.0091 56.5014 22.2034 57.0593 22.564 57.5715C22.9246 58.0836 23.4054 58.5158 24.0065 58.8679C24.5803 59.204 25.1854 59.4116 25.8216 59.4908C26.4524 59.5667 27.0571 59.4805 27.6356 59.2322C28.2087 58.9807 28.6873 58.527 29.0714 57.8712Z" fill="black"/>
<path d="M35.8456 49.346C35.3137 48.8863 34.801 48.4432 34.3074 48.0166C33.8138 47.5901 33.2748 47.1242 32.6902 46.619L31.9714 45.9978C31.5593 45.6416 31.1736 45.3082 30.8142 44.9977C30.4548 44.6871 30.105 44.3847 29.7648 44.0907C29.4246 43.7967 29.0772 43.4964 28.7226 43.19L33.661 37.4758C34.0156 37.7823 34.363 38.0825 34.7033 38.3765C35.0435 38.6706 35.3933 38.9729 35.7526 39.2835C36.112 39.5941 36.4978 39.9274 36.9099 40.2836L37.6286 40.9048C38.2132 41.41 38.7523 41.8759 39.2459 42.3024C39.7394 42.729 40.2521 43.1721 40.784 43.6318L39.9889 44.5518C39.457 44.0921 38.9443 43.649 38.4507 43.2225C37.9572 42.7959 37.4181 42.33 36.8335 41.8248L36.1147 41.2036C35.7122 40.8557 35.3433 40.5369 35.0078 40.247C34.6676 39.9529 34.337 39.6672 34.0159 39.3897C33.6949 39.1123 33.3619 38.8244 33.0169 38.5263L34.0221 38.6417L29.9285 43.3783L29.6687 42.4004C30.0137 42.6986 30.3467 42.9864 30.6677 43.2639C30.9888 43.5413 31.3194 43.8271 31.6596 44.1211C31.9951 44.411 32.364 44.7299 32.7665 45.0777L33.4853 45.6989C34.0699 46.2042 34.609 46.6701 35.1025 47.0966C35.5961 47.5232 36.1088 47.9663 36.6407 48.426L35.8456 49.346Z" fill="black"/>
<path d="M46.8466 38.2474C46.4037 38.6163 45.9504 38.8538 45.4865 38.9599C45.0186 39.0611 44.567 39.0335 44.1315 38.8769C43.6921 38.7154 43.296 38.423 42.9434 37.9996C42.6191 37.6103 42.4181 37.2255 42.3403 36.8451C42.2626 36.4648 42.2691 36.0967 42.36 35.7407C42.4517 35.3758 42.5953 35.0337 42.7908 34.7142C42.9823 34.3899 43.1916 34.0919 43.4187 33.8203L45.4189 31.4124C44.9763 30.8414 44.5592 30.4841 44.1675 30.3405C43.7767 30.188 43.4041 30.181 43.0497 30.3196C42.6913 30.4533 42.3441 30.66 42.0084 30.9397C41.8429 31.0775 41.6754 31.2376 41.5059 31.42C41.3323 31.5976 41.1612 31.7978 40.9925 32.0208C40.8238 32.2438 40.6526 32.4935 40.479 32.77C40.3103 33.0424 40.1411 33.344 39.9716 33.6748L39.1714 32.8329C39.2858 32.614 39.4217 32.3813 39.579 32.1348C39.7413 31.8843 39.9218 31.6309 40.1205 31.3747C40.3192 31.1185 40.533 30.8704 40.7617 30.6305C40.9912 30.3816 41.2277 30.1558 41.471 29.9531C41.9917 29.5194 42.5103 29.2316 43.0269 29.0899C43.5443 28.9391 44.0547 28.9632 44.5582 29.162C45.0666 29.3567 45.56 29.7412 46.0383 30.3154C46.2288 30.5441 46.4679 30.8312 46.7557 31.1767C47.0435 31.5222 47.3192 31.8532 47.5826 32.1695L48.4034 33.1549C48.671 33.4761 48.9466 33.807 49.2303 34.1476C49.51 34.4834 49.8161 34.8508 50.1484 35.2498L49.2871 35.9673L48.3568 34.9247L48.24 35.022C48.2594 35.352 48.2265 35.7132 48.1413 36.1057C48.0568 36.4892 47.9075 36.8691 47.6934 37.2453C47.4841 37.6175 47.2018 37.9515 46.8466 38.2474ZM46.3992 37.2353C46.6766 37.0043 46.9118 36.7177 47.1049 36.3755C47.2939 36.0285 47.4148 35.6393 47.4676 35.2079C47.5253 34.7724 47.4934 34.3086 47.3718 33.8164L45.9077 32.0438C45.8615 32.1565 45.7905 32.2939 45.6948 32.4561C45.595 32.6134 45.4352 32.8372 45.2154 33.1274C44.9915 33.4128 44.6723 33.8064 44.2579 34.3083C43.9959 34.6172 43.7894 34.9334 43.6385 35.2569C43.4925 35.5763 43.4316 35.8991 43.4559 36.2251C43.4761 36.5462 43.6138 36.86 43.8692 37.1666C44.2583 37.6338 44.6726 37.8492 45.1122 37.8128C45.5565 37.7723 45.9856 37.5798 46.3992 37.2353Z" fill="black"/>
<path d="M58.9102 29.7162C58.0432 30.2284 57.1975 30.4778 56.3732 30.4646C55.5488 30.4514 54.7901 30.2192 54.0969 29.768C53.4038 29.3169 52.8237 28.6959 52.3566 27.9053C51.8831 27.1037 51.6105 26.2937 51.539 25.4753C51.4729 24.6537 51.6221 23.8852 51.9865 23.1697C52.3509 22.4542 52.9476 21.8517 53.7764 21.362C54.0927 21.1752 54.4196 21.0188 54.7572 20.893C55.0948 20.7671 55.4261 20.6743 55.7513 20.6147C56.0787 20.5463 56.3842 20.5093 56.6677 20.5036L57.1427 21.5691C56.7397 21.5718 56.3745 21.6073 56.0471 21.6757C55.7165 21.7386 55.4215 21.8246 55.1623 21.9336C54.8998 22.0372 54.6677 22.1485 54.4659 22.2677C53.5716 22.796 53.0269 23.5113 52.8318 24.4137C52.6388 25.3074 52.8355 26.2505 53.4218 27.2429C53.789 27.8645 54.2364 28.3542 54.764 28.7119C55.2916 29.0696 55.8726 29.2561 56.5068 29.2713C57.1465 29.2832 57.8153 29.0831 58.5133 28.6707C58.7532 28.529 58.9802 28.3655 59.1944 28.1801C59.414 27.9915 59.6153 27.7843 59.7982 27.5586C59.9779 27.3274 60.1366 27.0792 60.2742 26.814L60.9912 27.7476C60.8715 27.9434 60.7147 28.1574 60.5208 28.3896C60.3292 28.6131 60.098 28.838 59.827 29.0642C59.5648 29.2927 59.2592 29.51 58.9102 29.7162Z" fill="black"/>
<path d="M66.2035 25.7228C65.9516 25.0665 65.7088 24.4339 65.475 23.8248C65.2413 23.2158 64.986 22.5506 64.7091 21.8293L64.3687 20.9424C64.1736 20.4339 63.9909 19.9579 63.8207 19.5144C63.6505 19.071 63.4848 18.6393 63.3237 18.2195C63.1625 17.7997 62.998 17.371 62.8301 16.9335L63.9395 16.4568C64.1074 16.8944 64.2731 17.326 64.4364 17.7517C64.5998 18.1774 64.7678 18.615 64.9402 19.0644C65.1104 19.5078 65.2954 19.9897 65.4951 20.51L65.8355 21.397C66.1124 22.1183 66.3677 22.7835 66.6014 23.3925C66.8352 24.0015 67.078 24.6342 67.3299 25.2905L66.2035 25.7228ZM65.3471 21.503L64.9794 20.5451L70.7799 18.3189L71.1475 19.2768L65.3471 21.503ZM72.137 23.4455C71.8851 22.7892 71.6423 22.1566 71.4085 21.5475C71.1748 20.9385 70.9195 20.2733 70.6426 19.552L70.3022 18.665C70.107 18.1565 69.9244 17.6806 69.7542 17.2371C69.5839 16.7936 69.4183 16.362 69.2572 15.9422C69.096 15.5224 68.9315 15.0937 68.7636 14.6562L69.8988 14.2205C70.0668 14.658 70.2313 15.0867 70.3924 15.5065C70.5535 15.9263 70.7192 16.3579 70.8894 16.8014C71.0596 17.2448 71.2423 17.7208 71.4375 18.2293L71.7779 19.1162C72.0547 19.8376 72.31 20.5028 72.5438 21.1118C72.7775 21.7208 73.0203 22.3535 73.2722 23.0098L72.137 23.4455Z" fill="black"/>
<path d="M81.235 21.1097C80.6702 21.2242 80.1584 21.218 79.6998 21.0913C79.2399 20.9583 78.8555 20.7196 78.5466 20.375C78.2364 20.0243 78.0266 19.579 77.9172 19.0389C77.8165 18.5424 77.8223 18.1082 77.9343 17.7366C78.0464 17.3649 78.227 17.044 78.4759 16.7738C78.7299 16.4962 79.0187 16.2632 79.3424 16.0748C79.6648 15.8803 79.9904 15.7173 80.3193 15.5861L83.2227 14.4161C83.1042 13.7035 82.9066 13.191 82.6301 12.8787C82.3585 12.5589 82.0339 12.3759 81.6562 12.3297C81.2772 12.2773 80.8736 12.2944 80.4453 12.3812C80.2342 12.424 80.0108 12.4854 79.775 12.5655C79.538 12.6394 79.2923 12.7344 79.0379 12.8506C78.7836 12.9667 78.5144 13.1053 78.2304 13.2662C77.9526 13.4259 77.6606 13.6111 77.3543 13.8218L77.0496 12.701C77.2542 12.5626 77.4843 12.4223 77.7398 12.28C78.0015 12.1365 78.2806 11.9992 78.5771 11.868C78.8737 11.7368 79.1795 11.6199 79.4948 11.5173C79.8149 11.4072 80.1302 11.3207 80.4406 11.2578C81.1047 11.1232 81.6978 11.1161 82.2198 11.2365C82.7467 11.3494 83.1846 11.6129 83.5334 12.0268C83.8884 12.4395 84.1402 13.0121 84.2886 13.7446C84.3477 14.0363 84.4219 14.4025 84.5112 14.8432C84.6005 15.2839 84.6861 15.706 84.7678 16.1095L85.0225 17.3665C85.1056 17.7761 85.1911 18.1982 85.2791 18.6327C85.3659 19.061 85.4609 19.5297 85.564 20.0386L84.4654 20.2613L84.1415 18.902L83.9925 18.9322C83.8529 19.2319 83.6524 19.5342 83.3911 19.8392C83.1348 20.1367 82.8231 20.4002 82.456 20.6297C82.0951 20.8579 81.6881 21.0179 81.235 21.1097ZM81.3217 20.0066C81.6755 19.9349 82.0185 19.7943 82.3509 19.5847C82.682 19.369 82.9731 19.0839 83.2244 18.7292C83.4818 18.3733 83.6739 17.9499 83.8006 17.459L83.3533 15.2039C83.2591 15.2811 83.1314 15.3684 82.9702 15.4657C82.8077 15.5568 82.5608 15.6779 82.2296 15.829C81.8971 15.974 81.4293 16.1689 80.8263 16.4139C80.449 16.5614 80.1173 16.7417 79.8309 16.9548C79.5507 17.1667 79.3439 17.4219 79.2105 17.7203C79.0759 18.0125 79.0482 18.3542 79.1274 18.7452C79.2482 19.3411 79.5106 19.7273 79.9147 19.9039C80.3251 20.0793 80.794 20.1135 81.3217 20.0066Z" fill="black"/>
<path d="M90.8008 19.3391C91.1315 18.8763 91.4621 18.4104 91.7926 17.9413C92.1231 17.4722 92.4476 17.0128 92.7661 16.5632L94.1277 14.6472L94.2469 15.2701C93.4305 15.3016 92.7774 15.2127 92.2876 15.0035C91.7978 14.7942 91.4408 14.4943 91.2166 14.1036C90.9921 13.7067 90.8699 13.2487 90.8498 12.7297C90.8251 12.0906 90.9378 11.5601 91.1877 11.1385C91.4373 10.7106 91.8209 10.3852 92.3384 10.1624C92.8621 9.93936 93.5164 9.81269 94.3012 9.78239C94.7252 9.76601 95.165 9.74903 95.6207 9.73144C96.0763 9.71384 96.5035 9.69735 96.9022 9.68195C97.3073 9.66631 97.6427 9.65336 97.9085 9.6431C97.9266 10.1114 97.9443 10.5702 97.9616 11.0196C97.979 11.4689 97.9968 11.9309 98.0151 12.4055C98.0335 12.8802 98.0531 13.3896 98.0742 13.9339L98.1108 14.8832C98.1406 15.6553 98.1681 16.3673 98.1933 17.0191C98.2185 17.671 98.2446 18.3481 98.2717 19.0506L97.0756 19.0968C97.059 18.6664 97.043 18.2519 97.0276 17.8532C97.0122 17.4545 96.9964 17.0463 96.9803 16.6286C96.9642 16.2109 96.9472 15.7711 96.9294 15.3091L96.8777 13.9706C96.8547 13.3757 96.8331 12.8156 96.8128 12.2903C96.7925 11.7651 96.7721 11.2366 96.7516 10.705L94.4448 10.7941C94.0777 10.8083 93.7092 10.8669 93.3393 10.9699C92.9693 11.0729 92.663 11.2654 92.4204 11.5473C92.1841 11.8289 92.0765 12.2451 92.0978 12.7956C92.1149 13.2386 92.2136 13.5803 92.394 13.8205C92.5745 14.0607 92.7996 14.2295 93.0696 14.3268C93.3393 14.4178 93.6202 14.4703 93.9123 14.4844C94.2107 14.4982 94.477 14.5006 94.7112 14.4916L97.1224 14.3985L97.1583 15.3288L94.5952 15.4277L95.2969 14.8873L94.0988 16.6068C93.7927 17.0496 93.4803 17.4958 93.1618 17.9454C92.8495 18.3948 92.5404 18.8409 92.2342 19.2837L90.8008 19.3391Z" fill="black"/>
<path d="M117.959 21.4988C118.366 21.1836 118.72 20.9111 119.019 20.6812C119.327 20.4473 119.613 20.2296 119.877 20.0282C120.149 19.8228 120.442 19.604 120.756 19.372L122.801 17.8128L122.691 18.1867L121.937 15.8401C121.818 15.4629 121.704 15.1137 121.594 14.7926C121.492 14.4673 121.385 14.127 121.273 13.7718C121.16 13.4166 121.032 13.0095 120.886 12.5506L122.23 12.9314C122.399 13.4642 122.545 13.9432 122.668 14.3684C122.799 14.7895 122.938 15.2365 123.086 15.7094L123.639 17.5326L123.748 17.5674L125.269 16.3989C125.658 16.0979 126.025 15.8162 126.368 15.5538C126.711 15.2915 127.092 14.9976 127.508 14.6722L128.865 15.107C128.462 15.4102 128.117 15.6686 127.829 15.8822C127.541 16.0959 127.267 16.2974 127.007 16.4867C126.755 16.672 126.472 16.8806 126.158 17.1126L124.156 18.5961L124.215 18.2259L125.104 20.7752C125.293 21.3078 125.476 21.8254 125.654 22.328C125.832 22.8307 126.045 23.4441 126.292 24.1683L124.862 23.7103C124.696 23.2115 124.545 22.7606 124.408 22.3577C124.279 21.9506 124.131 21.4976 123.965 20.9989L123.289 18.9668L123.172 18.9291L121.582 20.1555C121.165 20.4808 120.785 20.7747 120.442 21.0371C120.098 21.2995 119.714 21.5954 119.289 21.9249L117.959 21.4988Z" fill="black"/>
<path d="M130.95 26.1379C131.273 25.5138 131.585 24.9121 131.885 24.333C132.186 23.7538 132.513 23.1213 132.869 22.4353L133.306 21.5918C133.557 21.1083 133.792 20.6556 134.01 20.2339C134.229 19.8122 134.441 19.4017 134.648 19.0025C134.855 18.6033 135.067 18.1956 135.282 17.7796L136.354 18.2923C136.144 18.6972 135.937 19.0964 135.733 19.49C135.529 19.8836 135.319 20.2884 135.104 20.7045C134.891 21.115 134.661 21.5592 134.413 22.0371L132.861 25.0313L132.962 25.0837L136.466 23.176C137.214 22.7649 137.965 22.3551 138.719 21.9469C139.475 21.533 140.222 21.1247 140.959 20.7218L142.072 21.2989C141.856 21.715 141.645 22.1227 141.438 22.5219C141.231 22.9211 141.018 23.3316 140.8 23.7533C140.581 24.175 140.346 24.6276 140.096 25.1112L139.659 25.9546C139.303 26.6406 138.975 27.2732 138.675 27.8523C138.375 28.4315 138.063 29.0331 137.739 29.6573L136.685 29.1108C137.009 28.4867 137.319 27.8878 137.616 27.3143C137.914 26.7408 138.239 26.1138 138.591 25.4335L140.161 22.4056L140.051 22.3487L136.59 24.2358C135.831 24.6553 135.073 25.072 134.316 25.4859C133.562 25.8941 132.811 26.3038 132.063 26.715L130.95 26.1379Z" fill="black"/>
<path d="M142.387 32.4089C142.88 31.9184 143.358 31.4365 143.821 30.963C144.289 30.4934 144.756 30.0264 145.22 29.5618L146.139 28.6293C146.628 28.1438 147.116 27.6538 147.604 27.1595C148.096 26.669 148.585 26.1791 149.069 25.6897L150.104 26.5087C149.922 27.1882 149.739 27.8747 149.554 28.5682C149.373 29.2567 149.193 29.9337 149.014 30.5995L147.956 34.5714L148.06 34.6539L151.674 32.7029C152.297 32.364 152.918 32.0277 153.538 31.6938C154.162 31.3638 154.784 31.0318 155.403 30.6979L156.431 31.511C156.074 32.0848 155.706 32.6734 155.326 33.277C154.954 33.8795 154.588 34.4701 154.227 35.0488L153.538 36.1507C153.2 36.6907 152.852 37.2476 152.496 37.8214C152.139 38.3951 151.78 38.9713 151.419 39.5501L150.495 38.8194C150.902 38.1722 151.31 37.518 151.72 36.857C152.135 36.1998 152.546 35.552 152.954 34.9137L154.515 32.4181L154.418 32.3415L151.457 33.9727C150.758 34.3565 150.059 34.7403 149.36 35.1242C148.665 35.503 147.97 35.8863 147.276 36.2741L146.568 35.7143C146.78 34.9456 146.991 34.1793 147.199 33.4155C147.407 32.6517 147.613 31.8904 147.818 31.1315L148.71 27.8282L148.613 27.7516L146.563 29.8242C146.014 30.3753 145.465 30.9264 144.916 31.4775C144.376 32.0276 143.836 32.5776 143.297 33.1277L142.387 32.4089Z" fill="black"/>
<path d="M155.506 43.6857C156.039 43.2279 156.554 42.7867 157.049 42.3619C157.544 41.9372 158.085 41.4733 158.671 40.9702L159.392 40.3516C159.806 39.9969 160.192 39.665 160.553 39.3557C160.913 39.0464 161.264 38.7454 161.606 38.4526C161.947 38.1598 162.295 37.8608 162.651 37.5556L163.453 38.4322C163.107 38.7291 162.766 39.0219 162.429 39.3105C162.093 39.5992 161.747 39.8961 161.391 40.2013C161.04 40.5023 160.66 40.8281 160.252 41.1786L157.692 43.3746L157.766 43.4611L161.729 43.0029C162.577 42.9015 163.427 42.8025 164.278 42.706C165.135 42.6053 165.98 42.506 166.814 42.4081L167.631 43.3599C167.275 43.665 166.926 43.964 166.585 44.2568C166.244 44.5496 165.893 44.8506 165.532 45.1599C165.172 45.4692 164.785 45.8012 164.372 46.1558L163.651 46.7744C163.064 47.2775 162.523 47.7414 162.028 48.1662C161.533 48.5909 161.019 49.0322 160.485 49.4899L159.712 48.5886C160.246 48.1309 160.758 47.6917 161.248 47.2711C161.738 46.8504 162.274 46.3906 162.856 45.8917L165.444 43.671L165.364 43.5773L161.448 44.0324C160.587 44.1372 159.728 44.2399 158.871 44.3406C158.02 44.4371 157.17 44.5361 156.322 44.6374L155.506 43.6857Z" fill="black"/>
<path d="M163.715 53.8886C164.28 53.9557 164.848 54.0211 165.418 54.0849C165.988 54.1487 166.547 54.2119 167.095 54.2746L169.429 54.5455L168.941 54.9498C168.52 54.2494 168.284 53.6342 168.231 53.1042C168.179 52.5742 168.27 52.1169 168.504 51.7323C168.744 51.3444 169.087 51.0167 169.532 50.7493C170.08 50.4199 170.599 50.2632 171.089 50.2793C171.584 50.292 172.054 50.4715 172.499 50.8178C172.946 51.1695 173.372 51.6819 173.777 52.3551C173.995 52.7189 174.222 53.0962 174.457 53.4871C174.691 53.878 174.912 54.2445 175.117 54.5865C175.326 54.9339 175.499 55.2217 175.636 55.4497C175.234 55.691 174.84 55.9275 174.455 56.159C174.069 56.3906 173.673 56.6287 173.266 56.8733C172.859 57.1179 172.422 57.3804 171.955 57.6609L171.14 58.1501C170.478 58.548 169.867 58.9149 169.308 59.2508C168.749 59.5867 168.168 59.9357 167.565 60.2977L166.949 59.2716C167.318 59.0498 167.674 58.8362 168.016 58.6307C168.358 58.4252 168.708 58.2149 169.066 57.9996C169.425 57.7844 169.802 57.5577 170.198 57.3197L171.346 56.6299C171.857 56.3233 172.337 56.0347 172.788 55.764C173.239 55.4933 173.692 55.221 174.148 54.9471L172.959 52.9682C172.77 52.6533 172.541 52.3585 172.273 52.0838C172.004 51.8092 171.688 51.6334 171.324 51.5565C170.964 51.485 170.547 51.5911 170.075 51.8748C169.695 52.1031 169.443 52.3541 169.319 52.6279C169.196 52.9017 169.156 53.1803 169.201 53.4638C169.251 53.744 169.34 54.0155 169.468 54.2783C169.6 54.5465 169.726 54.781 169.847 54.9819L171.089 57.0504L170.291 57.5298L168.97 55.331L169.782 55.6858L167.698 55.4636C167.163 55.4085 166.621 55.3496 166.074 55.2869C165.529 55.2296 164.99 55.1734 164.454 55.1183L163.715 53.8886Z" fill="black"/>
<path d="M178.712 80.9973C178.617 80.5449 178.634 80.1367 178.765 79.7727C178.895 79.4086 179.109 79.1046 179.407 78.8606C179.706 78.6166 180.059 78.4515 180.468 78.3654C180.877 78.2792 181.261 78.289 181.62 78.3947C181.985 78.499 182.297 78.6921 182.557 78.9739C182.819 79.2619 182.998 79.6352 183.094 80.0938C183.189 80.5462 183.175 80.9538 183.051 81.3165C182.928 81.6854 182.72 81.9912 182.428 82.2339C182.144 82.4815 181.797 82.6484 181.388 82.7345C180.979 82.8207 180.589 82.8091 180.216 82.6999C179.845 82.5968 179.525 82.402 179.258 82.1153C178.99 81.8286 178.808 81.4559 178.712 80.9973Z" fill="#0559BB"/>
</svg>
