<svg width="223" height="37" viewBox="0 0 223 37" fill="none" xmlns="http://www.w3.org/2000/svg">
<path d="M93.2221 24.5069C92.5711 25.3917 91.907 26.2645 91.2563 27.1364V27.6299H93.0912C93.9888 26.4334 94.4578 25.8084 94.4578 25.0934H96.2534V27.6299H97.9719V25.0934H99.7675C99.7675 25.8084 100.236 26.4334 101.134 27.6299H102.969V27.1364L100.992 24.5069C102.658 23.2586 102.658 23.2586 102.658 21.6185V21.0721H100.783V21.6185C100.783 23.6086 100.783 23.6086 98.8294 23.6086H97.9719V21.0721H96.2534V23.6086H95.3951C93.4427 23.6086 93.4427 23.6086 93.4427 21.6185V21.0721H91.5693V21.6185C91.5693 23.2586 91.5693 23.2586 93.2221 24.5069Z" fill="#0559BB"/>
<path d="M106.223 23.7649C106.223 22.3203 106.223 22.3203 107.823 22.3203C109.425 22.3203 109.425 22.3203 109.425 23.7649H106.223ZM106.223 24.935H107.823C109.502 24.9231 109.997 24.9499 110.558 24.8199L111.221 24.6632V24.0263C111.221 22.9454 111.221 20.9153 108.136 20.9153H107.512C104.427 20.9153 104.427 22.9454 104.427 24.0383V24.6632C104.427 25.8348 104.453 27.7881 107.85 27.7881C108.356 27.7881 109.502 27.7881 110.752 27.4746V26.0682H110.402L109.151 26.38H107.823C106.223 26.38 106.223 26.38 106.223 24.935Z" fill="#0559BB"/>
<path d="M114.123 21.0721C114.123 22.0602 114.047 25.0417 112.483 27.123V27.6313H114.397C115.528 26.1216 115.528 24.1568 115.528 22.5167H118.221V27.6313H119.94V21.0721H114.123Z" fill="#0559BB"/>
<path d="M123.896 23.7649C123.896 22.3203 123.896 22.3203 125.497 22.3203C127.099 22.3203 127.099 22.3203 127.099 23.7649H123.896ZM123.896 24.935H125.497C127.176 24.9231 127.671 24.9499 128.231 24.8199L128.895 24.6632V24.0263C128.895 22.9454 128.895 20.9153 125.811 20.9153H125.184C122.101 20.9153 122.101 22.9454 122.101 24.0383V24.6632C122.101 25.8348 122.126 27.7881 125.524 27.7881C126.031 27.7881 127.176 27.7881 128.426 27.4746V26.0682H128.074L126.824 26.38H125.497C123.896 26.38 123.896 26.38 123.896 24.935Z" fill="#0559BB"/>
<path d="M135.204 24.4549V24.2599C136.534 23.9217 136.534 23.1016 136.534 22.79C136.534 22.1651 136.534 20.9153 133.372 20.9153C132.903 20.9153 131.809 20.9153 130.559 21.2284V22.6336H130.911L132.161 22.3218H133.604C134.608 22.3218 134.659 22.3218 134.659 23.0514C134.659 23.7663 134.659 23.7663 133.604 23.7663H132.161V24.9366H133.604C134.608 24.9366 134.659 24.9366 134.659 25.653C134.659 26.3815 134.659 26.3815 133.604 26.3815H132.161L130.911 26.0697H130.559V27.4731C131.809 27.7881 132.903 27.7881 133.372 27.7881C136.519 27.7881 136.534 26.5379 136.534 25.9115C136.534 25.5997 136.534 24.7801 135.204 24.4549Z" fill="#0559BB"/>
<path d="M143.679 21.0721V23.6101H140.242V21.0721H138.525V27.6313H140.242V25.092H143.679V27.6313H145.396V21.0721H143.679Z" fill="#0559BB"/>
<path d="M150.823 24.3515C152.189 24.3515 152.189 24.3515 152.189 25.3667C152.189 26.3816 152.189 26.3816 150.823 26.3816H149.457V24.3515H150.823ZM155.235 27.6299H156.952V21.0721H155.235V27.6299ZM151.057 27.6299C153.128 27.6299 153.985 27.1763 153.985 25.405C153.985 24.4299 153.985 23.025 151.291 23.025C150.9 23.025 150.238 23.0619 149.457 23.2586V21.0721H147.739V27.6299H151.057Z" fill="#0559BB"/>
<path d="M160.831 23.7649C160.831 22.3203 160.831 22.3203 162.431 22.3203C164.032 22.3203 164.032 22.3203 164.032 23.7649H160.831ZM160.831 24.935H162.431C164.11 24.9231 164.605 24.9499 165.163 24.8199L165.828 24.6632V24.0263C165.828 22.9454 165.828 20.9153 162.743 20.9153H162.118C159.035 20.9153 159.035 22.9454 159.035 24.0383V24.6632C159.035 25.8348 159.062 27.7881 162.457 27.7881C162.965 27.7881 164.11 27.7881 165.358 27.4746V26.0682H165.008L163.758 26.38H162.431C160.831 26.38 160.831 26.38 160.831 24.935Z" fill="#0559BB"/>
<path d="M173.038 24.1167C173.038 22.3601 173.038 22.4001 175.366 22.4001C175.679 22.4001 176.108 22.4398 176.631 22.5534V25.3665L174.963 25.783C173.038 25.783 173.038 25.783 173.038 24.1167ZM172.022 28.6445V30.1293C173.271 30.4409 174.288 30.4409 174.678 30.4409C178.218 30.4409 178.333 28.9059 178.348 27.1612V21.0719H177.788L176.956 21.6968C176.383 20.9551 174.988 20.9286 174.548 20.9286C171.241 20.9286 171.241 23.0115 171.241 23.9601V24.2746C171.241 25.3665 171.241 27.1612 174.051 27.1612C174.898 27.1612 175.901 26.9295 176.631 26.3814V26.9295C176.631 28.9442 176.59 28.9592 174.521 28.9592H173.623L172.373 28.6445H172.022Z" fill="#0559BB"/>
<path d="M183.566 20.9153C180.248 20.9153 180.248 22.8685 180.248 24.0398V24.6647C180.248 25.8348 180.248 27.7881 183.566 27.7881H184.192C187.511 27.7881 187.511 25.8348 187.511 24.6647V24.0398C187.511 22.8685 187.511 20.9153 184.192 20.9153H183.566ZM183.879 22.3602C185.713 22.3602 185.713 22.3602 185.713 24.3514C185.713 26.3416 185.713 26.3416 183.879 26.3416C182.043 26.3416 182.043 26.3416 182.043 24.3514C182.043 22.3602 182.043 22.3602 183.879 22.3602Z" fill="#0559BB"/>
<path d="M194.667 24.35C194.667 26.3033 194.667 26.3033 192.755 26.3033C192.286 26.3033 191.688 26.3033 191.076 26.148V22.8668L192.741 22.4504C194.667 22.4504 194.667 22.4783 194.667 24.35ZM189.357 21.0706V30.2847H191.076V27.4347C191.857 27.6298 192.481 27.7863 193.42 27.7863C196.464 27.7863 196.464 25.5614 196.464 24.6633V24.0384C196.464 22.9455 196.464 20.9154 193.612 20.9154C192.156 20.9154 191.311 21.5538 190.84 21.9052L190.218 21.0706H189.357Z" fill="#0559BB"/>
<path d="M201.63 20.9153C198.313 20.9153 198.313 22.8685 198.313 24.0398V24.6647C198.313 25.8348 198.313 27.7881 201.63 27.7881H202.256C205.574 27.7881 205.574 25.8348 205.574 24.6647V24.0398C205.574 22.8685 205.574 20.9153 202.256 20.9153H201.63ZM201.944 22.3602C203.778 22.3602 203.778 22.3602 203.778 24.3514C203.778 26.3416 203.778 26.3416 201.944 26.3416C200.109 26.3416 200.109 26.3416 200.109 24.3514C200.109 22.3602 200.109 22.3602 201.944 22.3602Z" fill="#0559BB"/>
<path d="M210.532 20.9153C209.908 20.9153 209.087 20.9153 207.84 21.2284V22.6322H208.188L209.439 22.3203H211.04C211.9 22.3203 211.9 22.3203 211.9 22.8149C211.9 23.1549 211.9 23.2585 211.235 23.3751L209.672 23.7649C208.774 23.9866 207.526 24.3251 207.526 25.6798C207.526 26.5765 207.526 27.7881 210.689 27.7881C211.312 27.7881 212.133 27.7881 213.383 27.4746V26.0697H213.031C212.512 26.2116 212.015 26.3298 211.82 26.3815H210.18C209.322 26.3815 209.322 26.3814 209.322 25.8866C209.322 25.5869 209.322 25.5215 209.687 25.418L210.558 25.1848L211.547 24.9366C212.446 24.7149 213.693 24.3898 213.693 23.0234C213.693 22.1253 213.693 20.9153 210.532 20.9153Z" fill="#0559BB"/>
<path d="M221.725 27.813L223 26.863C222.531 26.2381 222.531 26.2381 222.531 25.1317V21.0735H220.814V25.8348L219.148 26.2514C217.378 26.2514 217.378 26.2514 217.378 24.4431V21.0735H215.659V24.7016C215.659 25.9916 215.659 27.7862 218.275 27.7862C219.641 27.7862 220.488 27.1483 220.956 26.7981L221.725 27.813Z" fill="#0559BB"/>
<path d="M91.645 6.74202V15.9546H93.5173V13.418H95.0015C97.5404 13.418 99.5314 13.418 99.5314 10.0851C99.5314 6.74202 97.5404 6.74202 95.0015 6.74202H91.645ZM93.5173 11.7766V8.38036H95.7838C97.4615 8.38036 97.5404 8.38036 97.5404 10.0851C97.5404 11.7382 97.5404 11.7766 95.7838 11.7766H93.5173Z" fill="#0559BB"/>
<path d="M104.282 9.23997C100.964 9.23997 100.964 11.1914 100.964 12.3615V12.9879C100.964 14.1594 100.964 16.1108 104.282 16.1108H104.906C108.226 16.1108 108.226 14.1594 108.226 12.9879V12.3615C108.226 11.1914 108.226 9.23997 104.906 9.23997H104.282ZM104.595 10.6832C106.429 10.6832 106.429 10.6832 106.429 12.6746C106.429 14.6661 106.429 14.6661 104.595 14.6661C102.76 14.6661 102.76 14.6661 102.76 12.6746C102.76 10.6832 102.76 10.6832 104.595 10.6832Z" fill="#0559BB"/>
<path d="M113.338 16.1108C113.808 16.1108 115.018 16.1108 116.267 15.7978V14.3927H115.915L114.653 14.7061H113.912C111.74 14.7061 111.74 14.7061 111.74 12.6761C111.74 10.6434 111.74 10.6434 113.338 10.6434C114.694 10.6434 114.694 10.6434 115.018 11.933L116.58 11.5431C116.58 10.9183 116.58 9.23997 113.652 9.23997H113.028C109.943 9.23997 109.943 11.1914 109.943 12.3629V12.9879C109.943 14.158 109.943 16.1108 113.338 16.1108Z" fill="#0559BB"/>
<path d="M121.591 16.1108C122.06 16.1108 123.269 16.1108 124.518 15.7978V14.3927H124.168L122.906 14.7061H122.163C119.99 14.7061 119.99 14.7061 119.99 12.6761C119.99 10.6434 119.99 10.6434 121.591 10.6434C122.945 10.6434 122.945 10.6434 123.269 11.933L124.831 11.5431C124.831 10.9183 124.831 9.23997 121.902 9.23997H121.278C118.195 9.23997 118.195 11.1914 118.195 12.3629V12.9879C118.195 14.158 118.195 16.1108 121.591 16.1108Z" fill="#0559BB"/>
<path d="M132.653 16.1377L133.928 15.1877C133.461 14.5628 133.461 14.5628 133.461 13.4563V9.39658H131.741V14.1595L130.076 14.5745C128.305 14.5745 128.305 14.5745 128.305 12.7663V9.39658H126.588V13.0263C126.588 14.316 126.588 16.1109 129.203 16.1109C130.571 16.1109 131.416 15.4728 131.886 15.1227L132.653 16.1377Z" fill="#0559BB"/>
<path d="M138.691 7.05355C137.846 7.05355 137.846 7.05355 137.429 6.58364L136.676 7.17014C137.494 8.22354 137.911 8.30333 139.107 8.30333H139.394C140.577 8.30333 141.007 8.22354 141.815 7.17014L141.061 6.58364C140.656 7.05355 140.656 7.05355 139.799 7.05355H138.691ZM141.867 16.1377L143.142 15.1877C142.674 14.5628 142.674 14.5628 142.674 13.4563V9.39658H140.956V14.158L139.291 14.5745C137.559 14.5745 137.518 14.5745 137.518 12.7663V9.39658H135.801V13.0248C135.801 14.316 135.801 16.1109 138.417 16.1109C139.784 16.1109 140.631 15.4728 141.099 15.1227L141.867 16.1377Z" fill="#0559BB"/>
<path d="M148.271 16.1108C148.739 16.1108 149.949 16.1108 151.198 15.7978V14.3927H150.847L149.586 14.7061H148.844C146.669 14.7061 146.669 14.7061 146.669 12.6761C146.669 10.6434 146.669 10.6434 148.271 10.6434C149.624 10.6434 149.624 10.6434 149.949 11.933L151.511 11.5431C151.511 10.9183 151.511 9.23997 148.581 9.23997H147.957C144.874 9.23997 144.874 11.1914 144.874 12.3629V12.9879C144.874 14.158 144.874 16.1108 148.271 16.1108Z" fill="#0559BB"/>
<path d="M153.436 9.39671V15.9561H155.152V13.4165H157.264C157.264 14.133 157.732 14.7578 158.629 15.9561H160.465V15.4612L158.486 12.8315C160.152 11.5817 160.152 11.5817 160.152 9.94325V9.39671H158.278V9.94325C158.278 11.9332 158.278 11.9332 156.325 11.9332H155.152V9.39671H153.436Z" fill="#0559BB"/>
<path d="M168.26 16.1377L169.533 15.1877C169.067 14.5628 169.067 14.5628 169.067 13.4563V9.39658H167.35V14.1595L165.683 14.5745C163.912 14.5745 163.912 14.5745 163.912 12.7663V9.39658H162.195V13.0263C162.195 14.316 162.195 16.1109 164.811 16.1109C166.177 16.1109 167.022 15.4728 167.492 15.1227L168.26 16.1377Z" fill="#0559BB"/>
<path d="M172.932 12.0895C172.932 10.6449 172.932 10.6449 174.533 10.6449C176.133 10.6449 176.133 10.6449 176.133 12.0895H172.932ZM172.932 13.2613H174.533C176.211 13.2478 176.706 13.273 177.266 13.1444L177.931 12.9879V12.3498C177.931 11.2683 177.931 9.23997 174.843 9.23997H174.22C171.136 9.23997 171.136 11.2683 171.136 12.3629V12.9879C171.136 14.158 171.161 16.1108 174.558 16.1108C175.067 16.1108 176.211 16.1108 177.46 15.7978V14.3927H177.109L175.86 14.7061H174.533C172.932 14.7061 172.932 14.7061 172.932 13.2613Z" fill="#0559BB"/>
<path d="M44.5229 9.36889H55.9385L42.2401 27.6343H30.8235L44.5229 9.36889Z" fill="#0559BB"/>
<path d="M0 12.6038C0 11.8432 0 10.8918 0.760921 10.1309C1.5217 9.36874 2.47336 9.36874 3.23472 9.36874H22.357C24.8295 9.36874 26.6369 9.36874 28.1588 10.1309C29.6813 10.8918 30.8234 12.4135 31.9639 13.9351L33.1061 15.4566C33.9171 16.5381 34.5346 17.3593 34.5346 18.4999C34.5346 19.6419 33.8721 20.5253 33.1061 21.546L28.5408 27.6327H17.1239L24.5449 17.7405C25.1153 16.9798 25.7808 16.027 25.3061 14.9825C24.8295 13.9351 23.5936 13.9351 22.6414 13.9351H13.6993V36.7656H4.5674V13.9351H0V12.6038Z" fill="#0559BB"/>
<path d="M58.2219 3.47132V4.80232H69.6379C70.3987 4.80232 71.5418 4.80232 72.3026 5.56318C73.0619 6.32537 73.0619 7.46756 73.0619 8.22827V19.6421C73.0619 20.4043 73.0619 21.5447 72.3026 22.3057C71.5418 23.0663 70.3987 23.0663 69.6379 23.0663H64.1207C63.169 23.0663 61.9332 23.0663 61.4568 22.0219C60.9819 20.9746 61.6459 20.023 62.218 19.2624L69.6379 9.37031H58.2219L53.6546 15.4567C52.8908 16.4775 52.2283 17.3595 52.2283 18.5015C52.2283 19.6421 52.8448 20.4632 53.6546 21.5447L54.798 23.0663C55.9381 24.588 57.0815 26.1096 58.6031 26.8737C60.1236 27.6328 61.9332 27.6328 64.4051 27.6328H69.3521C72.2073 27.6328 76.4888 27.6328 79.3418 24.7802C82.1966 21.926 82.1966 17.7406 82.1966 16.219V11.651C82.1966 10.1296 82.1966 5.94437 79.3418 3.09013C76.4888 0.235781 72.2073 0.240414 69.3521 0.238968L61.4568 0.235781C60.696 0.235781 59.7439 0.235781 58.9827 0.998268C58.2219 1.75897 58.2219 2.71042 58.2219 3.47132Z" fill="#0559BB"/>
</svg>
