<svg width="537" height="129" viewBox="0 0 537 129" fill="none" xmlns="http://www.w3.org/2000/svg">
<path d="M55.2 127.6C48.3 127.4 41.8 125.3 35.5 122.6C27.6 119.2 20.8 114.2 14.8 108C11.1 104.1 8.00002 99.6999 5.40002 94.9999C4.80002 93.9999 5.30002 93.5999 6.00002 93.0999C12 88.4999 18 83.7999 24 79.1999C32.7 72.3999 41.5 65.5999 50.2 58.7999C57 53.4999 63.8 48.1999 70.6 42.8999C71.9 41.8999 73.4 42.1999 74.8 42.6999C81.3 44.9999 87.7 47.3999 94.2 49.7999C103.3 53.1999 112.5 56.4999 121.6 59.8999C125.4 61.2999 126.3 60.4999 125.8 66.3999C125.4 71.1999 125 75.9999 123.7 80.5999C121.1 90.0999 116.6 98.6999 110.1 106.2C104.1 113.1 96.9 118.4 88.6 122.2C82.2 125.1 75.5 127.4 68.4 127.5C63.9 127.6 59.5 127.6 55.2 127.6Z" fill="#0559BB"/>
<path d="M61.9001 0.299826C65.0001 -0.100174 68.2001 1.69984 71.6001 1.09984C72.4001 0.999844 73.2001 1.39984 72.9001 2.49984C72.0001 5.89984 72.6001 9.39983 72.0001 12.7998C70.9001 19.0998 71.3001 25.5998 70.4001 31.8998C70.2001 33.3998 70.1001 34.9998 69.9001 36.4998C69.7001 37.6998 69.2001 37.9999 68.3001 38.1999C64.0001 38.7999 59.6001 39.2998 55.3001 39.8998C44.1001 41.3998 32.8001 42.9998 21.6001 44.4998C15.8001 45.2998 10.0001 46.4999 4.10014 46.6999C3.20014 46.6999 2.30014 47.1998 1.30014 47.3998C0.300136 47.5998 -0.199863 47.2998 0.100137 46.0998C2.60014 38.2998 6.20014 30.9998 11.3001 24.5998C17.0001 17.3998 23.9001 11.6998 32.1001 7.49984C39.7001 3.59984 47.6001 1.09984 56.2001 0.599844C57.9001 0.499844 59.8001 0.299826 61.9001 0.299826Z" fill="#0559BB"/>
<path d="M183.8 8.69971C188 9.19971 191.2 13.3997 191.1 16.8997C191 19.5997 191 22.3997 191.1 25.0997C191.1 27.5997 190.3 29.5997 188.3 31.0997C187.4 31.7997 187.5 32.0997 188.4 32.6997C191.2 34.6997 192.2 37.5997 191.9 40.8997C191.6 43.6997 192.1 46.5997 191.6 49.3997C190.7 54.1997 186.4 56.5997 182.2 56.5997C174.4 56.6997 166.6 56.5997 158.8 56.6997C157.6 56.6997 157.2 56.3997 157.2 55.1997C157.3 39.6997 157.3 24.1997 157.3 8.69971C166.1 8.69971 175 8.69971 183.8 8.69971ZM166.6 27.0997C166.5 27.9997 167.1 28.0997 167.8 28.0997C171.8 28.0997 175.8 28.0997 179.7 28.0997C180.2 28.0997 180.7 27.9997 180.8 27.3997C182.3 25.1997 181.3 22.7997 181.5 20.4997C181.7 18.2997 180.7 17.3997 178.6 17.3997C175.2 17.3997 171.9 17.3997 168.5 17.3997C167.1 17.3997 166.7 17.8997 166.7 19.2997C166.7 21.7997 166.6 24.4997 166.6 27.0997ZM180.8 36.4997C180.7 35.9997 180.4 35.7997 179.9 35.7997C175.8 35.7997 171.7 35.7997 167.6 35.7997C166.9 35.7997 166.5 35.9997 166.6 36.7997C166.6 39.8997 166.7 42.8997 166.7 45.9997C166.7 47.0997 166.9 47.6997 168.2 47.5997C172 47.4997 175.9 47.4997 179.7 47.5997C181 47.5997 181.6 46.8997 182.1 45.8997C182.8 43.3997 182.8 40.8997 182.1 38.3997C181.5 37.7997 182 36.4997 180.8 36.4997Z" fill="#0559BB"/>
<path d="M381.9 103.7C384.4 99.4999 386.9 95.1999 389.4 90.9999C392.6 85.4999 395.8 79.8999 398.9 74.3999C399.7 72.9999 400.7 72.2999 402.4 72.4999C404.2 72.6999 406 72.5999 407.9 72.4999C409.2 72.3999 409.6 72.9999 409.6 74.1999C409.6 89.1999 409.6 104.1 409.6 119.1C409.6 120.6 409.2 121.1 407.7 121C405.9 120.9 404 120.9 402.2 121C400.5 121.1 399.9 120.6 399.9 118.8C400 110 399.9 101.1 399.9 92.2999C399.9 91.6999 399.9 91.1999 399.9 90.2999C398.1 91.8999 397.4 93.7999 396.4 95.5999C391.6 103.7 386.9 111.8 382.2 119.9C381.7 120.7 381.2 121.1 380.2 121C378.2 120.9 376.1 120.9 374.1 121C372.5 121.1 372.1 120.7 372.1 119.1C372.2 105.3 372.1 91.5999 372.1 77.7999C372.1 72.4999 372.1 72.4999 377.3 72.5999C381.4 72.5999 381.4 72.5999 381.4 76.7999C381.4 85.7999 381.4 94.7999 381.4 103.8C381.6 103.6 381.7 103.6 381.9 103.7Z" fill="#0559BB"/>
<path d="M319.5 32.5998C319.5 28.1998 319.5 23.7998 319.5 19.2998C319.4 11.7998 323.7 7.59981 330.9 7.89981C335.4 8.09981 339.9 7.89981 344.4 7.89981C351.3 7.89981 355.1 11.5998 355.2 18.3998C355.4 27.6998 355.4 37.0998 355.1 46.3998C355 49.6998 354.5 53.2998 351 55.3998C348.9 56.5998 346.7 57.0998 344.4 57.0998C339.6 57.1998 334.8 57.2998 330.1 57.0998C323.2 56.6998 319.7 53.7998 319.4 46.1998C319.3 43.8998 319.4 41.5998 319.4 39.2998C319.5 37.0998 319.5 34.7998 319.5 32.5998ZM329.6 32.3998C329.6 36.6998 329.7 40.9998 329.6 45.1998C329.6 46.8998 330.4 47.6998 331.9 47.7998C335.5 47.8998 339.2 47.8998 342.8 47.7998C344.4 47.7998 345.3 46.8998 345.2 45.0998C345.1 36.6998 345.1 28.2998 345.2 19.8998C345.2 17.9998 344.4 17.1998 342.5 17.2998C339 17.2998 335.5 17.3998 332 17.2998C330.2 17.2998 329.5 18.0998 329.5 19.7998C329.6 23.9998 329.6 28.1998 329.6 32.3998Z" fill="#0559BB"/>
<path d="M233.2 112.6C232.9 117.3 229.7 120.7 224.5 120.8C218.2 121 211.9 121.3 205.6 120.6C201.6 120.2 198.2 116.5 198.2 112.5C198.1 101.8 198.1 91 198.2 80.3C198.2 76.1 201.7 72.3 206.4 72.1C213 71.8 219.6 71.5 226.1 72.3C230 72.7 232.8 76.1 233.1 80.1C233.1 90.9 233.1 101.7 233.2 112.6ZM223.5 96.5C223.5 92.2 223.4 87.9 223.5 83.7C223.5 82 222.8 81.2 221.2 81.2C217.5 81.2 213.9 81.2 210.2 81.2C208.5 81.2 207.8 82 207.8 83.6C207.8 92.1 207.8 100.6 207.8 109.1C207.8 110.7 208.5 111.6 210.2 111.6C213.9 111.6 217.5 111.6 221.2 111.6C222.8 111.6 223.6 110.9 223.6 109.2C223.4 104.9 223.5 100.7 223.5 96.5Z" fill="#0559BB"/>
<path d="M363.8 120.8C361 120.8 358.2 120.8 355.4 120.8C355.4 111.1 355.4 101.3 355.4 91.5998C355.4 91.0998 355.9 90.3998 355 90.0998C352.8 92.0998 351.8 94.7998 350.3 97.2998C345.9 104.8 341.6 112.3 337.2 119.8C336.9 120.3 336.6 120.9 335.8 120.9C333.1 120.8 330.3 120.9 327.6 120.8C327.5 120.8 327.3 120.5 327.2 120.4C327.7 119.9 327.5 119.2 327.5 118.6C327.5 103.3 327.5 87.9998 327.5 72.6998C330.1 72.0998 332.8 72.5998 335.4 72.4998C336.8 72.3998 336.6 73.5998 336.6 74.3998C336.6 80.0998 336.6 85.7998 336.6 91.3998C336.6 95.1998 336.6 99.0998 337 103.1C343 92.9998 348.9 82.8998 354.9 72.7998C357.1 72.7998 359.3 72.8998 361.4 72.7998C363.2 72.6998 363.8 73.1998 363.8 75.0998C363.7 90.2998 363.8 105.6 363.8 120.8Z" fill="#0559BB"/>
<path d="M360.4 55.8996C360.4 53.7996 360.4 51.6996 360.3 49.5996C360.2 48.3996 360.7 48.1996 361.7 48.1996C364.6 48.1996 365.5 47.2996 365.8 44.5996C366.3 40.2996 366.8 35.9996 367.4 31.6996C368.5 29.1996 367.7 26.5996 367.9 23.9996C368.3 19.1996 368.8 14.3996 369.2 9.59961C369.3 9.69961 369.3 9.7996 369.4 9.9996C369.5 9.9996 369.6 9.8996 369.6 9.8996C369.6 8.4996 370.6 8.69962 371.5 8.69962C380.3 8.69962 389.1 8.69961 397.8 8.59961C399.6 8.59961 400 9.2996 400 10.8996C399.9 26.0996 400 41.3996 400 56.5996C397.8 56.5996 395.6 56.4996 393.5 56.6996C391.4 56.8996 390.7 56.2996 390.8 54.0996C390.9 42.6996 390.9 31.3996 390.9 19.9996C390.9 17.1996 390.9 17.1996 388 17.1996C385.3 17.1996 382.7 17.1996 380 17.1996C379 17.1996 378.6 17.3996 378.4 18.4996C377.6 23.1996 377.4 27.8996 377.1 32.5996C376.8 37.4996 376.6 42.3996 375.5 47.0996C374.5 51.3996 372.2 54.6996 367.6 55.7996C365.2 55.8996 362.8 55.8996 360.4 55.8996Z" fill="#0559BB"/>
<path d="M276.1 104C276.1 106.6 276.3 109.2 276.2 111.8C276 116.6 272.9 120.2 268.1 120.7C262 121.2 255.9 121.2 249.8 120.7C244.6 120.3 241.7 116.5 241.6 111.3C241.4 101.3 241.4 91.2 241.6 81.2C241.7 76.8 244.5 72.7 249.6 72.2C255.8 71.7 262.1 71.6 268.3 72.2C273.1 72.7 276 76.2 276.2 81C276.3 83.6 276.2 86.1999 276.1 88.7999C273.6 88.7999 271.1 88.8 268.6 88.9C267.2 89 266.8 88.4 266.8 87.1C266.8 85.8 267.3 84.3 266.4 83.1C265.9 81.7 264.9 81.2999 263.5 81.2999C260.4 81.3999 257.3 81.3999 254.3 81.2999C252.4 81.2999 251.5 81.9 251.6 84C251.7 92.3 251.7 100.7 251.6 109C251.6 111.1 252.4 111.7 254.3 111.7C257.4 111.6 260.5 111.6 263.5 111.7C264.9 111.7 265.9 111.3 266.4 109.9C267.2 108.6 266.7 107.2 266.8 105.9C266.8 104.6 267.2 104 268.6 104.1C271.1 104.1 273.6 104 276.1 104Z" fill="#0559BB"/>
<path d="M210.4 17.5998C210.4 20.2998 210.4 22.8998 210.3 25.5998C210.3 26.8998 210.8 27.2998 212.1 27.2998C216.9 27.2998 221.6 27.2998 226.4 27.2998C228 27.2998 228.6 27.6998 228.5 29.2998C228.4 31.1998 228.4 33.0998 228.5 34.9998C228.6 36.2998 228.1 36.5998 226.8 36.5998C222 36.4998 217.1 36.5998 212.3 36.4998C210.9 36.4998 210.3 36.8998 210.3 38.3998C210.4 40.7998 210.4 43.1998 210.3 45.5998C210.2 47.0998 210.7 47.5998 212.2 47.4998C218.4 47.3998 224.6 47.4998 230.7 47.3998C232.2 47.3998 232.7 47.7998 232.6 49.2998C232.5 51.2998 232.6 53.1998 232.6 55.1998C232.6 56.1998 232.4 56.7998 231.2 56.7998C221.4 56.7998 211.5 56.7998 201.7 56.7998C201.5 56.7998 201.2 56.5998 201 56.4998C201 55.6998 201 54.9998 201 54.1998C201 39.7998 201 25.3998 201 10.9998C201 9.89982 200.7 8.7998 202.6 8.7998C211.9 8.8998 221.3 8.7998 230.6 8.7998C231.8 8.7998 232.2 9.19981 232.2 10.3998C232.2 12.6998 232.2 14.9998 232.3 17.2998C225.6 17.2998 218.8 17.2998 212.1 17.2998C211.5 17.1998 210.8 16.8998 210.4 17.5998Z" fill="#0559BB"/>
<path d="M318.3 113.3C317.7 117.6 314.6 120.6 309.7 120.8C303.6 121 297.5 121.3 291.4 120.6C287.6 120.2 284.2 116.4 284.2 112.6C284.1 101.9 284.1 91.1 284.2 80.4C284.2 76 287.6 72.4 292.8 72.1C298.9 71.7 305.1 71.6 311.3 72.3C314.9 72.7 317.8 75.9 318.3 79.6C318.3 82.1 318.2 84.6 318.3 87.2C318.3 88.4 318 89 316.7 89C314.7 88.9 312.6 88.9 310.6 89C309.4 89 309 88.6 309 87.4C308.9 85.7 309.5 83.9 308.7 82.3C308 81.7 307.2 81.4 306.3 81.4C303.1 81.5 299.9 81.5 296.6 81.4C294.7 81.4 293.9 82.3 293.9 84.1C293.9 92.4 293.9 100.8 293.9 109.1C293.9 110.9 294.6 111.8 296.5 111.8C299.7 111.8 302.9 111.8 306.2 111.8C307.2 111.8 307.9 111.4 308.7 110.9C309.5 109.2 309 107.5 309 105.8C309 104.6 309.4 104.2 310.6 104.2C312.6 104.3 314.7 104.3 316.7 104.2C318.1 104.1 318.4 104.8 318.3 106C318.2 108.2 318.3 110.8 318.3 113.3Z" fill="#0559BB"/>
<path d="M440.3 8.69996C440.3 11.5 440.3 14.3 440.4 17.2C433.9 17.2 427.4 17.2 420.8 17.2C420.1 17.2 419.2 16.9 418.7 17.6C418.7 20.3 418.7 23.0999 418.6 25.7999C418.5 27.0999 419.1 27.2999 420.2 27.2999C425 27.1999 429.8 27.3 434.5 27.2C436 27.2 436.7 27.6 436.6 29.2C436.5 31 436.5 32.9 436.6 34.7C436.7 36.2 436.1 36.6 434.7 36.6C430 36.5 425.3 36.6 420.6 36.5C419.2 36.5 418.6 36.6999 418.7 38.2999C418.8 40.7999 418.8 43.3999 418.7 45.8999C418.7 47.1999 419 47.6 420.3 47.6C426.4 47.5 432.5 47.6 438.6 47.5C440.2 47.5 440.7 47.9 440.6 49.5C440.5 51.5 440.5 53.3999 440.6 55.3999C440.6 56.4999 440.3 56.7999 439.2 56.7999C429.3 56.6999 419.4 56.7 409.5 56.7C409.5 41.5 409.5 26.4 409.5 11.2C409.5 9.09996 410.1 8.59996 412.1 8.69996C421.3 8.79996 430.8 8.69996 440.3 8.69996Z" fill="#0559BB"/>
<path d="M250 56.6996C247.5 56.6996 245 56.6996 242.4 56.7996C241.4 56.7996 240.9 56.4996 240.9 55.3996C240.9 39.8996 241 24.2996 241 8.79959C241 8.69959 241 8.69961 241.1 8.59961C241.9 9.79961 242.8 8.69962 243.7 8.69962C251.7 8.79962 259.7 8.79959 267.8 8.79959C272.2 9.39959 275.3 12.7996 275.3 17.3996C275.4 21.8996 275.4 26.3996 275.3 30.8996C275.2 35.2996 272.1 38.2996 267.9 39.2996C263.1 40.4996 258.4 39.5996 253.7 39.9996C252.7 40.0996 251.6 40.0996 250.6 40.1996C249.8 40.7996 250.2 41.5996 250.2 42.2996C250 46.9996 250 51.8996 250 56.6996ZM264.2 17.5996C263.7 16.8996 262.9 17.1996 262.3 17.0996C259.5 17.0996 256.7 16.9996 253.9 17.0996C252.9 17.0996 251.8 16.6996 250.9 17.4996C250.7 17.6996 250.6 17.8996 250.4 17.9996C250.3 18.1996 250 18.2996 250 18.4996C250 22.0996 250 25.7996 249.9 29.3996C249.9 30.0996 250.1 30.4996 250.9 30.4996C254.7 30.4996 258.6 30.4996 262.4 30.4996C264.6 30.4996 265.4 29.6996 265.5 27.4996C265.6 25.0996 265.5 22.5996 265.5 20.1996C265.6 19.0996 265.2 18.1996 264.2 17.5996Z" fill="#0559BB"/>
<path d="M185 72.7998C188.6 73.8998 190.7 76.1998 191 79.4998C191 85.1998 191 90.8998 191 96.5998C190.5 100.3 187.2 103.2 183.5 103.3C178.2 103.3 172.9 103.3 167.6 103.3C167.4 103.3 166.8 103.1 166.9 103.7C166.4 108.7 166.7 113.6 166.7 118.6C166.7 120.4 166.2 120.9 164.4 120.8C162.5 120.7 160.6 120.6 158.7 120.8C157 120.9 157 120.1 157 118.8C157 107.8 157 96.7998 157 85.7998C157 81.4998 157.1 77.2998 157.1 72.9998C166.5 72.7998 175.8 72.7998 185 72.7998ZM180.8 93.9998C181.4 93.5998 181.7 92.9998 181.7 92.3998C181.7 89.2998 181.7 86.1998 181.7 83.1998C181.7 81.7998 180.7 81.4998 179.5 81.4998C175.8 81.4998 172.1 81.4998 168.4 81.4998C167.1 81.4998 166.7 81.9998 166.7 83.1998C166.7 86.6998 166.7 90.1998 166.6 93.6998C166.6 94.9998 167.5 94.6998 168.2 94.6998C171.9 94.6998 175.6 94.6998 179.2 94.6998C179.8 94.6998 180.6 94.9998 180.8 93.9998Z" fill="#0559BB"/>
<path d="M519.7 50.4996C518.4 54.7996 515.1 56.5996 511 56.6996C503.4 56.8996 495.7 56.7996 488.1 56.6996C487.9 56.6996 487.7 56.4996 487.6 56.4996C487.6 55.5996 487.7 54.6996 487.7 53.7996C487.7 39.4996 487.7 25.1996 487.7 10.8996C487.7 9.0996 488.2 8.59962 489.9 8.69962C492.2 8.79962 494.5 8.69962 496.8 8.69962C496.8 13.6996 496.9 18.5996 496.8 23.5996C496.8 25.0996 497.2 25.6996 498.8 25.5996C503.1 25.4996 507.3 25.5996 511.6 25.4996C515.2 25.4996 519.3 28.7996 519.7 31.7996C519.7 38.0996 519.7 44.2996 519.7 50.4996ZM496.9 40.6996C496.9 42.6996 496.9 44.2996 496.9 45.8996C496.9 46.9996 497.2 47.4996 498.4 47.4996C501.6 47.3996 504.8 47.4996 508.1 47.4996C509.8 47.4996 510.7 46.6996 510.6 44.9996C510.6 42.5996 510.6 40.0996 510.6 37.5996C510.6 35.4996 509.8 34.6996 507.7 34.6996C506.2 34.6996 504.8 34.5996 503.3 34.6996C501.3 34.7996 498.7 33.7996 497.4 34.9996C496 36.2996 497.2 38.9996 496.9 40.6996Z" fill="#0559BB"/>
<path d="M78.8001 38.2998C74.3001 38.1998 74.3001 38.1998 76.1001 33.8998C79.9001 25.1998 83.7001 16.3998 87.4001 7.69981C88.1001 6.09981 88.9001 6.29979 90.1001 6.89979C98.5001 11.2998 105.8 16.9998 111.7 24.3998C115.2 28.7998 118 33.4998 120.4 38.5998C121.4 40.7998 121.3 41.0998 119 40.8998C111.2 40.2998 103.4 40.1998 95.6001 39.5998C93.6001 39.3998 91.6001 39.5998 89.6001 39.0998C89.1001 38.5998 88.4001 38.4998 87.7001 38.4998C84.8001 38.2998 81.8001 38.2998 78.8001 38.2998Z" fill="#0559BB"/>
<path d="M314 17.0996C310.9 17.5996 307.7 17.1996 304.6 17.2996C301.6 17.3996 301.6 17.2996 301.6 20.3996C301.6 31.7996 301.6 43.2996 301.6 54.6996C301.6 56.3996 301.1 56.8996 299.5 56.6996C297.6 56.5996 295.7 56.5996 293.8 56.6996C292.3 56.7996 292 56.2996 292 54.7996C292.1 42.9996 292 31.1996 292.1 19.3996C292.1 17.4996 291.5 16.9996 289.7 17.0996C286.8 17.1996 283.8 17.0996 280.9 17.1996C279.8 17.1996 279.4 16.8996 279.5 15.7996C279.6 13.3996 279.6 10.9996 279.6 8.59961C291.1 8.59961 302.6 8.59961 314.1 8.59961C314 11.4996 314 14.2996 314 17.0996Z" fill="#0559BB"/>
<path d="M458.9 17.2998C455.3 17.2998 451.7 17.2998 448.1 17.3998C446.8 17.3998 446.3 16.9998 446.4 15.6998C446.6 13.3998 446 10.9998 446.8 8.7998C457.4 8.7998 468.1 8.7998 478.7 8.7998C480.1 8.7998 481.1 8.8998 481 10.7998C480.8 12.9998 480.9 15.0998 480.9 17.2998C478 17.2998 475 17.3998 472.1 17.3998C468.9 17.3998 468.9 17.3998 468.9 20.4998C468.9 31.8998 468.9 43.1998 468.9 54.5998C468.9 56.4998 468.4 57.0998 466.5 56.8998C464.3 56.6998 462 56.7998 459.8 56.7998C459.8 44.2998 459.8 31.8998 459.8 19.3998C459.8 18.5998 460.5 17.3998 458.9 17.2998Z" fill="#0559BB"/>
<path d="M536.5 8.69986C536.5 24.2999 536.5 39.8998 536.6 55.3998C536.6 56.3998 536.3 56.6999 535.3 56.6999C532.6 56.5999 530 56.5998 527.3 56.5998C527.3 52.3998 527.3 48.1998 527.3 43.9998C527.3 32.8998 527.3 21.7998 527.3 10.7998C527.3 9.39983 527.4 8.49985 529.2 8.59985C531.6 8.79985 534.1 8.69986 536.5 8.69986Z" fill="#0559BB"/>
<path d="M232.3 17.1996C232.3 14.8996 232.2 12.5996 232.2 10.2996C232.2 9.09959 231.8 8.69962 230.6 8.69962C221.3 8.69962 211.9 8.79962 202.6 8.69962C200.8 8.69962 201 9.7996 201 10.8996C201 25.2996 201 39.6996 201 54.0996C201 54.8996 201 55.5996 201 56.3996C200.3 55.7996 200.6 55.0996 200.6 54.3996C200.6 39.6996 200.6 24.9996 200.5 10.1996C200.5 8.49962 201 8.09961 202.6 8.09961C211.9 8.19961 221.2 8.19961 230.6 8.09961C232.1 8.09961 232.8 8.39961 232.6 10.0996C232.4 12.4996 233 14.8996 232.3 17.1996Z" fill="#0559BB"/>
<path d="M400 56.6998C400 41.4998 400 26.1998 400 10.9998C400 9.29982 399.7 8.69983 397.8 8.69983C389 8.79983 380.2 8.6998 371.5 8.7998C370.6 8.7998 369.6 8.59982 369.6 9.99982C369.6 9.99982 369.5 10.0998 369.4 10.0998C369.3 9.99982 369.3 9.89983 369.2 9.69983C369.1 8.79983 369.3 8.2998 370.4 8.2998C380 8.2998 389.5 8.3998 399.1 8.2998C400.8 8.2998 400.4 9.29983 400.4 10.1998C400.4 23.2998 400.4 36.2998 400.4 49.3998C400.4 51.3998 400.4 53.4998 400.4 55.4998C400.4 55.8998 400.8 56.4998 400 56.6998Z" fill="#0559BB"/>
<path d="M440.3 8.69972C430.8 8.69972 421.3 8.79972 411.9 8.69972C409.9 8.69972 409.3 9.19972 409.3 11.1997C409.4 26.3997 409.3 41.4997 409.3 56.6997C408.4 56.2997 408.9 55.4997 408.9 54.8997C408.9 39.9997 408.9 25.0997 408.8 10.1997C408.8 8.59972 409.2 8.19972 410.8 8.19972C420 8.29972 429.2 8.19969 438.4 8.29969C439 8.29969 439.8 7.89972 440.3 8.69972Z" fill="#0559BB"/>
<path d="M536.5 8.6997C534 8.6997 531.6 8.7997 529.1 8.5997C527.3 8.4997 527.2 9.39968 527.2 10.7997C527.2 21.8997 527.2 32.9997 527.2 43.9997C527.2 48.1997 527.2 52.3997 527.2 56.5997C526.4 56.0997 526.8 55.2997 526.8 54.6997C526.8 39.8997 526.8 25.0997 526.7 10.3997C526.7 8.69968 527.1 7.9997 528.9 8.1997C530.9 8.3997 533 8.19968 535 8.29968C535.6 8.29968 536.3 7.8997 536.5 8.6997Z" fill="#0559BB"/>
<path d="M363.8 120.8C363.8 105.6 363.8 90.2997 363.8 75.0997C363.8 73.1997 363.3 72.5997 361.4 72.7997C359.2 72.8997 357 72.7997 354.9 72.7997C357.8 71.9997 360.7 72.5997 363.6 72.4997C364.5 72.4997 364.2 73.2997 364.2 73.7997C364.2 75.5997 364.2 77.3997 364.2 79.2997C364.2 92.4997 364.2 105.6 364.2 118.8C364.2 119.4 364.7 120.3 363.8 120.8Z" fill="#0559BB"/>
<path d="M496.8 8.69974C494.5 8.69974 492.2 8.79974 489.9 8.69974C488.2 8.59974 487.6 9.19972 487.7 10.8997C487.8 25.1997 487.7 39.4997 487.7 53.7997C487.7 54.6997 487.6 55.5997 487.6 56.4997C487 55.8997 487.3 55.1997 487.3 54.4997C487.3 39.7997 487.3 24.9997 487.2 10.2997C487.2 8.59971 487.6 8.09971 489.3 8.29971C491.8 8.59971 494.4 7.79974 496.8 8.69974Z" fill="#0559BB"/>
<path d="M327.5 72.6997C327.5 87.9997 327.5 103.3 327.5 118.6C327.5 119.2 327.7 119.9 327.2 120.4C327.2 119.8 327.1 119.2 327.1 118.5C327.1 104 327.1 89.4997 327.1 74.9997C327 74.1997 326.6 73.2997 327.5 72.6997Z" fill="#0559BB"/>
<path d="M480.9 17.1997C480.9 14.9997 480.8 12.7997 481 10.6997C481.1 8.79971 480.1 8.69971 478.7 8.69971C468.1 8.69971 457.4 8.69971 446.8 8.69971C447.2 7.99971 447.9 8.29968 448.5 8.29968C458.9 8.29968 469.2 8.29971 479.6 8.19971C481 8.19971 481.6 8.49969 481.5 9.99969C481.4 11.8997 481.5 13.7997 481.4 15.6997C481.4 16.1997 481.7 16.8997 480.9 17.1997Z" fill="#0559BB"/>
<path d="M458.9 17.2998C460.5 17.3998 459.8 18.5998 459.8 19.3998C459.8 31.8998 459.8 44.2998 459.8 56.7998C458.8 56.3998 459.3 55.4998 459.3 54.7998C459.3 43.0998 459.3 31.3998 459.3 19.6998C459.3 18.7998 459.5 17.9998 458.9 17.2998Z" fill="#0559BB"/>
<path d="M314.1 8.69972C302.6 8.69972 291.1 8.69972 279.6 8.69972C279.8 7.89972 280.5 8.29969 281 8.29969C291.5 8.29969 302.1 8.29969 312.6 8.29969C313.1 8.29969 313.7 7.99972 314.1 8.69972Z" fill="#0559BB"/>
<path d="M233.2 112.6C233.2 101.7 233.2 90.9 233.1 80C233.6 80.4 233.5 81 233.5 81.5C233.5 91.4 233.5 101.3 233.5 111.2C233.5 111.7 233.7 112.2 233.2 112.6Z" fill="#0559BB"/>
<path d="M354.9 90.0996C355.8 90.3996 355.3 91.0996 355.3 91.5996C355.3 101.3 355.3 111.1 355.3 120.8C354.5 120.5 354.9 119.8 354.9 119.4C354.9 109.6 354.9 99.7996 354.9 90.0996Z" fill="#0559BB"/>
<path d="M185 72.7997C175.7 72.7997 166.5 72.7997 157.2 72.7997C157.5 71.7997 158.4 72.2997 159 72.1997C166.6 72.1997 174.2 72.1997 181.8 72.1997C182.9 72.1997 184 72.2997 185 72.7997Z" fill="#0559BB"/>
<path d="M267.7 8.69983C259.7 8.69983 251.7 8.79982 243.6 8.59982C242.8 8.59982 241.8 9.69982 241 8.49982C241.1 8.39982 241.2 8.2998 241.3 8.2998C249.8 8.2998 258.4 8.2998 266.9 8.2998C267.2 8.2998 267.5 8.59983 267.7 8.69983Z" fill="#0559BB"/>
<path d="M183.8 8.70003C174.9 8.70003 166.1 8.7 157.2 8.8C157.4 8.1 158 8.40001 158.4 8.40001C166.4 8.40001 174.5 8.40001 182.5 8.40001C183 8.30001 183.5 8.10003 183.8 8.70003Z" fill="#0559BB"/>
<path d="M308.6 82.0999C309.4 83.7999 308.9 85.4999 308.9 87.1999C308.9 88.3999 309.3 88.7999 310.5 88.7999C312.5 88.6999 314.6 88.6999 316.6 88.7999C318 88.8999 318.3 88.1999 318.2 86.9999C318.1 84.4999 318.2 81.9999 318.2 79.3999C319.1 82.3999 318.4 85.3999 318.6 88.3999C318.7 89.2999 317.9 89.0999 317.4 89.0999C314.9 89.0999 312.4 89.0999 309.9 89.0999C308.9 89.0999 308.5 88.7999 308.6 87.7999C308.6 85.9999 308.6 83.9999 308.6 82.0999Z" fill="#0559BB"/>
<path d="M318.3 113.3C318.3 110.8 318.2 108.3 318.3 105.7C318.3 104.5 318 103.9 316.7 103.9C314.7 104 312.6 104 310.6 103.9C309.4 103.9 309 104.3 309 105.5C308.9 107.2 309.5 109 308.7 110.6C308.7 108.7 308.7 106.8 308.7 104.9C308.7 103.9 308.8 103.4 310 103.4C312.5 103.5 315 103.4 317.5 103.4C317.9 103.4 318.7 103.2 318.7 103.9C318.5 107.1 319.2 110.2 318.3 113.3Z" fill="#0559BB"/>
<path d="M418.6 17.5996C419.2 16.7996 420 17.1996 420.7 17.1996C427.2 17.1996 433.7 17.1996 440.3 17.1996C439.9 18.0996 439.1 17.5996 438.5 17.5996C431.9 17.5996 425.3 17.5996 418.6 17.5996Z" fill="#0559BB"/>
<path d="M210.4 17.5997C210.8 16.8997 211.5 17.0997 212.1 17.0997C218.8 17.0997 225.6 17.0997 232.3 17.0997C231.7 17.8997 230.9 17.4997 230.2 17.4997C223.6 17.5997 217 17.5997 210.4 17.5997Z" fill="#0559BB"/>
<path d="M519.7 50.4999C519.7 44.2999 519.7 38.0999 519.7 31.8999C519.7 31.9999 519.8 31.9999 519.8 32.0999C520.4 38.1999 520.6 44.3999 519.7 50.4999Z" fill="#0559BB"/>
<path d="M191 96.4999C191 90.7999 191 85.0999 191 79.3999C191.5 79.6999 191.4 80.2999 191.4 80.6999C191.4 85.3999 191.4 90.1999 191.4 94.8999C191.4 95.4999 191.5 96.0999 191 96.4999Z" fill="#0559BB"/>
<path d="M166.9 103.6C166.8 103 167.3 103.2 167.6 103.2C172.9 103.2 178.2 103.2 183.5 103.2C183 103.9 182.4 103.6 181.8 103.6C176.8 103.6 171.9 103.6 166.9 103.6Z" fill="#0559BB"/>
<path d="M250 56.6996C250 51.8996 250 46.9996 250 42.1996C250 41.4996 249.6 40.5996 250.4 40.0996C250.4 45.2996 250.4 50.3996 250.4 55.5996C250.5 55.9996 250.7 56.5996 250 56.6996Z" fill="#0559BB"/>
<path d="M266.4 83C267.2 84.3 266.7 85.7 266.8 87C266.8 88.3 267.2 88.9 268.6 88.8C271.1 88.7 273.6 88.8 276.1 88.7C274.6 89.7 273 89.1 271.4 89.1C266.3 89.2 266.3 89.1 266.4 84.1C266.3 83.8 266.4 83.4 266.4 83Z" fill="#0559BB"/>
<path d="M78.8003 38.2998C81.8003 38.2998 84.8003 38.2998 87.7003 38.2998C88.4003 38.2998 89.1003 38.3998 89.6003 38.8998C86.0003 38.6998 82.4003 38.8998 78.8003 38.2998Z" fill="#0559BB"/>
<path d="M276.1 104C273.6 104 271.1 104 268.6 103.9C267.2 103.8 266.8 104.4 266.8 105.7C266.8 107 267.2 108.5 266.4 109.7C266 103.4 266 103.4 272.2 103.5C273.5 103.6 274.9 103 276.1 104Z" fill="#0559BB"/>
<path d="M55.2002 127.6C59.6002 127.6 63.9002 127.6 68.3002 127.6C67.5002 128.4 66.6002 128 65.7002 128C62.2002 127.8 58.7002 128.5 55.2002 127.6Z" fill="#0559BB"/>
<path d="M368 24C367.8 26.6 368.5 29.2 367.5 31.7C367.4 29.1 367.4 26.5 368 24Z" fill="#0559BB"/>
<path d="M314 17.0997C314 14.2997 314 11.4997 314 8.69971C314.7 11.4997 314.8 14.2997 314 17.0997Z" fill="#0559BB"/>
<path d="M360.4 55.8999C362.8 55.8999 365.1 55.8999 367.5 55.8999C365.2 56.5999 362.8 56.8999 360.4 55.8999Z" fill="#0559BB"/>
<path d="M166.6 27.0996C166.8 27.2996 167 27.5996 167.3 27.5996C171.8 27.5996 176.3 27.9996 180.8 27.3996C180.7 27.9996 180.3 28.0996 179.7 28.0996C175.7 28.0996 171.7 28.0996 167.8 28.0996C167.1 28.0996 166.5 27.9996 166.6 27.0996Z" fill="#0559BB"/>
<path d="M180.8 36.4997C176.3 35.9997 171.8 36.2997 167.3 36.2997C167.1 36.2997 166.8 36.5997 166.6 36.6997C166.5 35.9997 167 35.6997 167.6 35.6997C171.7 35.6997 175.8 35.6997 179.9 35.6997C180.5 35.6997 180.7 35.9997 180.8 36.4997Z" fill="#0559BB"/>
<path d="M182.1 45.7998C182.1 43.2998 182.1 40.7998 182.1 38.2998C182.8 40.7998 182.8 43.2998 182.1 45.7998Z" fill="#0559BB"/>
<path d="M264.2 17.5999C259.8 17.5999 255.3 17.5999 250.9 17.4999C251.8 16.6999 252.9 17.1999 253.9 17.0999C256.7 16.9999 259.5 17.0999 262.3 17.0999C263 17.1999 263.7 16.8999 264.2 17.5999Z" fill="#0559BB"/>
<path d="M250.4 18.0996C250.4 21.4996 250.5 24.9996 250.5 28.3996C250.5 29.1996 250.4 29.8996 251 30.5996C250.3 30.5996 250 30.1996 250 29.4996C250 25.8996 250 22.1996 250.1 18.5996C250 18.3996 250.3 18.2996 250.4 18.0996Z" fill="#0559BB"/>
<path d="M166.6 93.6997C166.9 93.8997 167.2 94.1997 167.4 94.1997C171.8 94.0997 176.3 94.4997 180.7 93.9997C180.5 94.8997 179.8 94.6997 179.2 94.6997C175.5 94.6997 171.8 94.6997 168.2 94.6997C167.5 94.6997 166.6 94.9997 166.6 93.6997Z" fill="#0559BB"/>
</svg>
