<svg width="224" height="101" viewBox="0 0 224 101" fill="none" xmlns="http://www.w3.org/2000/svg">
<path d="M85.435 45.6759L81.5676 52.4527H80.6536V45.6759H78.4252V61.2057H80.6536V54.4106H81.5868L85.2957 61.2057H87.9174L83.4119 53.1906L87.933 45.6759H85.435ZM115.858 61.2057V45.6759H113.562L109.447 54.0421L105.491 45.6759H103.081V61.2057H105.317V50.0419L108.499 56.7389H110.285L113.562 49.9053H113.625V61.2057H115.858ZM150.767 47.6733V45.6759H143.15V61.2057H150.844V59.2074H145.388V54.396H149.329V52.4912H145.388V47.6733H150.767ZM127.658 49.1326V61.2057H129.928V45.6759H127.499L121.112 57.7857H121.054V45.6759H118.821V61.2057H121.285L127.658 49.1326ZM152.428 47.6733H155.884V61.2057H158.116V47.6733H161.589V45.6759H152.428V47.6733ZM141.132 45.6759H131.968V47.6733H135.422V61.2057H137.652V47.6733H141.132V45.6759ZM94.5138 47.3671C97.0576 47.3671 98.4363 49.7513 98.4363 53.4032C98.4363 57.3806 96.9797 59.5943 94.5138 59.5943C91.9526 59.5943 90.5932 57.2266 90.5932 53.4591C90.5932 49.5781 92.0498 47.3671 94.5138 47.3671ZM94.534 61.5779C98.318 61.5779 100.689 58.5649 100.689 53.4591C100.689 48.9777 98.7067 45.4046 94.5514 45.4046C90.6115 45.4046 88.3207 48.6449 88.3207 53.4591C88.3968 58.8169 91.0194 61.5779 94.534 61.5779ZM94.8521 88.5704C92.2881 88.5704 90.9314 86.2073 90.9314 82.4389C90.9314 78.5579 92.3862 76.3414 94.8521 76.3414C97.3931 76.3414 98.7718 78.7311 98.7718 82.3812C98.7718 86.3613 97.318 88.5704 94.8521 88.5704ZM94.8878 74.3844C90.9507 74.3844 88.6608 77.6247 88.6608 82.4389C88.7351 87.7958 91.3568 90.5513 94.8722 90.5513C98.6536 90.5513 101.024 87.5428 101.024 82.4389C101.024 77.952 99.0404 74.3844 94.8878 74.3844ZM128.098 86.7683H128.04V74.6548H125.808V90.1855H128.273L134.644 78.1096V90.1855H136.91V74.6548H134.488L128.098 86.7683ZM142.162 86.7683H142.099V74.6548H139.867V90.1855H142.33L148.701 78.1096V90.1855H150.97V74.6548H148.543L142.162 86.7683ZM120.613 76.2855C121.506 76.2855 122.729 76.4597 123.563 76.9858L123.639 74.9646C122.692 74.4614 121.45 74.3486 120.498 74.3486C116.228 74.3486 113.918 77.7787 113.918 82.537C113.918 87.1762 116.033 90.5513 120.284 90.5513C121.526 90.5513 122.652 90.3395 123.545 89.8134L123.624 89.7593L123.583 87.7793C122.711 88.3788 121.45 88.5154 120.69 88.5154C117.742 88.5154 116.208 86.1899 116.208 82.4188C116.208 78.4378 117.859 76.2855 120.613 76.2855ZM109.636 76.2855C110.531 76.2855 111.754 76.4597 112.588 76.9858L112.663 74.9646C111.711 74.4614 110.471 74.3486 109.518 74.3486C105.248 74.3486 102.94 77.7787 102.94 82.537C102.94 87.1762 105.053 90.5513 109.304 90.5513C110.548 90.5513 111.672 90.3395 112.569 89.8134L112.645 89.7593L112.607 87.7793C111.731 88.3788 110.471 88.5154 109.711 88.5154C106.763 88.5154 105.231 86.1899 105.231 82.4188C105.231 78.4378 106.882 76.2855 109.636 76.2855ZM82.4595 82.8468H80.6536V76.6164H82.4595C84.0508 76.6164 84.7118 78.1884 84.7118 79.7229C84.7118 81.1749 84.1498 82.8468 82.4595 82.8468ZM83.1012 74.6135L78.4252 74.6548V90.1855H80.6536V84.902H83.1012C85.2141 84.902 87.0026 82.768 87.0026 79.7431C87.0026 77.1233 85.6431 74.6135 83.1012 74.6135ZM113.848 20.1518V32.2278H116.121V16.697H113.694L107.308 28.8123H107.244V16.697H105.013V32.2278H107.479L113.848 20.1518ZM137.052 18.6962H142.821V32.2278H145.032V16.697H134.814V32.2278H137.052V18.6962ZM121.309 21.0667L124.496 27.7646H126.285L129.565 20.9283H129.618V32.2278H131.855V16.697H129.565L125.446 25.0651L121.488 16.697H119.076V32.2278H121.309V21.0667ZM218.487 15.839C220.45 15.839 221.551 15.1396 221.551 13.3558L221.594 13.2981L219.924 13.2183C219.924 14.3871 219.145 14.5786 218.487 14.5786C217.61 14.5786 217.052 14.2651 217.052 13.2422L215.38 13.3164C215.38 15.081 216.447 15.839 218.487 15.839ZM156.821 20.1518V32.2278H159.092V16.697H156.666L150.281 28.8123H150.217V16.697H147.989V32.2278H150.451L156.821 20.1518ZM167.645 15.839C169.603 15.839 170.709 15.1396 170.709 13.3558L170.75 13.2981L169.08 13.2183C169.08 14.3871 168.305 14.5786 167.645 14.5786C166.769 14.5786 166.206 14.2651 166.206 13.2422L164.534 13.3164C164.534 15.081 165.605 15.839 167.645 15.839ZM83.9289 30.6145C81.3668 30.6145 80.0065 28.2477 80.0065 24.4839C80.0065 20.5983 81.4594 18.3855 83.9289 18.3855C86.4755 18.3855 87.8514 20.7715 87.8514 24.4216C87.8514 28.4035 86.3966 30.6145 83.9289 30.6145ZM83.9647 16.4248C80.0239 16.4248 77.7358 19.6669 77.7358 24.4839C77.811 29.8436 80.4355 32.5981 83.9482 32.5981C87.735 32.5981 90.1046 29.5869 90.1046 24.4839C90.1046 19.9969 88.1264 16.4248 83.9647 16.4248ZM164.345 28.8123H164.282V16.697H162.047V32.2278H164.518L170.883 20.1518L170.942 32.2278H173.159V16.697H170.733L164.345 28.8123ZM221.575 16.697L215.183 28.8123H215.127V16.697H212.895V32.2278H215.362L221.729 20.1518L221.787 32.2278H224V16.697H221.575ZM182.22 18.3277C183.114 18.3277 184.337 18.5001 185.173 19.029L185.251 17.0068C184.297 16.4999 183.056 16.3853 182.105 16.3853C177.832 16.3853 175.52 19.8228 175.52 24.582C175.52 29.2221 177.638 32.5981 181.891 32.5981C183.133 32.5981 184.263 32.3845 185.154 31.8593L185.229 31.8006L185.192 29.8206C184.318 30.421 183.056 30.5631 182.299 30.5631C179.346 30.5631 177.812 28.2303 177.812 24.4638C177.812 20.48 179.464 18.3277 182.22 18.3277ZM93.6402 21.0291C93.6402 26.5207 93.1727 30.4449 91.0002 30.4449V32.4798C94.9593 32.4798 95.7587 29.1212 95.7587 21.162V18.6962H99.8535V32.2278H102.069V16.697H93.6402V21.0291ZM201.123 28.8123H201.066V16.697H198.831V32.2278H201.299L207.667 20.1518V32.2278H209.942V16.697H207.511L201.123 28.8123ZM194.43 16.697L190.567 23.4747H189.653V16.697H187.421V32.2278H189.653V25.4363H190.586L194.294 32.2278H196.919L192.409 24.2089L196.934 16.697H194.43Z" fill="#0559BB"/>
<path d="M35.523 13.0626C35.9025 17.4744 33.6667 23.6287 25.8447 30.9207C18.0209 38.2044 6.96111 45.5834 8.37463 55.1568C9.62956 63.6917 19.7928 68.4922 19.7928 68.4922L26.3966 62.8988C26.3966 62.8988 17.7413 56.5254 24.7319 48.4754C36.6487 34.7165 46.91 30.9207 45.7183 19.4351C44.5202 7.944 31.2439 3.30391 31.2439 3.30391C31.2439 3.30391 35.0106 7.2611 35.523 13.0626Z" fill="#0559BB"/>
<path d="M21.9054 11.644C20.8805 18.5629 7.77382 23.9216 4.00626 31.6288C0.243292 39.3369 5.97715 47.5234 5.97715 47.5234C5.97715 47.5234 5.26855 43.569 12.1492 37.3734C21.7294 28.7175 32.0393 21.729 31.4957 14.2354C30.7293 3.61424 19.2552 -9.91821e-05 19.2552 -9.91821e-05C19.2552 -9.91821e-05 22.9302 4.71969 21.9054 11.644ZM4.8377 32.0312C6.50789 28.6268 10.2039 25.6137 13.7781 22.6951C18.1186 19.1633 22.218 15.8267 22.8285 11.7797C23.4518 7.55856 22.4343 4.13122 21.4433 1.96243C24.6966 3.64998 30.0776 7.45039 30.5717 14.3005C30.975 19.9186 24.4996 25.4763 16.9892 31.9157C15.2008 33.4538 13.3436 35.0387 11.5286 36.6777C7.78759 40.0592 6.17881 42.8513 5.50597 44.7809C4.15936 41.9631 2.48642 36.8418 4.8377 32.0312Z" fill="#0559BB"/>
<path d="M49.2674 22.0209C49.2674 22.1025 49.2675 22.1832 49.2638 22.2639C49.0777 28.5887 45.4733 32.6495 41.945 36.3041C33.4749 45.1168 27.0435 48.5964 27.0435 56.0157C27.0435 62.9831 38.8604 68.4922 38.8604 68.4922L44.861 63.0134C44.861 63.0134 40.7616 60.543 40.7671 56.2953C40.7671 53.912 42.0523 50.9742 46.0545 47.5982C54.9784 40.0853 58.7313 34.8824 58.7313 29.0058C58.7313 28.1111 58.6442 27.2037 58.4746 26.2714C56.8411 17.3103 46.5678 13.2963 46.5678 13.2963C46.5678 13.2963 49.2638 18.1087 49.2674 22.0209Z" fill="#0559BB"/>
<path d="M19.3477 83.4474C19.6181 83.4135 19.8949 83.4025 20.169 83.4025C24.1263 83.4025 27.4044 86.3082 27.9745 90.1096C28.498 90.2791 29.0443 90.3974 29.6099 90.4561C29.1827 85.6189 25.12 81.8249 20.169 81.8249C19.9004 81.8249 19.6217 81.8378 19.3541 81.8579H19.3532C19.3724 82.1082 19.3834 82.3603 19.3834 82.6151C19.3834 82.8956 19.3706 83.1733 19.3477 83.4474Z" fill="#0559BB"/>
<path d="M28.0472 91.7816C27.7997 95.9138 24.3732 99.1844 20.1693 99.1844C15.8151 99.1844 12.2804 95.6489 12.2804 91.2948C12.2804 87.796 14.5583 84.8242 17.7181 83.7948H17.7199C17.7786 83.4098 17.8089 83.0157 17.8089 82.6151C17.8089 82.4519 17.8043 82.2897 17.7933 82.1284C13.715 83.1825 10.7046 86.8848 10.7046 91.2948C10.7046 96.5261 14.9406 100.766 20.1693 100.766C25.1487 100.766 29.2325 96.9304 29.6157 92.052V92.0483C29.0785 92.0016 28.556 91.9127 28.0472 91.7816Z" fill="#0559BB"/>
<path d="M10.7047 91.2943C10.7047 91.0129 10.7176 90.736 10.7405 90.4619H10.7377C10.4701 90.4904 10.1886 90.4995 9.90996 90.4995C5.55391 90.4995 2.01919 86.9704 2.01919 82.6145C2.01919 78.2531 5.55391 74.7231 9.90996 74.7231C14.2743 74.7231 17.809 78.2531 17.809 82.6145C17.809 86.1134 15.5255 89.0833 12.3703 90.1182C12.3685 90.12 12.3685 90.12 12.3667 90.12C12.3098 90.5032 12.2805 90.8946 12.2805 91.2943C12.2805 91.4574 12.2851 91.6197 12.2952 91.7828C12.2961 91.781 12.297 91.781 12.297 91.781C16.3808 90.7232 19.3838 87.0208 19.3838 82.6145C19.3838 77.3814 15.1424 73.1437 9.90996 73.1437C4.68398 73.1437 0.444336 77.3814 0.444336 82.6145C0.444336 87.844 4.68398 92.0835 9.90996 92.0835C10.1886 92.0835 10.4627 92.0716 10.7295 92.0514H10.735C10.7157 91.8012 10.7047 91.5482 10.7047 91.2943Z" fill="#0559BB"/>
<path d="M22.5581 82.128C22.8047 77.9958 26.2358 74.7233 30.4333 74.7233C34.7939 74.7233 38.325 78.2515 38.325 82.6148C38.325 86.1118 36.0433 89.0817 32.8918 90.1185C32.835 90.5016 32.8047 90.8949 32.8047 91.2945C32.8047 91.4577 32.8102 91.6199 32.8185 91.7812C36.894 90.7198 39.9071 87.0156 39.9071 82.6148C39.9071 77.3816 35.6602 73.144 30.4333 73.144C25.4575 73.144 21.3746 76.9847 20.9887 81.8576C20.9887 81.8576 20.9878 81.8595 20.9878 81.8613C21.525 81.908 22.0493 81.9969 22.5581 82.1299V82.128Z" fill="#0559BB"/>
<path d="M31.2237 91.2943C31.2237 91.0129 31.2365 90.736 31.2594 90.4619C30.9872 90.4904 30.7112 90.4995 30.4335 90.4995C26.4771 90.4995 23.1954 87.5864 22.6325 83.7943C22.11 83.6228 21.5628 83.5046 20.999 83.445V83.4468C21.4198 88.2922 25.4843 92.0835 30.4335 92.0835C30.7067 92.0835 30.978 92.0716 31.2539 92.0514C31.2347 91.8012 31.2237 91.5482 31.2237 91.2943Z" fill="#0559BB"/>
<path d="M50.949 73.1437C45.976 73.1437 41.8995 76.9836 41.5127 81.8574V81.861C42.0471 81.906 42.5687 81.9967 43.0756 82.1278C43.3268 77.9955 46.7552 74.7231 50.949 74.7231C55.306 74.7231 58.8425 78.2531 58.8425 82.6145C58.8425 86.9704 55.306 90.4995 50.949 90.4995C46.9899 90.4995 43.7155 87.5864 43.1471 83.7943V83.7924C42.6255 83.621 42.0801 83.5046 41.5164 83.445V83.4468C41.9417 88.2913 45.9998 92.0835 50.949 92.0835C56.1833 92.0835 60.4266 87.844 60.4266 82.6145C60.4266 77.3814 56.1833 73.1437 50.949 73.1437Z" fill="#0559BB"/>
<path d="M39.8729 83.4474C40.1378 83.4135 40.4165 83.4025 40.6943 83.4025C44.6461 83.4025 47.9223 86.3082 48.4971 90.1114C49.0187 90.281 49.5622 90.3974 50.1251 90.4561C49.7007 85.6208 45.6398 81.8249 40.6943 81.8249C40.4184 81.8249 40.1479 81.8378 39.8784 81.8579C39.8977 82.1082 39.9068 82.3603 39.9068 82.6151C39.9068 82.8956 39.8949 83.1733 39.8711 83.4474H39.8729Z" fill="#0559BB"/>
<path d="M48.5681 91.7816C48.3151 95.9138 44.884 99.1844 40.6948 99.1844C36.3332 99.1844 32.8049 95.6489 32.8049 91.2948C32.8049 87.796 35.0801 84.8261 38.2362 83.7948C38.2958 83.4098 38.3252 83.0157 38.3252 82.6151C38.3252 82.4519 38.3206 82.2897 38.3114 82.1284H38.3105C34.2313 83.1825 31.2236 86.8848 31.2236 91.2948C31.2236 96.5261 35.4614 100.766 40.6948 100.766C45.6668 100.766 49.7433 96.9304 50.1375 92.052V92.0483C49.6003 92.0034 49.076 91.9145 48.5681 91.7816Z" fill="#0559BB"/>
</svg>
