<svg width="223" height="47" viewBox="0 0 223 47" fill="none" xmlns="http://www.w3.org/2000/svg">
<path fill-rule="evenodd" clip-rule="evenodd" d="M221.972 14.1094C221.972 7.03779 216.052 1.34746 204.043 1.34746C191.261 1.34746 184.687 8.60427 184.687 17.5718H196.426C196.426 12.9146 198.98 10.4865 203.872 10.4865C208.504 10.4865 210.475 12.1761 210.475 14.8491C210.475 17.5208 209.017 19.3409 205.415 19.3409L198.775 19.3459V27.0105L205.242 27.0055C209.361 27.0055 211.077 28.8169 211.077 31.7485C211.077 34.5072 209.276 37.1292 204.043 37.1292C198.381 37.1292 195.808 34.1989 195.808 29.3702H184.1C184.1 40.3206 191.691 46.1838 204.043 46.1838C216.222 46.1838 223 41.0094 223 32.7319C223 28.4216 220.77 25.3172 216.481 23.507C220.169 21.5241 221.97 17.9025 221.97 14.1081L221.972 14.1094ZM165.341 45.0189H177.388V2.51363H165.341V7.16335C162.237 3.24714 158.147 1.63963 153.699 1.63963C142.378 1.63963 133.361 10.489 133.361 23.7656C133.361 37.0422 142.378 45.8916 153.699 45.8916C158.147 45.8916 162.237 44.2829 165.341 40.3679V45.0176V45.0189ZM166.18 23.7656C166.18 30.4891 161.219 35.4111 155.277 35.4111C149.422 35.4111 144.376 30.4891 144.376 23.7656C144.376 17.0422 149.422 12.1202 155.279 12.1202C161.219 12.1202 166.18 17.0422 166.18 23.7656ZM113.044 12.7132H130.549V2.51238H101.004V45.0189H113.045V12.7132H113.044ZM95.0575 23.7656C95.0575 11.0634 84.911 0.765625 72.3957 0.765625C59.8792 0.765625 49.734 11.0634 49.734 23.7656C49.734 36.4678 59.8805 46.7656 72.3957 46.7656C84.9122 46.7656 95.0575 36.4678 95.0575 23.7656ZM85.2975 25.9662C78.351 27.6396 73.5132 33.637 72.3957 43.297C71.2782 33.637 66.4404 27.6396 59.4939 25.9662C58.2996 18.4048 64.8769 11.7919 72.3957 11.7808C79.9145 11.7919 86.4918 18.4048 85.2975 25.9662ZM11.0063 23.7656C11.0063 16.8656 15.5964 11.2462 22.1935 11.2462C27.2617 11.2462 31.469 14.0609 32.5208 18.2332H43.9954C43.4008 8.5533 34.6889 0.765625 22.4586 0.765625C9.64599 0.765625 0 10.2354 0 23.7694C0 37.3045 9.64599 46.7656 22.4586 46.7656C34.9032 46.7656 43.6981 39.014 43.9954 28.4241H32.5208C31.6264 33.2652 27.6446 36.2838 22.1947 36.2838C16.17 36.2838 11.0063 30.8434 11.0063 23.7656Z" fill="#0559BB"/>
</svg>
