<svg width="223" height="41" viewBox="0 0 223 41" fill="none" xmlns="http://www.w3.org/2000/svg">
<path d="M11.2259 32.1689L11.2007 17.6855L12.8358 17.6493C14.1813 17.6493 16.0439 18.6584 16.0439 21.5014V28.2204C16.0439 32.2621 13.7179 32.1689 12.8842 32.1689H11.2259ZM2.39253 32.1754L0 32.1572V33.7146H14.2472C20.4082 33.7146 24.8876 30.5791 24.8876 24.2919C24.8876 19.9368 20.5013 17.1437 16.8058 17.2124V16.7521C21.0881 16.1903 23.2538 13.0425 23.2538 8.7515C23.2538 4.43336 19.3354 1.63055 14.1186 1.63055L0 1.62731V3.23391L2.39188 3.20867L2.39253 32.1754ZM11.2259 16.0854V3.22032H12.8842C13.7179 3.22032 15.2522 2.96787 15.2522 6.9902V12.0819C15.2522 15.2899 13.9997 16.0861 12.8358 16.0861H11.2259V16.0854ZM28.879 3.20219H26.4839V1.70305H46.5483V12.8949H45.774C45.2195 1.44801 37.6497 3.23262 37.6497 3.23262L37.6923 16.0932L38.5053 16.0945C41.0284 16.0945 42.2835 12.9803 42.5168 9.66549H43.3188V24.1275H42.5168C42.1704 20.9039 41.0659 17.7011 38.5053 17.7011L37.6497 17.7185L37.6923 32.1029C44.0879 32.1152 45.9854 27.4268 46.6342 21.7105H47.276V33.714H26.4839V32.1449H28.879V3.20219ZM50.5487 1.61631V3.22614H53.0001C53.7834 3.22614 54.5499 4.01585 54.5499 6.43352V15.7533C54.5499 23.2543 53.7414 30.7513 51.3411 32.1637H48.9337V41H49.7364C49.7364 36.5103 51.4432 33.7697 55.3512 33.7697H64.1762C68.2368 33.7697 70.5944 35.8701 70.5944 41H71.3964V32.1637H68.1876V3.2378L70.595 3.22614V1.61631H50.5487ZM59.3633 3.2378V32.1644H54.1375V31.3598C55.3092 28.5602 56.1546 20.3608 56.1546 15.2899V6.45164C56.1546 4.05339 56.934 3.2378 57.7586 3.2378H59.3633ZM72.1894 17.7444C72.1894 25.6609 75.5927 34.5632 83.0204 34.5632C90.4539 34.5632 93.8592 25.7613 93.8592 17.8467C93.8592 9.927 90.4539 0.801358 83.0204 0.801358C75.5921 0.801358 72.1894 9.82731 72.1894 17.7444ZM80.9872 4.7952C80.9872 2.83841 81.9547 2.20147 83.0204 2.20147C84.0874 2.20147 85.0439 2.83841 85.0439 4.7952V30.482C85.0439 32.4388 84.0874 33.156 83.0204 33.156C81.9547 33.156 80.9872 32.4395 80.9872 30.482V4.7952ZM100.286 8.05371H99.4682L99.4527 28.8935C99.4527 31.161 100.774 32.1611 102.636 32.1779C102.714 32.2614 102.661 33.7658 102.661 33.7658H94.6702V32.1961C95.8271 32.1961 97.8732 31.9896 97.8732 28.9291L97.8803 3.19443H95.4787V1.70693H106.534L109.102 12.5939L111.668 1.70693L123.531 1.70305V3.15365H121.087L121.129 32.1553H123.531V33.7146H109.889V32.1553H112.31V8.03623H111.668L106.695 33.7282L105.962 33.7146L100.286 8.05371ZM168.398 12.8489H167.668C167.365 7.50027 165.332 2.39631 162.429 2.39631C159.77 2.39631 158.782 5.64575 158.782 10.3516V23.8854C158.782 28.9563 159.246 32.1689 162.071 32.1689C165.799 32.1689 167.832 25.9516 168.423 21.7227H169.241C168.975 27.1316 166.674 34.5963 160.398 34.5963C153.835 34.5963 149.188 28.2598 149.188 17.7328C149.188 8.58903 153.743 0.801358 160.35 0.801358C161.649 0.801358 164.648 1.35286 165.923 2.56201L167.919 0H168.398V12.8489ZM178.88 3.19961C174.813 3.19961 172.513 8.06083 172.513 12.8625H171.663V1.68039L194.905 1.70693V12.8632H194.056C194.056 8.4641 192.092 3.19766 187.663 3.19766V32.1805H190.899V33.7146H175.711V32.1805H178.88V3.19961ZM198.953 3.18925H196.536V1.70693H209.382V3.18925H207.747V20.8949H208.389L211.79 4.85993V3.1763H210.155V1.70693H223V3.18925H220.533V32.1754H223V33.7146H210.154V32.1754H211.789L211.739 13.6988H211.096L207.697 30.5759V32.1249L209.338 32.1754V33.7146H196.55V32.1812H198.953V3.18925ZM125.136 17.7444C125.136 25.6609 128.538 34.5632 135.966 34.5632C143.4 34.5632 146.805 25.7613 146.805 17.8467C146.805 9.927 143.4 0.801358 135.966 0.801358C128.537 0.801358 125.136 9.82731 125.136 17.7444ZM133.932 4.7952C133.932 2.83841 134.9 2.20147 135.966 2.20147C137.033 2.20147 137.99 2.83841 137.99 4.7952V30.482C137.99 32.4388 137.034 33.156 135.966 33.156C134.9 33.156 133.932 32.4395 133.932 30.482V4.7952Z" fill="#0559BB"/>
</svg>
