<svg width="223" height="37" viewBox="0 0 223 37" fill="none" xmlns="http://www.w3.org/2000/svg">
<path d="M87.4656 3.37146C87.468 2.70221 87.6695 2.04871 88.0445 1.4936C88.4196 0.938504 88.9513 0.506724 89.5725 0.252871C90.1937 -0.000982348 90.8765 -0.0655081 91.5344 0.0674534C92.1925 0.200415 92.7961 0.524892 93.2691 0.999851C93.7421 1.47481 94.0633 2.07892 94.1918 2.73579C94.3203 3.39266 94.2507 4.07279 93.9915 4.69017C93.7323 5.30754 93.2953 5.83443 92.7357 6.20422C92.1761 6.57401 91.5191 6.77009 90.8477 6.76764C90.402 6.76603 89.9608 6.6769 89.5496 6.50535C89.1384 6.3338 88.7651 6.08318 88.4511 5.76782C88.1369 5.45246 87.8883 5.07852 87.7192 4.66734C87.5502 4.25617 87.4639 3.81584 87.4656 3.37146ZM144.331 29.343C145.005 29.3455 145.665 29.1484 146.227 28.7767C146.788 28.4049 147.227 27.8754 147.487 27.255C147.746 26.6347 147.816 25.9515 147.685 25.2919C147.555 24.6322 147.232 24.0259 146.756 23.5497C146.281 23.0735 145.674 22.7489 145.012 22.6168C144.35 22.4848 143.665 22.5513 143.042 22.808C142.419 23.0646 141.886 23.5 141.511 24.0587C141.137 24.6175 140.936 25.2746 140.936 25.9468C140.936 26.8454 141.293 27.7074 141.93 28.3439C142.565 28.9804 143.429 29.3397 144.331 29.343ZM31.8394 8.29901C29.7493 8.32095 27.7125 8.95882 25.9852 10.1323C24.2581 11.3058 22.9177 12.9624 22.1331 14.8937C21.3484 16.8249 21.1545 18.9444 21.5757 20.9853C21.997 23.0262 23.0145 24.8972 24.5003 26.3629C25.9859 27.8284 27.8735 28.8231 29.9251 29.2216C31.9767 29.6201 34.1008 29.4046 36.0299 28.6023C37.9589 27.7999 39.6067 26.4466 40.7658 24.7126C41.9247 22.9787 42.5433 20.9417 42.5434 18.8581C42.589 17.4497 42.3425 16.047 41.8193 14.7379C41.296 13.429 40.5073 12.2417 39.5026 11.2505C38.4977 10.2593 37.2985 9.48557 35.9799 8.97771C34.6614 8.46984 33.2518 8.23878 31.8394 8.29901ZM31.8394 24.4772C28.9281 24.4772 26.8839 22.1678 26.8839 18.8581C26.8839 15.5483 28.9157 13.2389 31.8394 13.2389C34.7632 13.2389 36.795 15.5483 36.795 18.8581C36.795 22.1678 34.8252 24.4772 31.8394 24.4772ZM80.8994 19.3891C80.6914 18.9712 80.4197 18.588 80.0942 18.2529L79.9083 18.0553L80.1066 17.8701C80.4183 17.5339 80.7041 17.1748 80.9614 16.7957L86.4001 8.70656H79.7968L75.6961 15.042C75.5209 15.2324 75.3021 15.378 75.0583 15.4661C74.8146 15.5543 74.5531 15.5825 74.2962 15.5483H73.367V3.58141C73.367 1.19791 71.8679 0.864462 70.2574 0.864462H67.4947V29.1084H73.3546V20.6364H73.8997C74.5687 20.6364 75.0271 20.7105 75.2377 21.081L78.4836 27.1201C78.7652 27.7856 79.2623 28.3381 79.8953 28.6895C80.5285 29.0408 81.2614 29.1709 81.9773 29.059H86.4744L83.1171 23.5386L80.8994 19.3891ZM109.357 8.24961C108.248 8.2251 107.145 8.43218 106.121 8.85756C105.097 9.28293 104.174 9.91719 103.41 10.7196L103.051 11.0777L102.927 10.5837C102.736 9.97616 102.335 9.4561 101.795 9.11667C101.254 8.77724 100.61 8.64062 99.9783 8.73125H97.3395V29.096H103.187V19.7102C103.168 18.8728 103.29 18.0379 103.546 17.2403C103.816 16.2031 104.429 15.2869 105.285 14.6393C106.142 13.9918 107.192 13.6507 108.266 13.6712C110.075 13.6712 110.744 14.6221 110.744 17.1044V25.9839C110.676 26.4064 110.709 26.839 110.842 27.246C110.974 27.6532 111.201 28.0232 111.504 28.3258C111.808 28.6285 112.179 28.8548 112.588 28.9866C112.996 29.1184 113.43 29.1516 113.854 29.0837H116.604V16.1288C116.641 10.9789 114.126 8.24961 109.357 8.24961ZM90.9221 8.70656H88.1717V29.1084H93.9945V11.8187C94.0607 11.3993 94.0272 10.9703 93.897 10.5661C93.7668 10.162 93.5433 9.79382 93.2446 9.49123C92.9459 9.18867 92.5802 8.96007 92.1768 8.8238C91.7735 8.68754 91.3438 8.64739 90.9221 8.70656ZM54.7093 8.29901C52.6192 8.32095 50.5823 8.95882 48.8551 10.1323C47.128 11.3058 45.7876 12.9624 45.003 14.8937C44.2183 16.8249 44.0244 18.9444 44.4456 20.9853C44.8669 23.0262 45.8844 24.8972 47.3702 26.3629C48.8558 27.8284 50.7434 28.8231 52.795 29.2216C54.8466 29.6201 56.9707 29.4046 58.8997 28.6023C60.8288 27.7999 62.4765 26.4466 63.6357 24.7126C64.7946 22.9787 65.4132 20.9417 65.4133 18.8581C65.4589 17.4497 65.2124 16.047 64.6892 14.7379C64.1659 13.429 63.3772 12.2417 62.3725 11.2505C61.3676 10.2593 60.1684 9.48557 58.8498 8.97771C57.5313 8.46984 56.1217 8.23878 54.7093 8.29901ZM54.7093 24.4772C51.7979 24.4772 49.7538 22.1678 49.7538 18.8581C49.7538 15.5483 51.7856 13.2389 54.7093 13.2389C57.6331 13.2389 59.6649 15.5483 59.6649 18.8581C59.6649 22.1678 57.6951 24.4772 54.7093 24.4772ZM179.503 8.29901C177.413 8.32095 175.376 8.95882 173.649 10.1323C171.921 11.3058 170.581 12.9624 169.796 14.8937C169.012 16.8249 168.817 18.9444 169.238 20.9853C169.66 23.0262 170.678 24.8972 172.163 26.3629C173.649 27.8284 175.537 28.8231 177.589 29.2216C179.64 29.6201 181.764 29.4046 183.693 28.6023C185.621 27.7999 187.27 26.4466 188.429 24.7126C189.588 22.9787 190.207 20.9417 190.207 18.8581C190.252 17.4497 190.006 16.047 189.482 14.7379C188.959 13.429 188.171 12.2417 187.165 11.2505C186.16 10.2593 184.961 9.48557 183.643 8.97771C182.325 8.46984 180.915 8.23878 179.503 8.29901ZM179.503 24.4772C176.591 24.4772 174.547 22.1678 174.547 18.8581C174.547 15.5483 176.579 13.2389 179.503 13.2389C182.426 13.2389 184.458 15.5483 184.458 18.8581C184.458 22.1678 182.488 24.4772 179.503 24.4772ZM135.956 8.65716C135.48 8.61129 135.002 8.70347 134.577 8.92258C134.153 9.14169 133.801 9.47839 133.565 9.89213L133.416 10.2009L133.143 9.96623C131.636 8.73552 129.725 8.10232 127.779 8.18787C122.34 8.18787 118.661 12.2756 118.661 18.3517C118.661 24.4278 122.464 28.6638 127.891 28.6638C129.49 28.7368 131.068 28.2761 132.375 27.3547L132.821 27.0089V27.577C132.821 30.3063 131.05 31.813 127.866 31.813C126.529 31.7944 125.205 31.5481 123.951 31.0843C123.711 30.9624 123.445 30.8985 123.176 30.8975C122.906 30.8965 122.64 30.9586 122.399 31.0786C122.158 31.1988 121.949 31.3737 121.788 31.5891C121.627 31.8046 121.519 32.0546 121.473 32.3193L120.346 35.135L120.755 35.345C122.971 36.4435 125.415 37.0101 127.891 36.9999C132.846 36.9999 138.632 34.4558 138.632 27.33V8.65716H135.956ZM128.919 23.588C125.747 23.588 124.607 20.8093 124.607 18.2159C124.607 17.0674 124.892 13.276 128.609 13.276C130.455 13.276 132.933 13.7947 132.933 18.3394C132.933 22.6865 130.752 23.588 128.919 23.588ZM16.2171 14.6221L15.3622 14.1528L16.1056 13.5353C16.8616 12.8726 17.4623 12.0524 17.8648 11.1325C18.2673 10.2126 18.4618 9.21576 18.4347 8.21256C18.4347 3.76665 14.9782 0.901512 9.65094 0.901512H2.86183C2.10123 0.929867 1.38051 1.24791 0.848101 1.79012C0.315695 2.33233 0.0121538 3.05743 0 3.81605V29.0096H9.76244C15.6967 29.0096 19.5373 25.7863 19.5373 20.7846C19.5873 19.5553 19.3056 18.3352 18.7216 17.2512C18.1377 16.1673 17.2727 15.2595 16.2171 14.6221ZM5.41394 7.49628C5.41394 6.1872 5.97144 5.56972 7.18556 5.49562H9.66333C10.1105 5.45563 10.561 5.5142 10.9829 5.66719C11.4048 5.82018 11.7877 6.06384 12.1046 6.38087C12.4215 6.69792 12.6644 7.08057 12.8163 7.5017C12.9682 7.92283 13.0253 8.37212 12.9836 8.8177C13.0324 9.27007 12.9824 9.72763 12.8369 10.1589C12.6914 10.5901 12.4538 10.9848 12.1407 11.3158C11.8275 11.6468 11.4461 11.9062 11.0227 12.0761C10.5993 12.2461 10.144 12.3226 9.68811 12.3003H5.41394V7.49628ZM10.1589 24.2426H5.41394V18.5864C5.41394 17.3514 5.89711 16.7463 6.92539 16.5981H10.1589C11.1381 16.6535 12.059 17.0804 12.7326 17.7912C13.4061 18.5019 13.7814 19.4426 13.7814 20.4203C13.7814 21.398 13.4061 22.3387 12.7326 23.0495C12.059 23.7602 11.1381 24.187 10.1589 24.2426ZM216.223 8.31136C215.019 8.3159 213.832 8.59017 212.749 9.11391C211.667 9.63765 210.715 10.3974 209.967 11.3371L209.546 11.8804L209.211 11.2753C208.675 10.3059 207.869 9.51088 206.892 8.9853C205.914 8.45972 204.806 8.22575 203.698 8.31136C202.687 8.32778 201.689 8.54982 200.767 8.96391C199.844 9.378 199.016 9.97541 198.334 10.7196L197.789 11.3124L197.578 10.5343C197.383 9.95577 196.993 9.46339 196.472 9.14293C195.951 8.82248 195.334 8.69428 194.729 8.78065H192.251V29.096H197.776V20.1301C197.784 19.3309 197.884 18.5354 198.074 17.7589C198.606 15.5854 200.068 13.2513 202.521 13.4859C204.033 13.6341 204.776 14.795 204.776 17.055V29.096H210.376V20.1301C210.352 19.2959 210.456 18.463 210.685 17.6601C211.131 15.5977 212.655 13.4736 215.022 13.4736C216.731 13.4736 217.363 14.4369 217.363 17.0427V26.1321C217.363 28.1821 218.28 29.096 220.336 29.096H223V16.1288C223 10.9419 220.708 8.31136 216.223 8.31136ZM165.627 22.0443C164.165 23.5695 162.187 24.4983 160.077 24.6501C159.312 24.6962 158.546 24.5809 157.828 24.312C157.111 24.043 156.459 23.6263 155.914 23.0891C155.369 22.5519 154.944 21.9062 154.667 21.1941C154.389 20.4822 154.265 19.7198 154.304 18.9569C154.239 18.204 154.335 17.4459 154.584 16.7324C154.834 16.0189 155.232 15.3661 155.752 14.8167C156.273 14.2675 156.904 13.8342 157.605 13.5452C158.305 13.2562 159.058 13.1181 159.817 13.1401C160.857 13.1401 162.047 13.5106 162.232 14.1405V14.2516C162.354 14.6821 162.614 15.0613 162.972 15.331C163.329 15.6008 163.766 15.7465 164.215 15.7459H167.25V13.0907C167.25 9.58339 162.778 8.31136 159.817 8.31136C153.387 8.31136 148.667 12.7943 148.667 18.9445C148.667 25.0947 153.288 29.59 159.643 29.59C161.276 29.573 162.888 29.2222 164.379 28.5594C165.871 27.8967 167.212 26.936 168.315 25.7369L166.011 21.6985L165.627 22.0443Z" fill="#0559BB"/>
</svg>
