<svg width="588" height="427" viewBox="0 0 588 427" fill="none" xmlns="http://www.w3.org/2000/svg">
<path d="M0 284.901C1.1 283.201 1.1 280.901 2.6 279.301C4.9 276.801 7.9 276.301 11.1 276.301C42.1 276.301 73 276.301 104 276.301C107.2 276.301 111.2 274.901 113.3 277.001C115.1 278.901 113.8 282.901 113.8 286.001C113.8 312.901 113.8 339.701 113.9 366.601C113.9 369.101 113.4 370.101 110.7 370.001C102.2 369.801 93.6 369.801 85.1 370.001C82.4 370.101 82 369.001 82 366.701C82.1 343.301 82 319.901 82.1 296.401C82.1 292.101 82.1 292.101 77.7 292.101C68.9 292.101 60.2 292.201 51.4 292.001C48.8 292.001 48 292.701 48.1 295.301C48.2 318.801 48.1 342.401 48.3 365.901C48.3 369.201 47.3 369.901 44.2 369.801C36.1 369.601 28 369.601 19.9 369.801C16.9 369.901 16.3 368.901 16.3 366.001C16.4 342.701 16.3 319.401 16.5 296.101C16.5 292.701 15.6 291.601 12.2 291.901C8.2 292.201 4.2 292.001 0.2 292.001C-1.93715e-07 289.801 0 287.301 0 284.901Z" fill="#0559BB"/>
<path d="M586.6 276.401C587.1 276.301 587.5 276.301 588 276.201C588 281.501 588 286.901 588 292.201C577.4 292.301 566.8 292.301 556.2 292.401C557 291.001 558.4 291.601 559.5 291.601C567.8 291.501 576.1 291.601 584.4 291.501C585.5 291.501 587.2 292.001 587.2 290.101C587.1 285.601 588 281.001 586.6 276.401Z" fill="#0559BB"/>
<path d="M321.3 105.002C325.4 110.702 328 117.302 330.8 123.702C331.4 125.002 331.7 126.302 333.5 125.302C333.7 127.102 333.9 128.802 334.1 130.602C332.6 130.902 333.1 125.402 330.6 129.202C322.5 141.502 317.7 155.202 314.8 169.502C313.9 173.802 314.1 178.302 312.5 182.402C311.2 171.302 309.9 160.202 306.3 149.502C305.3 146.502 304.2 143.402 303.2 140.402C303 139.702 302.8 138.702 301.9 138.602C301 138.602 300.8 139.602 300.5 140.302C297.8 147.502 295.7 154.802 294.1 162.302C292.7 168.702 292.4 175.202 291.2 181.602C290.6 180.802 290.3 179.802 290.2 178.802C289.1 168.902 286.9 159.202 283.4 149.802C280.9 142.802 277.4 136.202 273.6 129.902C273.1 129.102 272.7 127.902 271.5 128.002C270.4 128.202 270.4 129.502 270.1 130.402C269.1 133.302 268 136.202 267.1 139.202C264.2 149.002 261.6 159.002 260.8 169.302C260.4 173.702 259.6 178.002 259 182.302C258 177.802 257 173.302 255.9 168.802C252.6 154.802 244.9 143.302 236 132.402C226.7 121.102 217 110.202 206.6 99.9016C204.4 97.8016 204.4 96.5016 206.6 94.4016C212.6 88.7016 218.5 82.8015 224.3 76.8015C226 75.1015 227 74.8016 228.8 76.7016C243.2 91.8016 257.5 106.802 269.5 124.002C270.9 126.002 271.9 126.102 272.9 123.702C275.3 117.602 278.2 111.802 281.5 106.102C282.6 104.302 282 103.002 281 101.602C280.3 100.802 279.2 100.302 278.9 99.1016C280.4 98.8016 282.7 100.702 283.4 98.1016C283.9 96.5016 283.5 94.6016 283.5 92.6016C283.8 92.9016 284.1 93.0015 284.3 93.3015C284.8 93.9015 285 95.3016 286.1 94.9016C287.6 94.4016 286.5 93.3016 286.4 92.4016C286.3 91.6016 286.2 90.4016 287.2 90.6016C291.9 91.3016 290.4 87.7016 290.9 85.5016C291.3 83.7016 290.8 81.5016 292.9 80.4016C293.1 81.8016 292.6 83.3016 293.7 84.6016C293.2 83.2016 297.1 81.2016 292.9 80.4016C293.8 78.2016 294.6 76.0016 297.7 77.0016C298.2 77.2016 298.9 77.2016 299.1 76.6016C299.4 76.0016 298.9 75.4016 298.3 75.4016C295.3 75.2016 296.9 73.2015 296.8 71.8015C297.5 72.5015 298.2 73.1016 298.9 73.9016C301.7 77.2016 301.7 77.2015 304.6 73.8015C314.8 61.7015 325.9 50.5015 337.1 39.3015C338.5 37.9015 339.7 37.6016 341.3 39.2016C347.4 45.4016 353.6 51.6015 359.8 57.8015C361.3 59.3015 361.6 60.2015 359.9 61.8015C346.5 74.8015 333.5 88.3016 321.9 103.002C321.8 103.202 321.5 103.202 321.3 103.302C319.8 103.002 319.4 101.602 318.7 100.502C313.9 93.2016 308.9 86.1015 303.3 79.3015C302.1 77.9015 301.5 77.5016 300.1 79.1016C294.3 86.1016 289.3 93.6016 284.2 101.102C282.7 103.302 282.9 105.002 284.5 107.002C291.1 115.502 296.5 124.802 300.8 134.602C301 135.102 301.1 135.802 301.7 135.902C302.6 136.002 302.6 135.202 302.9 134.602C306.3 126.602 310.4 119.102 315.4 112.002C317.3 109.602 318.6 106.702 321.3 105.002Z" fill="#0559BB"/>
<path d="M441 333.601C431.2 333.601 421.5 333.701 411.7 333.601C409.2 333.601 408 334.101 408.2 336.901C408.4 340.401 408.2 344.001 408.3 347.501C408.3 351.701 410.5 354.001 414.8 354.201C419.3 354.401 423.9 354.301 428.4 354.301C440.9 354.301 453.5 354.501 466 354.201C469.5 354.101 470.5 355.301 470.1 358.501C469.9 359.701 470.1 360.901 470 362.201C469.5 366.301 466.9 369.201 462.8 369.801C461.1 370.101 459.3 370.101 457.5 370.101C442.1 370.101 426.7 369.901 411.2 370.001C402.8 370.001 395.8 367.301 390.6 360.501C386.9 355.701 383.2 350.801 379.5 345.901C378.2 344.101 377.1 342.001 377.1 339.801C377.2 327.701 376 315.601 378.1 303.601C380.6 289.401 389.7 280.401 403.9 277.601C411 276.201 418.2 276.401 425.4 276.401C432.9 276.401 440.5 276.501 448 276.701C454.2 276.801 459.5 279.101 463.7 283.601C468.9 289.101 473.3 295.301 477.5 301.501C478.8 303.501 479.4 305.701 479.4 308.101C479.4 313.601 479.5 319.201 479.4 324.701C479.3 330.501 476 333.701 470.1 333.701C460.5 333.601 450.8 333.601 441 333.601ZM428 318.201C433.9 318.201 439.8 318.101 445.6 318.201C447.6 318.201 448.3 317.501 448.3 315.501C448.2 310.101 448.3 304.601 448.3 299.201C448.3 294.401 446.8 292.501 441.9 292.101C433.7 291.401 425.5 291.601 417.3 292.101C411.3 292.501 408.5 295.401 408.2 301.401C408 306.201 408.2 310.901 408.1 315.701C408.1 317.601 408.8 318.201 410.6 318.201C416.5 318.101 422.3 318.201 428 318.201Z" fill="#0559BB"/>
<path d="M186.4 276.602C192.4 276.602 198.4 276.602 204.4 276.602C210.8 276.602 216.3 279.002 220.7 283.702C225.7 289.102 229.9 295.102 234.2 301.002C235.3 302.502 236.1 304.302 236.2 306.202C236.3 316.802 237.1 327.602 235.9 338.102C233.7 357.902 223.4 367.802 203.5 369.402C190 370.502 176.5 370.302 162.9 369.402C158 369.102 153.7 367.002 150.2 363.502C144.7 357.902 140.2 351.402 135.7 344.902C134.8 343.602 134 342.202 134 340.602C133.9 328.802 132.8 317.002 134.5 305.402C136.9 288.602 146.7 279.302 163.6 277.002C171.1 276.002 178.7 276.402 186.4 276.602ZM165.9 352.102C166.1 352.302 166.4 352.602 166.6 352.802C166.8 352.902 167 353.102 167.2 353.202C168.1 355.402 170.1 355.402 171.9 355.402C179.9 355.502 187.9 355.502 195.9 355.402C196.9 355.402 198.3 355.702 198.4 354.002C200 353.902 202.2 354.802 202.3 351.902C202.5 351.602 202.8 351.402 203 351.102C204.7 348.102 205.1 344.902 205.1 341.502C205 327.402 205 313.302 205 299.202C205 294.002 203.1 291.902 197.8 291.902C190.7 291.802 183.6 291.902 176.5 291.902C167.5 291.902 165.1 294.102 164.5 302.702C163.6 303.302 163.8 304.202 163.8 305.102C163.8 319.102 163.8 333.102 163.8 347.102C163.8 348.502 164 349.702 165.1 350.702L165.2 350.802L165.1 351.002C165.4 351.502 165.7 351.802 165.9 352.102Z" fill="#0559BB"/>
<path d="M351.9 323.302C351.9 337.702 351.8 352.202 352 366.602C352 369.102 351.6 370.102 348.8 370.102C340.3 369.902 331.7 370.002 323.2 370.102C320.8 370.102 320.2 369.302 320.3 367.002C320.4 359.202 320.2 351.502 320.4 343.702C320.5 341.002 319.8 340.102 316.9 340.102C305.9 340.102 294.9 340.402 284 339.902C276.4 339.602 270.4 336.302 265.7 330.402C262.1 325.802 258.5 321.102 255 316.402C252.8 313.502 251.8 310.202 251.8 306.502C251.9 297.402 251.9 288.302 251.8 279.202C251.8 277.002 252.4 276.302 254.6 276.402C263.3 276.502 271.9 276.502 280.6 276.402C283.3 276.302 283.7 277.402 283.7 279.702C283.6 292.102 283.7 304.602 283.7 317.002C283.7 321.902 285.7 324.202 290.7 324.302C299.9 324.502 309.1 324.302 318.3 324.402C320.9 324.402 320.4 322.702 320.4 321.202C320.4 307.702 320.5 294.102 320.3 280.602C320.3 277.302 321 276.202 324.5 276.402C332.6 276.702 340.7 276.602 348.8 276.402C351.9 276.302 352.4 277.402 352.4 280.202C352.3 294.602 352.3 309.002 352.3 323.502C352.1 323.302 352 323.302 351.9 323.302Z" fill="#0559BB"/>
<path d="M586.6 276.401C588.1 280.901 587.1 285.601 587.2 290.201C587.3 292.101 585.5 291.601 584.4 291.601C576.1 291.601 567.8 291.601 559.5 291.701C558.4 291.701 557 291.101 556.2 292.501C556.1 298.701 556 304.901 556 311.101C556 329.601 555.9 348.101 556 366.601C556 369.101 555.4 370.101 552.7 370.001C544.3 369.801 535.8 369.801 527.4 370.001C524.7 370.101 524.1 369.201 524.1 366.601C524.2 343.301 524.2 320.001 524.2 296.701C524.2 292.201 524.2 292.201 519.8 292.201C510.8 292.201 501.8 292.101 492.9 292.201C490.8 292.201 490 291.701 490.1 289.501C490.2 284.901 489.9 280.301 494.7 277.601C495.6 277.701 496.4 277.701 496.9 276.801C497.7 276.701 498.6 276.601 499.4 276.501C499.7 276.901 499.9 276.901 500.2 276.501C529 276.401 557.8 276.401 586.6 276.401Z" fill="#0559BB"/>
<path d="M334.2 130.501C334 128.701 333.8 127.001 333.6 125.201C338.3 116.901 344.9 110.001 351 102.801C358.5 94.0015 366.4 85.7015 374.3 77.3015C376.7 74.8015 378 75.4015 380 77.5015C385.9 83.9015 392.4 89.7015 398.1 96.4015C398.1 97.0015 398.1 97.7015 398.1 98.3015L398 98.4015C397.8 98.6015 397.6 98.8015 397.4 99.0015H397.3C396.5 99.0015 396 99.4015 396 100.301L395.9 100.401C395 100.401 394.6 100.901 394.7 101.701C394.5 101.901 394.3 102.101 394.1 102.301C393.2 102.301 392.8 102.701 392.8 103.601C390.8 103.901 389.7 105.101 389.4 107.101C389.2 107.301 389.1 107.401 388.9 107.601C387.2 107.501 386.7 108.501 386.7 110.001L386.5 110.201C386 110.301 385.5 110.401 385.5 111.101C385.5 111.101 385.6 111.001 385.5 111.001C384.4 111.101 384 111.901 384 112.901C383.8 113.101 383.5 113.401 383.3 113.601C383.1 113.801 382.9 114.001 382.7 114.201L382.6 114.301C381.7 114.301 381.3 114.801 381.4 115.701C381.2 116.001 381 116.201 380.7 116.501C380.7 116.701 380.6 116.901 380.4 117.001C378.6 116.901 377.9 117.901 378 119.601V119.701C377.1 119.701 376.7 120.201 376.8 121.101C376.6 121.301 376.4 121.601 376.1 121.801C375.4 122.001 374.9 122.401 374.8 123.201C374.2 123.301 374 123.801 374 124.301L373.9 124.401C372.7 124.501 372 125.201 372.1 126.401C371.9 126.701 371.7 127.001 371.5 127.301C367.7 132.201 363.9 137.101 360.2 142.001C356.4 147.101 353.6 152.701 350.8 158.301C346.6 161.301 346.7 165.801 346.9 170.301C346.8 170.701 346.8 171.202 346.7 171.602C345.4 171.402 345.7 173.301 344.4 173.201C343.6 163.701 342.1 154.301 339.5 145.101C339.1 143.801 339.3 142.401 341.2 142.201C342.2 142.001 342.1 141.101 342.1 140.301C342.1 139.501 341.6 138.901 340.9 139.101C339.1 139.501 337.9 137.901 336.2 137.701C336.2 137.501 336.1 137.301 336.2 137.101C336 136.901 335.8 136.701 335.6 136.401C335.6 136.001 335.5 135.501 335.5 135.101C336.4 133.701 338.5 132.101 334.8 131.801C334.7 131.301 334.5 130.901 334.2 130.501Z" fill="#0559BB"/>
<path d="M335.6 135.101C335.6 135.501 335.7 136.001 335.7 136.401C335.9 136.601 336.1 136.801 336.3 137.101C336.3 137.301 336.3 137.501 336.3 137.701C338.7 147.201 341.6 156.601 342.5 166.401C343 171.701 344 177.001 344.8 182.301C344.8 183.001 344.7 183.701 344.7 184.401C344.3 184.801 344.3 185.201 344.5 185.601C344.5 195.001 344.4 204.401 344.5 213.901C344.5 216.001 344 216.801 341.7 216.801C332.9 216.701 324.2 216.801 315.4 216.701C314 216.701 312.2 217.101 312.7 214.601C313.2 206.401 313.1 198.201 312.7 190.001C312.7 188.101 312.6 186.201 312.6 184.301C312.7 184.201 312.8 184.201 312.8 184.101C312.8 183.901 312.7 183.801 312.6 183.701C312.6 183.301 312.6 182.801 312.6 182.401C314.3 178.301 314.1 173.801 314.9 169.501C317.8 155.101 322.6 141.501 330.7 129.201C333.2 125.401 332.7 130.901 334.2 130.601C334.4 131.001 334.6 131.401 334.8 131.801C335 132.901 334.6 134.101 335.6 135.101Z" fill="#0559BB"/>
<path d="M259.1 182.302C259.7 178.002 260.6 173.702 260.9 169.302C261.8 159.002 264.3 149.102 267.2 139.202C268.1 136.202 269.2 133.302 270.2 130.402C270.5 129.502 270.5 128.202 271.6 128.002C272.7 127.802 273.2 129.002 273.7 129.902C277.5 136.302 281 142.902 283.5 149.802C286.9 159.202 289.2 168.802 290.3 178.802C290.4 179.802 290.7 180.702 291.3 181.602C291.3 186.602 291.2 191.602 291.2 196.602C290.9 202.702 290.9 208.802 291.2 214.902C291.5 216.502 290.6 216.802 289.3 216.802C280.1 216.802 271 216.802 261.8 216.802C259.7 216.802 259.5 215.702 259.5 214.102C259.5 204.702 259.5 195.302 259.5 185.902C259.5 185.802 259.6 185.702 259.6 185.602C259.5 185.402 259.4 185.202 259.3 185.002C259.3 184.202 259.2 183.202 259.1 182.302Z" fill="#0559BB"/>
<path d="M293 80.5016C290.8 81.6016 291.4 83.8016 291 85.6016C290.5 87.8016 292 91.4016 287.3 90.7016C286.3 90.6016 286.4 91.7016 286.5 92.5016C286.6 93.4016 287.7 94.5016 286.2 95.0016C285.1 95.4016 285 94.0016 284.4 93.4016C284.2 93.2016 283.9 93.0016 283.6 92.7016C283.6 94.7016 284 96.5016 283.5 98.2016C282.8 100.802 280.5 98.9016 279 99.2016V99.1016C279 98.0016 279.5 97.4016 280.5 96.8016C281.3 96.3016 281.3 95.1016 280.8 94.4016C280 93.4016 279.5 94.5016 279.1 95.0016C278.1 96.2016 277.5 95.4016 276.8 94.6016C276 93.6016 275.3 92.3016 273.6 92.5016C273.7 91.1016 273 90.4016 271.6 90.4016C271.4 90.2016 271.2 90.0016 271 89.8016C270.8 89.5016 270.6 89.3016 270.3 89.0016C270.4 85.8016 268.3 84.5016 265.7 83.6016C258.3 76.0016 250.8 68.5016 243.3 61.0016C242 59.7016 242.2 58.9016 243.4 57.7016C249.8 51.3016 256.2 44.9016 262.6 38.4016C263.5 37.5016 264.4 37.1016 265.4 38.1016C268.7 41.8016 272.7 44.8016 275.7 48.8016C275.7 50.2016 276.3 50.9016 277.7 50.9016C277.6 51.9016 278.1 52.3016 279 52.2016C278.9 53.6016 279.6 54.2016 281 54.2016C280.7 56.2016 281.6 57.1016 283.6 56.9016C283.8 57.1016 284 57.4016 284.2 57.6016C284.1 59.0016 284 60.5016 285.9 61.0016C286.7 61.2016 287 61.8016 286.5 62.5016C284.9 64.7016 284.7 65.5016 287.7 64.0016C288.3 63.7016 289.4 64.1016 290.2 64.2016C290.2 68.1016 290.6 68.6016 294.3 68.7016H294.1H294.3C293.8 70.3016 294.5 71.0016 296.1 70.8016C296.3 71.0016 296.5 71.2016 296.7 71.5016C296.8 72.8016 295.1 74.9016 298.2 75.1016C298.7 75.1016 299.2 75.7016 299 76.3016C298.8 76.9016 298.1 76.9016 297.6 76.7016C294.7 76.1016 293.9 78.3016 293 80.5016ZM288.1 72.9016C288.3 72.7016 288.7 72.4016 288.8 72.0016C288.9 71.5016 288.5 71.2016 288 71.2016C287.5 71.2016 287.2 71.5016 287.2 72.0016C287.1 72.6016 287.4 72.9016 288.1 72.9016ZM293.4 74.0016C293.2 73.9016 292.8 73.5016 292.5 73.5016C291.9 73.4016 291.8 73.9016 291.9 74.4016C291.9 74.9016 292.3 75.1016 292.8 75.1016C293.3 75.0016 293.4 74.7016 293.4 74.0016ZM278.8 55.0016C278.6 54.9016 278.4 54.7016 278.3 54.8016C278.2 54.9016 278.1 55.1016 278 55.3016C278.2 55.4016 278.4 55.6016 278.5 55.5016C278.6 55.4016 278.7 55.2016 278.8 55.0016Z" fill="#0559BB"/>
<path d="M321.3 105.002C318.6 106.702 317.3 109.602 315.5 112.002C310.5 119.002 306.3 126.602 303 134.602C302.8 135.202 302.7 136.002 301.8 135.902C301.2 135.802 301.1 135.102 300.9 134.602C296.6 124.702 291.2 115.502 284.6 107.002C283 105.002 282.9 103.202 284.3 101.102C289.4 93.6017 294.4 86.1017 300.2 79.1017C301.6 77.4017 302.3 77.8017 303.4 79.3017C309 86.0017 314 93.2017 318.8 100.502C319.5 101.602 319.9 103.002 321.4 103.302C321.5 103.802 321.4 104.402 321.3 105.002Z" fill="#0559BB"/>
<path d="M324 22.2014C323.4 22.9014 323 23.5014 322.4 24.0014C316.1 30.3014 309.8 36.5014 303.6 42.8014C302.3 44.2014 301.4 44.1014 300.1 42.8014C293.7 36.3014 287.3 29.9014 280.9 23.5014C279.7 22.3014 279.6 21.5014 280.9 20.2014C287.4 13.8014 293.8 7.40143 300.2 1.00143C301.2 0.00142944 301.9 -0.498566 303.2 0.701434C309.8 7.40143 316.5 14.0014 323.1 20.7014C323.5 21.2014 323.7 21.8014 324 22.2014Z" fill="#0559BB"/>
<path d="M470 407.301C470 406.301 470 405.301 470 404.301C470.4 397.601 473.3 395.501 479.9 397.401C481.5 397.901 482.2 397.601 482.2 395.901C482.2 394.101 482.3 392.301 482.2 390.601C482.1 388.601 483.4 388.201 484.9 388.201C486.8 388.201 486.1 389.701 486.2 390.601C486.3 391.401 486.2 392.101 486.2 392.901C486.3 394.401 485.8 396.401 486.5 397.401C487.7 399.001 489.1 396.801 490.6 396.701C494.8 396.301 497.2 397.801 498.1 401.801C498.9 405.301 498.9 408.901 498.2 412.401C497.2 417.501 493.6 419.601 488.9 417.501C486.2 416.301 485.9 417.301 486 419.601C486.1 421.001 486 422.501 486 423.901C486.1 425.401 485.7 426.101 484 426.101C482.4 426.101 481.8 425.501 481.9 423.901C481.9 423.501 481.9 423.001 481.9 422.601C481.9 420.801 482.4 418.601 481.6 417.401C480.5 415.801 478.8 418.001 477.2 418.101C473.2 418.401 470.5 416.501 469.9 412.501C469.6 410.801 469.7 409.001 469.6 407.201C469.9 407.301 469.9 407.301 470 407.301ZM482 407.001C481.6 405.401 483 403.001 481.3 401.601C479.9 400.501 477.8 400.301 475.9 400.901C474.2 401.501 474.4 403.201 474.3 404.601C474.2 406.201 474.3 407.901 474.3 409.601C474.3 411.901 474.4 414.101 477.7 414.001C481.3 413.901 482 413.201 482.1 409.601C482 408.801 482 408.101 482 407.001ZM486.3 407.301C486.3 408.001 486.3 408.601 486.3 409.301C486.3 413.301 486.9 413.901 490.7 414.101C494.3 414.301 494.1 411.801 494.2 409.401C494.2 407.901 494.1 406.301 494.2 404.801C494.3 402.301 493.6 400.701 490.7 400.901C488 401.101 485.8 401.601 486.4 405.101C486.3 405.701 486.2 406.501 486.3 407.301Z" fill="#0559BB"/>
<path d="M16.0998 402.801C16.0998 398.901 16.1998 395.001 16.0998 391.201C15.9998 389.201 16.5998 388.401 18.6998 388.501C22.8998 388.601 27.0998 388.501 31.2998 388.501C32.7998 388.501 33.4998 388.901 33.5998 390.501C33.5998 392.201 32.7998 392.501 31.3998 392.501C28.6998 392.401 26.0998 392.601 23.3998 392.501C21.4998 392.401 20.3998 393.001 20.6998 395.101C20.6998 395.201 20.6998 395.301 20.6998 395.401C20.6998 402.501 20.0998 401.401 26.3998 401.201C34.9998 400.901 36.1998 405.301 35.0998 412.801C34.6998 415.501 32.7998 417.101 30.0998 417.301C26.0998 417.601 22.0998 417.501 18.1998 417.601C16.4998 417.701 16.1998 416.701 16.2998 415.301C16.1998 411.201 16.0998 407.001 16.0998 402.801ZM25.1998 413.601C30.6998 413.601 30.6998 413.501 30.6998 409.301C30.6998 405.301 30.4998 405.101 26.2998 405.101C25.0998 405.101 23.8998 405.101 22.5998 405.101C21.7998 405.101 20.7998 405.001 20.6998 406.001C20.4998 408.301 19.9998 410.801 20.8998 412.901C21.7998 414.501 23.8998 413.401 25.1998 413.601Z" fill="#0559BB"/>
<path d="M268.1 407.101C268.1 404.301 268.1 401.601 268.1 398.801C268.1 396.901 268.9 396.101 270.5 397.701C271.8 399.001 272.7 398.401 274 397.801C276.9 396.301 279.9 395.601 282.6 398.101C283.6 399.001 284.3 398.701 285.3 398.201C286.3 397.701 287.3 397.201 288.3 396.901C293 395.601 296 397.601 296.3 402.501C296.5 406.901 296.3 411.401 296.4 415.801C296.4 417.201 296 417.801 294.5 417.801C293 417.801 292.3 417.401 292.3 415.701C292.4 411.801 292.3 407.901 292.3 404.101C292.3 402.301 292.2 400.701 289.8 400.701C286.3 400.701 284.4 401.901 284.4 404.401C284.4 408.201 284.3 411.901 284.4 415.701C284.4 417.301 283.8 417.801 282.3 417.801C280.6 417.901 280.3 417.101 280.3 415.601C280.4 411.701 280.3 407.801 280.3 404.001C280.3 402.101 279.9 400.301 277.7 400.801C275.7 401.201 272.3 400.201 272.4 404.101C272.4 407.901 272.3 411.601 272.4 415.401C272.4 417.101 271.8 417.801 270.1 417.801C268.4 417.801 268.1 416.901 268.1 415.501C268.1 412.701 268.1 409.901 268.1 407.101Z" fill="#0559BB"/>
<path d="M571.4 409.601C571.4 412.401 571.4 415.101 571.4 417.901C571.3 423.801 569.6 425.701 563.6 426.501C561.4 426.801 559.4 426.201 557.3 426.001C555.5 425.901 555.3 424.501 555.5 423.101C555.7 421.201 557 421.901 558 422.101C559.1 422.301 560.2 422.601 561.3 422.701C566.4 423.101 567.9 421.501 567.4 416.401C567.3 414.801 566.8 414.501 565.4 415.101C564.2 415.601 562.9 416.101 561.6 416.301C559.7 416.601 557.8 416.101 556.3 414.901C553.5 412.701 552.8 404.101 554.9 400.101C556.7 396.801 561.7 395.501 566.2 397.101C567 397.401 567.7 398.401 568.6 397.901C571.7 396.101 571.5 398.201 571.5 400.301C571.5 401.801 571.5 403.401 571.5 405.001C571.4 406.501 571.4 408.001 571.4 409.601ZM567.3 406.501C567.3 405.601 567.4 404.901 567.3 404.301C567.1 403.101 568 401.301 566.2 400.901C563.9 400.501 561.3 399.901 559.1 401.401C558 402.101 557.8 410.001 558.8 411.101C560.5 413.001 562.7 411.801 564.7 411.601C568.5 411.201 566.9 408.301 567.3 406.501Z" fill="#0559BB"/>
<path d="M236.1 407.001C236.1 408.401 236.3 409.901 236.1 411.301C235.4 416.501 232.2 418.801 226.2 417.901C223 417.401 222.3 418.501 222.6 421.301C222.6 421.401 222.6 421.501 222.6 421.601C222 423.101 224.2 426.001 220.5 426.001C217.1 425.901 218.6 423.301 218.6 421.801C218.5 414.401 218.5 407.001 218.5 399.601C218.5 398.801 218.1 397.701 219.1 397.201C220.1 396.601 220.7 397.401 221.3 398.101C221.9 398.801 222.5 398.801 223.3 398.401C233 394.701 236.2 396.901 236.1 407.001ZM231.7 407.501C231.7 400.601 230.5 399.601 224.8 401.401C223.4 401.801 222.8 402.501 222.9 404.001C223 406.501 222.9 409.101 222.9 411.701C222.9 412.701 222.8 413.601 224.2 414.101C229 415.701 231.8 413.901 231.8 409.001C231.7 408.401 231.7 407.901 231.7 407.501Z" fill="#0559BB"/>
<path d="M183.7 407.201C187.1 408.901 188.1 411.301 187.1 414.201C186.2 417.001 183.7 417.401 181.2 417.501C177.9 417.701 173.8 418.901 171.5 417.101C169.3 415.301 170.9 411.101 170.7 407.901C170.6 404.901 170.7 401.901 170.7 398.901C170.7 397.601 171 396.801 172.6 396.801C175.7 396.901 178.8 396.801 181.9 397.001C184.3 397.201 186.6 397.901 187.2 400.601C187.9 403.601 187 405.801 183.7 407.201ZM178.7 414.101C180.7 414.101 182.7 414.501 182.6 411.301C182.5 408.001 180.1 409.001 178.3 408.801C176.3 408.601 175.1 408.901 175 411.501C175 414.501 176.7 414.201 178.7 414.101ZM179 405.601C180.3 405.501 182.6 406.301 182.5 403.001C182.4 399.701 180 400.701 178.2 400.401C176.2 400.201 175 400.601 174.9 403.201C175.1 406.001 176.8 405.601 179 405.601Z" fill="#0559BB"/>
<path d="M454.4 259.601C454.4 260.401 453.8 260.801 453.4 261.301C450.6 264.101 447.8 266.901 445 269.801C444 270.801 443.3 270.901 442.3 269.901C439.5 267.001 436.6 264.101 433.6 261.201C432.6 260.201 432.6 259.401 433.6 258.401C436.5 255.501 439.4 252.601 442.3 249.701C443 249.001 443.6 248.501 444.5 249.401C447.6 252.501 450.7 255.601 453.9 258.801C454.1 259.001 454.3 259.401 454.4 259.601Z" fill="#0559BB"/>
<path d="M424.2 259.701C423.8 260.201 423.4 260.701 423 261.101C420.3 263.801 417.5 266.501 414.8 269.301C413.6 270.501 412.8 270.601 411.6 269.301C408.9 266.501 406.2 263.801 403.4 261.101C402.4 260.101 402 259.301 403.3 258.101C406.2 255.401 409 252.501 411.8 249.701C412.5 248.901 413.2 248.201 414.3 249.301C417.4 252.401 420.5 255.601 423.7 258.701C423.7 259.001 423.9 259.301 424.2 259.701Z" fill="#0559BB"/>
<path d="M391.8 407.402C391.8 410.202 391.7 412.902 391.8 415.702C391.9 417.402 391 417.702 389.5 417.702C388.1 417.702 387.4 417.302 387.5 415.802C387.5 415.602 387.5 415.402 387.5 415.102C387.3 408.902 387.3 409.002 381.2 409.202C379.1 409.202 378.5 410.002 378.7 412.002C378.8 413.202 378.6 414.402 378.7 415.702C378.8 417.302 378.1 417.802 376.6 417.802C375.1 417.802 374.3 417.402 374.4 415.702C374.5 410.202 374.5 404.602 374.4 399.102C374.4 397.602 374.9 396.902 376.5 396.902C378.3 396.902 378.9 397.602 378.8 399.302C378.8 399.702 378.8 400.202 378.8 400.602C378.8 405.302 378.8 405.302 383.4 405.302C387.6 405.302 387.4 405.302 387.7 400.902C387.8 399.502 386.4 397.302 389.2 396.902C390.9 396.702 392 397.102 391.9 399.102C391.7 401.902 391.8 404.702 391.8 407.402Z" fill="#0559BB"/>
<path d="M313.6 408.902C312.5 408.902 311.4 408.902 310.3 408.902C309 408.902 307.5 408.602 307.6 410.802C307.7 412.602 307.9 414.102 310.2 414.202C312.4 414.302 314.6 414.102 316.8 413.502C317.7 413.302 319 412.902 319 414.502C319.1 415.602 319.6 417.002 317.7 417.402C314.4 418.202 311.1 418.502 307.9 417.502C304.4 416.502 303 413.802 303.1 410.402C303.3 405.702 301.4 400.202 306.9 397.302C313.5 393.802 319.8 397.502 320.3 404.702C320.5 407.702 319.6 409.102 316.5 408.802C315.6 408.802 314.6 408.902 313.6 408.902ZM312 405.802C313.3 405.002 315.9 406.802 315.8 403.502C315.7 400.602 313.9 400.402 311.7 400.402C309.6 400.402 307.7 400.602 307.6 403.502C307.6 407.302 310.6 404.802 312 405.802Z" fill="#0559BB"/>
<path d="M73.5 400.302C72.1 400.602 70.7 400.802 69.3 401.102C68.3 401.302 66.9 401.902 66.8 400.102C66.7 398.902 66.4 397.602 68.1 397.202C71.4 396.502 74.7 396.102 77.9 397.302C80.7 398.302 81.4 400.802 81.8 403.402C82.3 407.402 81 411.602 82.7 415.602C83.1 416.502 82 416.902 81.5 417.402C80.9 418.002 80.1 418.202 79.5 417.402C78.4 415.702 77.2 416.302 75.8 417.102C74.6 417.902 73.2 418.302 71.7 418.402C67.9 418.702 65.7 417.302 65.2 414.302C64.4 409.902 65.7 407.402 69.5 406.302C71.1 405.802 72.8 405.902 74.4 405.802C75.7 405.702 77.6 406.502 77.6 404.102C77.6 402.002 76.7 400.702 74.4 400.702C74.1 400.702 73.7 400.702 73.4 400.702C73.5 400.402 73.5 400.302 73.5 400.302ZM74.2 408.802C72.2 409.002 69.6 408.202 69.6 411.602C69.6 413.402 70.4 414.602 72.1 414.102C74.1 413.502 77.4 414.802 77.6 410.902C77.8 408.002 75.6 409.002 74.2 408.802Z" fill="#0559BB"/>
<path d="M211.5 407.301C211.6 409.501 211.7 411.801 210.8 413.801C209.4 417.101 205.7 418.601 200.5 418.001C196.5 417.601 194.3 415.701 193.6 412.001C193 408.901 193 405.801 193.5 402.801C194.3 398.201 197 396.301 202.4 396.401C207.6 396.401 210.7 398.601 211.4 403.001C211.7 404.401 211.5 405.901 211.5 407.301ZM197.8 407.101C197.8 408.001 197.8 408.901 197.8 409.701C197.9 413.501 198.5 414.001 202.3 414.101C206.3 414.101 206.9 413.601 207 409.601C207 407.601 207 405.601 207 403.701C207 402.401 206.7 401.301 205.3 400.801C201 399.001 197.9 401.001 197.8 405.501C197.8 406.001 197.8 406.601 197.8 407.101Z" fill="#0559BB"/>
<path d="M522.7 407.301C522.7 408.001 522.7 408.601 522.7 409.301C522.4 417.001 515.2 421.101 508.3 417.301C503.4 414.601 504.6 409.801 504.5 405.401C504.4 402.001 505.2 399.001 508.7 397.401C516.5 393.701 522.7 398.201 522.7 407.301ZM518.2 407.601C518.2 400.601 517.8 400.401 512.3 400.601C510 400.701 508.9 401.801 509.1 403.901C509.4 407.301 507 411.801 511 413.901C515.4 416.101 518.1 413.901 518.1 409.001C518.2 408.501 518.2 408.001 518.2 407.601Z" fill="#0559BB"/>
<path d="M127.9 407.401C127.9 408.201 127.9 409.001 127.9 409.701C127.7 415.501 125.1 418.101 119.2 418.201C113 418.301 110.2 415.901 109.7 410.101C109.6 408.701 109.6 407.201 109.7 405.801C109.9 397.701 117.4 393.601 124.5 397.701C127.1 399.201 127.9 401.401 127.9 407.401ZM123.5 406.701C123.1 405.101 124.4 402.301 121.9 400.901C118.3 398.801 114.5 400.901 114.3 405.001C114.2 407.201 114.4 409.401 114.5 411.601C114.6 412.801 115 413.701 116.3 414.001C120.8 415.401 123.3 413.801 123.6 409.201C123.5 408.501 123.5 407.901 123.5 406.701Z" fill="#0559BB"/>
<path d="M447.8 405.101C448 408.901 447.2 412.101 448.5 415.001C449.1 416.401 447.9 416.701 447.3 417.301C446.6 418.001 445.9 417.801 445.4 417.001C444.4 415.401 443.3 415.901 442.1 416.701C440.3 417.901 438.2 418.301 436 418.001C433.1 417.701 431.2 416.201 430.8 413.301C430.2 408.401 430.5 403.501 430.4 398.701C430.4 396.901 431.5 396.801 432.8 396.801C434.3 396.801 434.7 397.501 434.7 398.901C434.7 402.901 434.8 406.901 434.7 410.901C434.7 413.201 435.6 414.001 437.9 413.901C442.6 413.701 443.5 413.001 443.5 408.501C443.5 405.401 443.5 402.301 443.5 399.201C443.5 397.801 443.7 396.901 445.4 396.901C447.2 396.901 447.8 397.501 447.7 399.201C447.7 401.401 447.8 403.601 447.8 405.101Z" fill="#0559BB"/>
<path d="M58.4999 407.602C58.4999 410.302 58.3999 412.902 58.4999 415.602C58.5999 417.202 57.8999 417.702 56.3999 417.802C54.7999 417.802 54.1999 417.202 54.1999 415.702C54.2999 411.902 54.1999 408.202 54.2999 404.402C54.3999 402.202 54.2999 400.702 51.1999 400.702C48.2999 400.702 47.1999 401.702 47.3999 404.502C47.5999 407.902 46.9999 411.102 45.6999 414.202C45.2999 415.202 44.7999 416.302 43.9999 417.002C42.6999 418.302 40.6999 418.202 39.3999 417.302C38.2999 416.602 39.6999 415.402 40.1999 414.502C42.6999 409.902 43.9999 405.102 43.8999 399.902C43.8999 397.602 44.4999 396.702 46.8999 396.902C49.7999 397.102 52.6999 397.002 55.4999 396.902C57.5999 396.802 58.4999 397.402 58.3999 399.702C58.2999 402.302 58.4999 404.902 58.4999 407.602Z" fill="#0559BB"/>
<path d="M343.9 407.501C343.9 410.001 343.9 412.601 343.9 415.101C343.9 416.601 343.9 417.701 341.9 417.701C339.8 417.701 339.7 416.601 339.7 415.001C339.8 411.201 339.6 407.501 339.8 403.701C340 401.001 338.7 400.601 336.4 400.701C334.3 400.701 332.7 400.801 332.9 403.601C333.2 407.601 332.5 411.601 330.6 415.201C330.2 416.001 329.8 416.901 329.1 417.301C327.8 418.001 326 418.201 325 417.301C323.7 416.301 325.3 415.201 325.8 414.301C328.3 409.801 329.5 405.001 329.5 400.001C329.5 397.601 330.1 396.601 332.7 396.801C335.7 397.001 338.7 396.901 341.7 396.801C343.5 396.701 344 397.501 344 399.101C343.9 402.001 343.9 404.701 343.9 407.501Z" fill="#0559BB"/>
<path d="M546.8 407.701C546.8 410.401 546.7 413.001 546.8 415.701C546.9 417.301 546.2 417.801 544.7 417.801C543 417.801 542.6 417.001 542.7 415.601C542.7 415.501 542.7 415.401 542.7 415.301C542.5 409.201 542.5 409.301 536.4 409.401C534.3 409.401 533.7 410.301 533.8 412.201C533.9 413.401 533.7 414.601 533.8 415.901C533.9 417.701 532.9 417.901 531.5 417.901C530.2 417.901 529.5 417.601 529.5 416.001C529.6 410.501 529.6 404.901 529.5 399.401C529.5 397.801 530.1 397.201 531.6 397.201C533.2 397.201 533.9 397.801 533.7 399.401C533.7 399.601 533.7 399.801 533.7 400.101C533.8 405.801 535.3 406.901 541 405.701C542.3 405.401 542.6 404.701 542.5 403.601C542.5 402.201 542.6 400.701 542.5 399.301C542.4 397.901 542.9 397.301 544.4 397.301C545.9 397.301 546.7 397.701 546.7 399.401C546.7 401.901 546.8 404.801 546.8 407.701Z" fill="#0559BB"/>
<path d="M351.8 407.101C351.8 404.301 351.8 401.601 351.8 398.801C351.8 397.401 352.4 396.901 353.8 396.901C355.2 396.901 356.1 397.101 356.2 398.801C356.2 400.401 355.5 402.501 356.6 403.601C357.8 404.801 359.7 403.401 361.3 403.501C365.8 403.701 368 405.801 368.2 410.301C368.4 415.201 366.6 417.201 361.7 417.601C351.7 418.401 351.7 418.401 351.8 408.501C351.7 408.001 351.7 407.501 351.8 407.101C351.7 407.101 351.7 407.101 351.8 407.101ZM359.8 407.401C357.6 407.101 355.9 407.201 356.1 410.301C356.3 412.401 355.7 414.501 359.2 414.201C361.6 414.001 363.8 414.301 363.7 410.701C363.6 407.801 362.3 407.101 359.8 407.401Z" fill="#0559BB"/>
<path d="M399.7 407.001C399.7 404.301 399.7 401.701 399.7 399.001C399.7 397.501 400.1 396.801 401.8 396.801C403.4 396.801 404 397.401 403.9 399.001C403.9 399.601 404 400.101 403.9 400.701C403.6 403.401 404.3 404.401 407.4 403.701C412.2 402.701 415.1 405.101 415.6 409.501C416.2 414.501 414 417.201 408.9 417.601C399.8 418.301 399.8 418.301 399.8 409.301C399.6 408.601 399.6 407.801 399.7 407.001C399.6 407.001 399.6 407.001 399.7 407.001ZM404 410.601C403.6 413.001 404.1 414.401 407 414.101C409.3 413.901 411 413.801 411 410.701C411 407.901 409.8 407.201 407.2 407.201C404.6 407.201 403.5 408.001 404 410.601Z" fill="#0559BB"/>
<path d="M260.3 416.701C260.2 416.801 260.1 416.901 260 416.901C259.2 416.901 258.5 416.802 257.7 416.802C257.2 415.002 256.3 414.901 255.1 416.201C254.1 416.101 253.5 416.601 253 417.401C246.3 419.601 243 417.301 243 410.301C243 407.001 242.9 403.701 243 400.401C243 399.001 242.1 396.901 245.1 397.001C248 397.101 247 399.201 247 400.601C247.1 403.801 247 407.001 247.1 410.201C247.1 411.401 246.9 412.701 247.7 413.701C249.7 414.701 251.8 414.701 253.8 413.501C254 413.401 254.2 413.401 254.4 413.401C255 413.501 255.5 413.401 255.8 412.701C257.1 411.501 256.7 410.101 256.2 408.701C256.2 405.201 256.2 401.701 256.2 398.201C256.8 398.001 257.2 397.601 257.3 397.001C257.9 397.001 258.5 397.001 259.1 397.001C259.2 397.601 259.5 398.001 260.1 398.301C260.1 402.701 260.1 407.101 260.2 411.501C260.1 411.601 260 411.701 260 411.701C260.1 411.901 260.2 412.001 260.3 412.201C260.4 413.001 260.5 413.901 260.7 414.701C260.4 415.301 260.4 416.001 260.3 416.701Z" fill="#0559BB"/>
<path d="M96.6998 414.001C97.6998 413.801 98.8998 413.601 100.1 413.401C101 413.301 102.2 412.701 102.3 414.401C102.4 415.601 102.5 416.901 100.8 417.301C97.8998 418.001 94.8998 418.401 91.9998 417.401C89.5998 416.601 88.4998 414.801 88.3998 412.401C88.2998 410.001 88.9998 408.001 91.3998 407.001C92.8998 406.401 94.5998 406.001 96.1998 405.601C97.7998 405.201 99.2998 404.701 98.9998 402.701C98.6998 400.301 96.7998 400.901 95.3998 400.901C94.0998 400.901 92.7998 401.201 91.4998 401.501C90.4998 401.701 89.3998 401.801 89.2998 400.301C89.1998 399.201 89.0998 398.001 90.5998 397.601C93.3998 396.901 96.2998 396.501 99.0998 397.301C101.6 398.001 103.1 399.501 103.2 402.201C103.4 405.101 102.4 407.201 99.4998 408.101C98.1998 408.501 96.8998 408.801 95.6998 409.101C93.9998 409.501 92.3998 410.001 92.6998 412.301C93.1998 414.801 95.1998 413.601 96.6998 414.001Z" fill="#0559BB"/>
<path d="M154.5 400.801C154.3 400.901 154.1 400.901 153.9 401.001C153.8 400.901 153.6 400.801 153.5 400.601C153.5 400.801 153.4 401.001 153.4 401.201C152.8 401.301 152.2 401.501 151.6 401.601C148.8 398.801 146 396.401 141.6 398.601C141.1 398.801 140.5 398.801 140 398.901C139.9 398.801 139.8 398.701 139.8 398.601C142.8 396.001 146.1 395.601 149.4 398.001C150.5 398.801 151.4 398.701 152.4 398.001C153.8 397.101 155.4 396.601 157.1 396.401C160.6 396.101 163 397.901 163.2 401.401C163.5 406.101 163.3 410.901 163.4 415.701C163.4 417.201 162.7 417.601 161.4 417.601C159.9 417.701 159.2 417.201 159.2 415.501C159.3 411.601 159.2 407.801 159.1 403.901C159.1 402.601 159.4 401.201 157.9 400.401C156.6 399.901 155.5 399.801 154.5 400.801Z" fill="#0559BB"/>
<path d="M422.8 407.401C422.8 410.201 422.7 412.901 422.8 415.701C422.8 417.101 422.3 417.801 420.9 417.701C419.7 417.601 418.4 417.701 418.5 415.801C418.6 410.201 418.6 404.501 418.6 398.901C418.6 397.301 419.3 396.901 420.8 396.801C422.5 396.801 422.8 397.601 422.8 399.101C422.8 401.901 422.8 404.701 422.8 407.401Z" fill="#0559BB"/>
<path d="M139.2 398.902C139.3 398.702 139.5 398.602 139.7 398.702C139.8 398.802 139.9 398.902 139.9 399.002C139.9 399.602 139.8 400.202 139.8 400.802C139.8 401.002 139.8 401.302 139.8 401.502C138.3 403.102 139.1 405.002 139 406.802C138.7 410.202 139.4 413.602 138.7 417.002L138.6 417.302C137.5 417.902 136.3 418.002 135.2 417.202V417.102C134.4 411.002 134.9 404.802 134.9 398.702C134.9 398.002 135 397.302 135.8 397.102C137.3 396.802 137.7 398.402 138.7 399.002C138.8 399.202 139 399.202 139.2 398.902Z" fill="#0559BB"/>
<path d="M344.8 182.401C344 177.101 343 171.801 342.5 166.501C341.6 156.701 338.7 147.301 336.3 137.801C337.9 138.101 339.1 139.601 341 139.201C341.7 139.101 342.2 139.601 342.2 140.401C342.2 141.201 342.3 142.101 341.3 142.301C339.4 142.601 339.3 144.001 339.6 145.201C342.2 154.401 343.7 163.801 344.5 173.301C345.8 173.401 345.5 171.501 346.8 171.701C346.3 175.301 345.9 178.901 344.8 182.401Z" fill="#0559BB"/>
<path d="M439.3 394.401C437.1 394.301 434.8 394.201 433 392.401C432.5 391.801 431.1 391.301 432.1 390.301C432.8 389.601 433.5 388.301 435.1 389.301C437.7 390.801 440.5 390.801 443.2 389.201C444.6 388.401 445.3 389.601 446 390.201C446.9 391.101 445.9 391.801 445.3 392.401C443.7 394.001 441.7 394.401 439.3 394.401Z" fill="#0559BB"/>
<path d="M139.9 400.701C139.9 400.101 139.9 399.501 140 398.901C140.5 398.801 141.1 398.801 141.6 398.601C145.9 396.401 148.8 398.901 151.6 401.601C151.6 401.801 151.4 402.001 151.2 402.101C151.1 402.101 150.9 402.201 150.9 402.201C150.9 402.401 151 402.601 151 402.701C151 403.601 151 404.501 151 405.401C151 407.201 148.9 409.001 151 410.701C151 411.301 151 412.001 151 412.601C150.4 412.701 150.1 413.101 149.9 413.701C149.7 414.501 150.2 415.802 148.9 415.802C147.4 415.802 147.9 414.401 147.9 413.501C147.8 410.201 147.9 406.901 147.9 403.601C147.9 399.601 146.6 398.701 142.6 400.001C142 400.001 141.4 400.201 141.2 400.901H141C140.6 400.901 140.2 400.801 139.9 400.701Z" fill="#0559BB"/>
<path d="M142.5 400.102C146.5 398.802 147.8 399.702 147.8 403.702C147.8 407.002 147.8 410.302 147.8 413.602C147.8 414.502 147.3 415.902 148.8 415.902C150.1 415.902 149.6 414.602 149.8 413.802C149.9 413.202 150.3 412.902 150.9 412.702C151 413.902 151.1 415.102 151.1 416.302C151.1 418.102 149.7 417.602 148.7 417.702C147.4 417.802 147 417.102 147 415.902C147 412.302 147 408.602 147 405.002C147 400.802 146.7 400.502 142.5 400.802C142.5 400.502 142.5 400.302 142.5 400.102Z" fill="#0559BB"/>
<path d="M273.6 92.6016C275.2 92.4016 275.9 93.7016 276.8 94.7016C277.5 95.6016 278.1 96.3016 279.1 95.1016C279.6 94.6016 280 93.5016 280.8 94.5016C281.3 95.2016 281.4 96.4016 280.5 96.9016C279.5 97.5016 279 98.1016 279 99.2016C276.9 97.1016 275 95.1016 273.6 92.6016Z" fill="#0559BB"/>
<path d="M347.1 170.401C347 165.901 346.8 161.401 351 158.401C349.7 162.401 348.4 166.401 347.1 170.401Z" fill="#0559BB"/>
<path d="M312.7 190.001C313.1 198.201 313.2 206.401 312.7 214.601C312.3 206.401 312.3 198.201 312.7 190.001Z" fill="#0559BB"/>
<path d="M290.4 64.4013C289.6 64.3013 288.5 63.8013 287.9 64.2013C284.9 65.7013 285.1 64.9013 286.7 62.7013C287.2 62.0013 286.8 61.4013 286.1 61.2013C284.2 60.7013 284.3 59.3013 284.4 57.8013C286.7 59.7013 288.9 61.8013 290.4 64.4013Z" fill="#0559BB"/>
<path d="M291.2 214.902C290.9 208.802 290.9 202.702 291.2 196.602C291.6 202.702 291.6 208.802 291.2 214.902Z" fill="#0559BB"/>
<path d="M294.5 68.9014C290.8 68.8014 290.3 68.3014 290.4 64.4014C292.2 65.5014 293.4 67.2014 294.5 68.9014Z" fill="#0559BB"/>
<path d="M265.7 83.8013C268.3 84.7013 270.4 86.0013 270.3 89.2013C268.6 87.6013 267 85.8013 265.7 83.8013Z" fill="#0559BB"/>
<path d="M389.5 107.301C389.8 105.301 390.9 104.101 392.9 103.801C392.1 105.301 390.9 106.401 389.5 107.301Z" fill="#0559BB"/>
<path d="M151 410.801C148.9 409.001 151 407.201 151 405.501C151.3 407.201 151.3 409.001 151 410.801Z" fill="#0559BB"/>
<path d="M283.7 57.1014C281.7 57.3014 280.8 56.4014 281.1 54.4014C282.3 54.9014 283 56.0014 283.7 57.1014Z" fill="#0559BB"/>
<path d="M253.7 413.401C251.7 414.601 249.7 414.601 247.6 413.601C249.7 413.501 251.7 413.501 253.7 413.401Z" fill="#0559BB"/>
<path d="M378.2 119.702C378.1 118.002 378.8 117.002 380.6 117.102C380.2 118.202 379.2 119.002 378.2 119.702Z" fill="#0559BB"/>
<path d="M386.9 110.201C386.9 108.701 387.4 107.701 389.1 107.801C388.6 108.901 387.9 109.701 386.9 110.201Z" fill="#0559BB"/>
<path d="M296.4 71.1015C294.7 71.3015 294.1 70.6015 294.6 69.0015C295.5 69.4015 296.1 70.1015 296.4 71.1015Z" fill="#0559BB"/>
<path d="M277.8 51.1015C276.4 51.2015 275.8 50.4015 275.8 49.0015C276.9 49.3015 277.5 50.0015 277.8 51.1015Z" fill="#0559BB"/>
<path d="M281.1 54.4014C279.7 54.4014 279 53.8014 279.1 52.4014C280 52.8014 280.8 53.4014 281.1 54.4014Z" fill="#0559BB"/>
<path d="M257.7 416.801C258.5 416.801 259.2 416.901 260 416.901C259.1 418.101 258.3 418.601 257.7 416.801Z" fill="#0559BB"/>
<path d="M271.6 90.5015C273 90.5015 273.7 91.1015 273.6 92.6015C272.6 92.2015 272.1 91.4015 271.6 90.5015Z" fill="#0559BB"/>
<path d="M256 408.701C256.5 410.101 257 411.501 255.6 412.701C255.8 411.401 255.9 410.101 256 408.701Z" fill="#0559BB"/>
<path d="M372.3 126.401C372.3 125.101 372.9 124.501 374.1 124.401C373.8 125.301 373.3 126.101 372.3 126.401Z" fill="#0559BB"/>
<path d="M154.5 400.801C155.5 399.801 156.6 399.901 157.7 400.501C156.6 400.601 155.6 400.701 154.5 400.801Z" fill="#0559BB"/>
<path d="M384.3 113.102C384.3 112.102 384.7 111.402 385.8 111.202C385.7 112.202 385.2 112.802 384.3 113.102Z" fill="#0559BB"/>
<path d="M398.2 98.3014C398.2 97.7014 398.2 97.0014 398.2 96.4014C400 97.1014 399.1 97.7014 398.2 98.3014Z" fill="#0559BB"/>
<path d="M260.3 416.702C260.3 416.002 260.4 415.302 260.4 414.602C261.2 415.402 262 416.102 260.3 416.702Z" fill="#0559BB"/>
<path d="M255.1 416.202C256.3 415.002 257.2 415.002 257.7 416.802C256.9 416.302 256.1 415.802 255.1 416.202Z" fill="#0559BB"/>
<path d="M279.1 52.4016C278.1 52.5016 277.7 52.0016 277.8 51.1016C278.6 51.2016 279 51.6016 279.1 52.4016Z" fill="#0559BB"/>
<path d="M257.1 397.002C257 397.602 256.6 398.102 256 398.202C255.8 397.202 256.1 396.802 257.1 397.002Z" fill="#0559BB"/>
<path d="M496.9 276.701C496.4 277.701 495.6 277.601 494.7 277.501C495.3 276.901 496 276.501 496.9 276.701Z" fill="#0559BB"/>
<path d="M381.6 115.801C381.6 114.901 381.9 114.401 382.8 114.401C382.7 115.201 382.3 115.601 381.6 115.801Z" fill="#0559BB"/>
<path d="M377 121.102C376.9 120.202 377.3 119.802 378.2 119.702C378.1 120.502 377.7 120.902 377 121.102Z" fill="#0559BB"/>
<path d="M259.9 398.202C259.3 398.002 259 397.602 258.9 396.902C260 396.802 260.2 397.402 259.9 398.202Z" fill="#0559BB"/>
<path d="M253 417.302C253.5 416.502 254.1 416.002 255.1 416.102C254.6 416.902 254 417.402 253 417.302Z" fill="#0559BB"/>
<path d="M396.2 100.402C396.2 99.6016 396.6 99.2016 397.5 99.1016C397.3 99.7016 396.9 100.202 396.2 100.402Z" fill="#0559BB"/>
<path d="M392.9 103.801C392.9 102.901 393.3 102.501 394.2 102.501C394 103.101 393.6 103.601 392.9 103.801Z" fill="#0559BB"/>
<path d="M375 123.201C375.1 122.401 375.6 122.001 376.3 121.801C376.2 122.601 375.8 123.101 375 123.201Z" fill="#0559BB"/>
<path d="M394.9 101.801C394.9 101.001 395.3 100.501 396.1 100.501C396 101.101 395.6 101.501 394.9 101.801Z" fill="#0559BB"/>
<path d="M385.7 111.301C385.7 110.701 386.2 110.501 386.7 110.401C386.6 110.901 386.3 111.301 385.7 111.301Z" fill="#0559BB"/>
<path d="M142.5 400.102C142.5 400.302 142.5 400.502 142.5 400.802C142 400.902 141.6 401.002 141.1 401.102C141.3 400.302 141.9 400.102 142.5 400.102Z" fill="#0559BB"/>
<path d="M344.4 185.701C344.2 185.201 344.3 184.801 344.6 184.501C344.9 184.901 344.8 185.301 344.4 185.701Z" fill="#0559BB"/>
<path d="M374.2 124.302C374.2 123.802 374.4 123.302 375 123.202C375 123.702 374.8 124.102 374.2 124.302Z" fill="#0559BB"/>
<path d="M255.7 412.701C255.5 413.401 255 413.501 254.3 413.401C254.8 413.101 255.2 412.901 255.7 412.701Z" fill="#0559BB"/>
<path d="M150.9 402.801C150.9 402.601 150.8 402.401 150.8 402.301C150.8 402.301 151 402.201 151.1 402.201C151.1 402.301 151 402.501 150.9 402.801Z" fill="#0559BB"/>
<path d="M139.2 398.901C139 399.201 138.8 399.301 138.6 398.901C138.7 398.801 138.9 398.801 139.2 398.901Z" fill="#0559BB"/>
<path d="M270.3 89.1016C270.5 89.4016 270.7 89.6016 271 89.9016C270.8 89.7016 270.5 89.4016 270.3 89.1016Z" fill="#0559BB"/>
<path d="M397.6 99.1015C397.8 98.9015 398 98.7015 398.2 98.5015C397.9 98.7015 397.7 98.9015 397.6 99.1015Z" fill="#0559BB"/>
<path d="M381 116.601C381.2 116.301 381.4 116.101 381.7 115.801C381.4 116.101 381.2 116.301 381 116.601Z" fill="#0559BB"/>
<path d="M376.3 121.802C376.5 121.602 376.7 121.302 377 121.102C376.7 121.402 376.5 121.602 376.3 121.802Z" fill="#0559BB"/>
<path d="M259.3 185.102C259.4 185.302 259.5 185.502 259.6 185.702C259.6 185.802 259.5 185.902 259.5 186.002C259.4 185.802 259.3 185.602 259.3 185.402C259.2 185.302 259.3 185.202 259.3 185.102Z" fill="#0559BB"/>
<path d="M312.6 183.701C312.7 183.801 312.8 184.001 312.8 184.101C312.8 184.101 312.7 184.201 312.6 184.301C312.6 184.101 312.6 183.901 312.6 183.701Z" fill="#0559BB"/>
<path d="M260.1 412.101C260 411.901 259.9 411.801 259.8 411.601C259.8 411.501 259.9 411.401 260 411.401C260 411.601 260.1 411.901 260.1 412.101Z" fill="#0559BB"/>
<path d="M371.7 127.401C371.9 127.101 372.1 126.801 372.3 126.501C372.1 126.801 371.9 127.101 371.7 127.401Z" fill="#0559BB"/>
<path d="M153.3 401.101C153.3 400.901 153.4 400.701 153.4 400.501C153.5 400.601 153.7 400.701 153.8 400.901C153.7 401.101 153.5 401.201 153.3 401.101Z" fill="#0559BB"/>
<path d="M139.9 400.701C140.3 400.801 140.6 400.901 141 401.001C140.6 401.101 140.3 401.201 139.9 401.401C139.9 401.201 139.9 400.901 139.9 400.701Z" fill="#0559BB"/>
<path d="M382.9 114.401C383.1 114.201 383.3 114.001 383.5 113.801C383.3 114.001 383.1 114.201 382.9 114.401Z" fill="#0559BB"/>
<path d="M394.3 102.501C394.5 102.301 394.7 102.101 394.9 101.901C394.7 102.001 394.5 102.201 394.3 102.501Z" fill="#0559BB"/>
<path d="M500.2 276.401C499.9 276.801 499.7 276.801 499.4 276.401C499.6 276.401 499.9 276.401 500.2 276.401Z" fill="#0559BB"/>
<path d="M284.3 57.8016C284.1 57.6016 283.9 57.3016 283.7 57.1016C283.9 57.3016 284.1 57.6016 284.3 57.8016Z" fill="#0559BB"/>
<path d="M135.1 417.001V417.102L135 417.001H135.1Z" fill="#0559BB"/>
<path d="M138.5 417.201L138.7 416.901L138.8 417.101L138.5 417.201Z" fill="#0559BB"/>
<path d="M297 71.8016C296.8 71.6016 296.6 71.4016 296.4 71.1016C296.6 71.3016 296.8 71.5016 297 71.8016Z" fill="#0559BB"/>
<path d="M293 80.5015C297.2 81.3015 293.3 83.3015 293.8 84.7015C292.7 83.4015 293.2 81.9015 293 80.5015Z" fill="#0559BB"/>
<path d="M167.2 353.201C168.9 353.801 170.5 354.301 172.3 354.201C181 354.101 189.7 354.101 198.4 354.001C198.2 355.701 196.9 355.401 195.9 355.401C187.9 355.401 179.9 355.501 171.9 355.401C170.2 355.401 168.1 355.501 167.2 353.201Z" fill="#0559BB"/>
<path d="M164.5 302.901C164.6 315.001 164.6 327.201 164.7 339.301C164.7 343.201 165 347.001 165.1 350.901C164 349.901 163.8 348.701 163.8 347.301C163.8 333.301 163.8 319.301 163.8 305.301C163.8 304.401 163.7 303.501 164.5 302.901Z" fill="#0559BB"/>
<path d="M198.4 354.101C199.7 353.401 201 352.701 202.3 352.001C202.2 354.901 200 354.001 198.4 354.101Z" fill="#0559BB"/>
<path d="M165.2 351.102C165.4 351.402 165.6 351.802 165.9 352.102C165.7 351.802 165.4 351.502 165.2 351.102Z" fill="#0559BB"/>
<path d="M202.3 352.101C202.5 351.801 202.8 351.601 203 351.301C202.8 351.601 202.6 351.801 202.3 352.101Z" fill="#0559BB"/>
<path d="M165.9 352.102C166.1 352.302 166.4 352.602 166.6 352.802C166.3 352.602 166.1 352.302 165.9 352.102Z" fill="#0559BB"/>
<path d="M335.6 135.101C334.6 134.201 335 132.901 334.9 131.801C338.6 132.101 336.5 133.701 335.6 135.101Z" fill="#0559BB"/>
<path d="M336.3 137.101C336.1 136.901 335.9 136.701 335.7 136.401C335.9 136.701 336.1 136.901 336.3 137.101Z" fill="#0559BB"/>
<path d="M288.1 72.9013C287.4 72.9013 287.1 72.6013 287.2 72.1013C287.2 71.6013 287.5 71.3013 288 71.3013C288.5 71.3013 288.9 71.6013 288.8 72.1013C288.7 72.4013 288.3 72.7013 288.1 72.9013Z" fill="#0559BB"/>
<path d="M293.4 74.0013C293.5 74.7013 293.3 75.1013 292.7 75.1013C292.2 75.1013 291.8 74.9013 291.8 74.4013C291.8 74.0013 291.9 73.4013 292.4 73.5013C292.8 73.5013 293.1 73.8013 293.4 74.0013Z" fill="#0559BB"/>
<path d="M278.8 55.0017C278.7 55.2017 278.7 55.5017 278.5 55.5017C278.4 55.6017 278.1 55.4017 278 55.3017C278.1 55.1017 278.1 54.8017 278.3 54.8017C278.4 54.7017 278.6 54.9017 278.8 55.0017Z" fill="#0559BB"/>
</svg>
