<svg width="11" height="11" viewBox="0 0 11 11" fill="none" xmlns="http://www.w3.org/2000/svg">
<path d="M7.38319 3C7.53997 3 7.69675 3.05775 7.82053 3.18149C8.05983 3.42073 8.05983 3.81671 7.82053 4.05594L1.05415 10.8206C0.814854 11.0598 0.418772 11.0598 0.179473 10.8206C-0.0598249 10.5813 -0.0598249 10.1854 0.179473 9.94612L6.94585 3.18149C7.06137 3.066 7.21815 3 7.38319 3Z" fill="#3300FD"/>
<path d="M4.59242 2L8.40758 2C8.73144 2 9 2.26856 9 2.59242L9 6.40758C9 6.73144 8.73144 7 8.40758 7C8.08373 7 7.81517 6.73144 7.81517 6.40758L7.81517 3.18483L4.59242 3.18483C4.26856 3.18483 4 2.91627 4 2.59242C4 2.26856 4.26856 2 4.59242 2Z" fill="#3300FD"/>
</svg>
